<svg xmlns="http://www.w3.org/2000/svg" xmlns:xlink="http://www.w3.org/1999/xlink" xmlns:lucid="lucid" width="1660" height="1165.67"><g transform="translate(0 -34.33333333333333)" lucid:page-tab-id="0_0"><path d="M0 0h1760v1360H0z" fill="#fff"/><path d="M620 286a6 6 0 0 1 6-6h308a6 6 0 0 1 6 6v84a8.86 8.86 0 0 1-5.57 8.23l-148.86 59.54a15 15 0 0 1-11.14 0l-148.86-59.54A8.86 8.86 0 0 1 620 370z" stroke="#3a414a" fill="#fff"/><use xlink:href="#a" transform="matrix(1,0,0,1,625,285) translate(88.48765432098766 79.12152777777777)"/><use xlink:href="#b" transform="matrix(1,0,0,1,625,285) translate(138.9814814814815 79.12152777777777)"/><use xlink:href="#c" transform="matrix(1,0,0,1,625,285) translate(193.24074074074076 79.12152777777777)"/><path d="M360 126a6 6 0 0 1 6-6h148a6 6 0 0 1 6 6v108a6 6 0 0 1-6 6H366a6 6 0 0 1-6-6z" stroke="#3a414a" fill="#fff"/><use xlink:href="#d" transform="matrix(1,0,0,1,372,132) translate(27.660493827160494 38.77777777777778)"/><use xlink:href="#e" transform="matrix(1,0,0,1,372,132) translate(8.864197530864189 65.44444444444446)"/><path d="M1080 126a6 6 0 0 1 6-6h148a6 6 0 0 1 6 6v108a6 6 0 0 1-6 6h-148a6 6 0 0 1-6-6z" stroke="#3a414a" fill="#fff"/><use xlink:href="#f" transform="matrix(1,0,0,1,1092,131.99999999999997) translate(17.475308641975303 38.77777777777778)"/><use xlink:href="#g" transform="matrix(1,0,0,1,1092,131.99999999999997) translate(26.672839506172835 65.44444444444446)"/><path d="M1079 180H786a6 6 0 0 0-6 6v77.12" stroke="#3a414a" fill="none"/><path d="M1079.5 180.5h-.5v-1h.5z" stroke="#3a414a" stroke-width=".05" fill="#3a414a"/><path d="M780 277.88l-4.63-14.26h9.26z" stroke="#3a414a" fill="#3a414a"/><path d="M521 180h253a6 6 0 0 1 6 6v77.12" stroke="#3a414a" fill="none"/><path d="M521 180.5h-.5v-1h.5z" stroke="#3a414a" stroke-width=".05" fill="#3a414a"/><path d="M780 277.88l-4.63-14.26h9.26z" stroke="#3a414a" fill="#3a414a"/><path d="M630 506a6 6 0 0 1 6-6h288a6 6 0 0 1 6 6v108a6 6 0 0 1-6 6H636a6 6 0 0 1-6-6z" stroke="#3a414a" fill="#fff"/><use xlink:href="#h" transform="matrix(1,0,0,1,642,512) translate(6.6296296296296475 54.33333333333333)"/><use xlink:href="#i" transform="matrix(1,0,0,1,642,512) translate(79.14814814814815 54.33333333333333)"/><use xlink:href="#j" transform="matrix(1,0,0,1,642,512) translate(198.99999999999997 54.33333333333333)"/><path d="M780 439.85v43.27" stroke="#3a414a" fill="none"/><path d="M780 439.35l.5-.02v.53h-1v-.53z" stroke="#3a414a" stroke-width=".05" fill="#3a414a"/><path d="M780 497.88l-4.63-14.26h9.26z" stroke="#3a414a" fill="#3a414a"/><path d="M630 686a6 6 0 0 1 6-6h288a6 6 0 0 1 6 6v108a6 6 0 0 1-6 6H636a6 6 0 0 1-6-6z" stroke="#3a414a" fill="#fff"/><use xlink:href="#k" transform="matrix(1,0,0,1,642,692) translate(38.14814814814815 54.33333333333333)"/><use xlink:href="#l" transform="matrix(1,0,0,1,642,692) translate(144.66666666666666 54.33333333333333)"/><path d="M780 621v42.12" stroke="#3a414a" fill="none"/><path d="M780.5 621h-1v-.5h1z" stroke="#3a414a" stroke-width=".05" fill="#3a414a"/><path d="M780 677.88l-4.63-14.26h9.26z" stroke="#3a414a" fill="#3a414a"/><path d="M630 866a6 6 0 0 1 6-6h288a6 6 0 0 1 6 6v108a6 6 0 0 1-6 6H636a6 6 0 0 1-6-6z" stroke="#3a414a" fill="#fff"/><use xlink:href="#m" transform="matrix(1,0,0,1,642,872) translate(44.7777777777778 54.33333333333333)"/><use xlink:href="#n" transform="matrix(1,0,0,1,642,872) translate(118.70370370370371 54.33333333333333)"/><path d="M780 801v42.12" stroke="#3a414a" fill="none"/><path d="M780.5 801h-1v-.5h1z" stroke="#3a414a" stroke-width=".05" fill="#3a414a"/><path d="M780 857.88l-4.63-14.26h9.26z" stroke="#3a414a" fill="#3a414a"/><path d="M630 1046a6 6 0 0 1 6-6h288a6 6 0 0 1 6 6v108a6 6 0 0 1-6 6H636a6 6 0 0 1-6-6z" stroke="#3a414a" fill="#fff"/><use xlink:href="#o" transform="matrix(1,0,0,1,642,1052) translate(56.74074074074076 54.33333333333333)"/><path d="M1040 1046a6 6 0 0 1 6-6h288a6 6 0 0 1 6 6v108a6 6 0 0 1-6 6h-288a6 6 0 0 1-6-6z" stroke="#3a414a" fill="#fff"/><use xlink:href="#p" transform="matrix(1,0,0,1,1052,1052) translate(36.55555555555557 36.33333333333333)"/><use xlink:href="#q" transform="matrix(1,0,0,1,1052,1052) translate(83.96296296296298 36.33333333333333)"/><use xlink:href="#r" transform="matrix(1,0,0,1,1052,1052) translate(159.44444444444446 36.33333333333333)"/><use xlink:href="#s" transform="matrix(1,0,0,1,1052,1052) translate(69.22222222222223 68.33333333333333)"/><path d="M220 1046a6 6 0 0 1 6-6h288a6 6 0 0 1 6 6v108a6 6 0 0 1-6 6H226a6 6 0 0 1-6-6z" stroke="#3a414a" fill="#fff"/><use xlink:href="#t" transform="matrix(1,0,0,1,232,1052) translate(40.370370370370395 54.33333333333333)"/><use xlink:href="#u" transform="matrix(1,0,0,1,232,1052) translate(115.77777777777779 54.33333333333333)"/><path d="M629 920H376a6 6 0 0 0-6 6v97.12" stroke="#3a414a" fill="none"/><path d="M629.5 920.5h-.5v-1h.5z" stroke="#3a414a" stroke-width=".05" fill="#3a414a"/><path d="M370 1037.88l-4.63-14.26h9.26z" stroke="#3a414a" fill="#3a414a"/><path d="M931 920h253a6 6 0 0 1 6 6v97.12" stroke="#3a414a" fill="none"/><path d="M931 920.5h-.5v-1h.5z" stroke="#3a414a" stroke-width=".05" fill="#3a414a"/><path d="M1190 1037.88l-4.63-14.26h9.27z" stroke="#3a414a" fill="#3a414a"/><path d="M780 981v42.12" stroke="#3a414a" fill="none"/><path d="M780.5 981h-1v-.5h1z" stroke="#3a414a" stroke-width=".05" fill="#3a414a"/><path d="M780 1037.88l-4.63-14.26h9.26z" stroke="#3a414a" fill="#3a414a"/><path d="M930 484.67a6 6 0 0 1 6-6h138a6 6 0 0 1 6 6V634a6 6 0 0 1-6 6H936a6 6 0 0 1-6-6z" fill="none"/><path d="M930 640c5.52 0 10-4.48 10-10v-60.67c0-5.52 4.48-10 10-10-5.52 0-10-4.47-10-10v-60.66c0-5.53-4.48-10-10-10" stroke="#3a414a" fill="none"/><use xlink:href="#v" transform="matrix(1,0,0,1,965,483.6666666666667) translate(0 67.11111111111111)"/><use xlink:href="#w" transform="matrix(1,0,0,1,965,483.6666666666667) translate(0 93.77777777777777)"/><use xlink:href="#x" transform="matrix(1,0,0,1,965,483.6666666666667) translate(70.24691358024684 93.77777777777777)"/><path d="M280 666a6 6 0 0 1 6-6h338a6 6 0 0 1 6 6v148a6 6 0 0 1-6 6H286a6 6 0 0 1-6-6z" fill="none"/><path d="M630 820c-5.52 0-10-4.48-10-10v-60c0-5.52-4.48-10-10-10 5.52 0 10-4.48 10-10v-60c0-5.52 4.48-10 10-10" stroke="#3a414a" fill="none"/><use xlink:href="#y" transform="matrix(1,0,0,1,285,665) translate(35.06172839506195 66.11111111111111)"/><use xlink:href="#z" transform="matrix(1,0,0,1,285,665) translate(123.82716049382731 66.11111111111111)"/><use xlink:href="#A" transform="matrix(1,0,0,1,285,665) translate(196.60493827160502 66.11111111111111)"/><use xlink:href="#B" transform="matrix(1,0,0,1,285,665) translate(266.85185185185185 66.11111111111111)"/><use xlink:href="#C" transform="matrix(1,0,0,1,285,665) translate(13.888888888889142 92.77777777777777)"/><use xlink:href="#D" transform="matrix(1,0,0,1,285,665) translate(123.70370370370387 92.77777777777777)"/><use xlink:href="#E" transform="matrix(1,0,0,1,285,665) translate(189.0740740740742 92.77777777777777)"/><use xlink:href="#F" transform="matrix(1,0,0,1,285,665) translate(221.1111111111112 92.77777777777777)"/><path d="M20 1026a6 6 0 0 1 6-6h188a6 6 0 0 1 6 6v148a6 6 0 0 1-6 6H26a6 6 0 0 1-6-6z" fill="none"/><path d="M220 1180c-5.52 0-10-4.48-10-10v-60c0-5.52-4.48-10-10-10 5.52 0 10-4.48 10-10v-60c0-5.52 4.48-10 10-10" stroke="#3a414a" fill="none"/><g><use xlink:href="#G" transform="matrix(1,0,0,1,25,1025) translate(83.51851851851858 26.11111111111115)"/><use xlink:href="#H" transform="matrix(1,0,0,1,25,1025) translate(44.01234567901244 52.77777777777779)"/><use xlink:href="#I" transform="matrix(1,0,0,1,25,1025) translate(61.41975308641983 79.44444444444444)"/><use xlink:href="#J" transform="matrix(1,0,0,1,25,1025) translate(126.79012345679014 79.44444444444444)"/><use xlink:href="#K" transform="matrix(1,0,0,1,25,1025) translate(14.56790123456804 106.11111111111109)"/><use xlink:href="#L" transform="matrix(1,0,0,1,25,1025) translate(78.64197530864205 106.11111111111109)"/><use xlink:href="#M" transform="matrix(1,0,0,1,25,1025) translate(104.50617283950622 106.11111111111109)"/><use xlink:href="#N" transform="matrix(1,0,0,1,25,1025) translate(106.97530864197535 132.77777777777774)"/></g><path d="M1340 1026a6 6 0 0 1 6-6h208a6 6 0 0 1 6 6v148a6 6 0 0 1-6 6h-208a6 6 0 0 1-6-6z" fill="none"/><path d="M1340 1180c5.52 0 10-4.48 10-10v-60c0-5.52 4.48-10 10-10-5.52 0-10-4.48-10-10v-60c0-5.52-4.48-10-10-10" stroke="#3a414a" fill="none"/><g><use xlink:href="#O" transform="matrix(1,0,0,1,1375,1025) translate(0 52.77777777777779)"/><use xlink:href="#P" transform="matrix(1,0,0,1,1375,1025) translate(39.50617283950614 52.77777777777779)"/><use xlink:href="#Q" transform="matrix(1,0,0,1,1375,1025) translate(0 79.44444444444443)"/><use xlink:href="#R" transform="matrix(1,0,0,1,1375,1025) translate(0 106.11111111111109)"/></g><path d="M1240 666a6 6 0 0 1 6-6h388a6 6 0 0 1 6 6v155.33c-66.8-26.94-108.4-26.94-133.6-26.94-40 0-93.2 26.93-133.2 26.93-24.8 0-66.8 0-133.2-26.94z" stroke="#3a414a" fill="#fff"/><g><use xlink:href="#S" transform="matrix(1,0,0,1,1245,665) translate(13.024691358024853 41.215277777777764)"/><use xlink:href="#T" transform="matrix(1,0,0,1,1245,665) translate(73.39506172839518 41.215277777777764)"/><use xlink:href="#U" transform="matrix(1,0,0,1,1245,665) translate(133.82716049382722 41.215277777777764)"/><use xlink:href="#V" transform="matrix(1,0,0,1,1245,665) translate(200.49382716049385 41.215277777777764)"/><use xlink:href="#W" transform="matrix(1,0,0,1,1245,665) translate(231.35802469135803 41.215277777777764)"/><use xlink:href="#X" transform="matrix(1,0,0,1,1245,665) translate(333.76543209876536 41.215277777777764)"/><use xlink:href="#Y" transform="matrix(1,0,0,1,1245,665) translate(26.6666666666668 67.8819444444444)"/><use xlink:href="#Z" transform="matrix(1,0,0,1,1245,665) translate(120.43209876543214 67.8819444444444)"/><use xlink:href="#aa" transform="matrix(1,0,0,1,1245,665) translate(148.70370370370372 67.8819444444444)"/><use xlink:href="#ab" transform="matrix(1,0,0,1,1245,665) translate(194.25925925925924 67.8819444444444)"/><use xlink:href="#ac" transform="matrix(1,0,0,1,1245,665) translate(218.95061728395058 67.8819444444444)"/><use xlink:href="#ad" transform="matrix(1,0,0,1,1245,665) translate(260.8641975308641 67.8819444444444)"/><use xlink:href="#ae" transform="matrix(1,0,0,1,1245,665) translate(279.3827160493826 67.8819444444444)"/><use xlink:href="#af" transform="matrix(1,0,0,1,1245,665) translate(79.81481481481492 94.54861111111106)"/><use xlink:href="#ag" transform="matrix(1,0,0,1,1245,665) translate(164.9382716049383 94.54861111111106)"/><use xlink:href="#ah" transform="matrix(1,0,0,1,1245,665) translate(188.33333333333334 94.54861111111106)"/><use xlink:href="#ai" transform="matrix(1,0,0,1,1245,665) translate(270.8024691358024 94.54861111111106)"/></g><path d="M931 920h503a6 6 0 0 0 6-6v-89.5" stroke="#3a414a" fill="none"/><path d="M931 920.5h-.5v-1h.5z" stroke="#3a414a" stroke-width=".05" fill="#3a414a"/><path d="M1440 809.73l4.63 14.27h-9.27z" stroke="#3a414a" fill="#3a414a"/><path d="M660 60.33a6 6 0 0 1 6-6h228a6 6 0 0 1 6 6v59.34a6 6 0 0 1-6 6H666a6 6 0 0 1-6-6z" stroke="#000" stroke-opacity="0" fill="#fff" fill-opacity="0"/><g><use xlink:href="#aj" transform="matrix(1,0,0,1,665,59.33333333333333) translate(-59.203703703703525 41.222222222222214)"/></g><defs><path fill="#3a414a" d="M233-177c-1 41-23 64-60 70L243 0h-38l-65-103H63V0H30v-248c88 3 205-21 203 71zM63-129c60-2 137 13 137-47 0-61-80-42-137-45v92" id="ak"/><path fill="#3a414a" d="M141-36C126-15 110 5 73 4 37 3 15-17 15-53c-1-64 63-63 125-63 3-35-9-54-41-54-24 1-41 7-42 31l-33-3c5-37 33-52 76-52 45 0 72 20 72 64v82c-1 20 7 32 28 27v20c-31 9-61-2-59-35zM48-53c0 20 12 33 32 33 41-3 63-29 60-74-43 2-92-5-92 41" id="al"/><path fill="#3a414a" d="M206 0h-36l-40-164L89 0H53L-1-190h32L70-26l43-164h34l41 164 42-164h31" id="am"/><g id="a"><use transform="matrix(0.06172839506172839,0,0,0.06172839506172839,0,0)" xlink:href="#ak"/><use transform="matrix(0.06172839506172839,0,0,0.06172839506172839,15.987654320987653,0)" xlink:href="#al"/><use transform="matrix(0.06172839506172839,0,0,0.06172839506172839,28.333333333333332,0)" xlink:href="#am"/></g><path fill="#3a414a" d="M266 0h-40l-56-210L115 0H75L2-248h35L96-30l15-64 43-154h32l59 218 59-218h35" id="an"/><path fill="#3a414a" d="M205 0l-28-72H64L36 0H1l101-248h38L239 0h-34zm-38-99l-47-123c-12 45-31 82-46 123h93" id="ao"/><path fill="#3a414a" d="M137 0h-34L2-248h35l83 218 83-218h36" id="ap"/><g id="b"><use transform="matrix(0.06172839506172839,0,0,0.06172839506172839,0,0)" xlink:href="#an"/><use transform="matrix(0.06172839506172839,0,0,0.06172839506172839,20.123456790123456,0)" xlink:href="#ao"/><use transform="matrix(0.06172839506172839,0,0,0.06172839506172839,33.2716049382716,0)" xlink:href="#ap"/></g><path fill="#3a414a" d="M101-234c-31-9-42 10-38 44h38v23H63V0H32v-167H5v-23h27c-7-52 17-82 69-68v24" id="aq"/><path fill="#3a414a" d="M24-231v-30h32v30H24zM24 0v-190h32V0H24" id="ar"/><path fill="#3a414a" d="M24 0v-261h32V0H24" id="as"/><path fill="#3a414a" d="M100-194c63 0 86 42 84 106H49c0 40 14 67 53 68 26 1 43-12 49-29l28 8c-11 28-37 45-77 45C44 4 14-33 15-96c1-61 26-98 85-98zm52 81c6-60-76-77-97-28-3 7-6 17-6 28h103" id="at"/><g id="c"><use transform="matrix(0.06172839506172839,0,0,0.06172839506172839,0,0)" xlink:href="#aq"/><use transform="matrix(0.06172839506172839,0,0,0.06172839506172839,6.172839506172839,0)" xlink:href="#ar"/><use transform="matrix(0.06172839506172839,0,0,0.06172839506172839,11.049382716049383,0)" xlink:href="#as"/><use transform="matrix(0.06172839506172839,0,0,0.06172839506172839,15.925925925925926,0)" xlink:href="#at"/></g><path fill="#3a414a" d="M137-103V0h-34v-103L8-248h37l75 118 75-118h37" id="au"/><path fill="#3a414a" d="M100-194c62-1 85 37 85 99 1 63-27 99-86 99S16-35 15-95c0-66 28-99 85-99zM99-20c44 1 53-31 53-75 0-43-8-75-51-75s-53 32-53 75 10 74 51 75" id="av"/><path fill="#3a414a" d="M84 4C-5 8 30-112 23-190h32v120c0 31 7 50 39 49 72-2 45-101 50-169h31l1 190h-30c-1-10 1-25-2-33-11 22-28 36-60 37" id="aw"/><path fill="#3a414a" d="M59-47c-2 24 18 29 38 22v24C64 9 27 4 27-40v-127H5v-23h24l9-43h21v43h35v23H59v120" id="ax"/><path fill="#3a414a" d="M115-194c53 0 69 39 70 98 0 66-23 100-70 100C84 3 66-7 56-30L54 0H23l1-261h32v101c10-23 28-34 59-34zm-8 174c40 0 45-34 45-75 0-40-5-75-45-74-42 0-51 32-51 76 0 43 10 73 51 73" id="ay"/><g id="d"><use transform="matrix(0.06172839506172839,0,0,0.06172839506172839,0,0)" xlink:href="#au"/><use transform="matrix(0.06172839506172839,0,0,0.06172839506172839,12.777777777777777,0)" xlink:href="#av"/><use transform="matrix(0.06172839506172839,0,0,0.06172839506172839,25.123456790123456,0)" xlink:href="#aw"/><use transform="matrix(0.06172839506172839,0,0,0.06172839506172839,37.46913580246913,0)" xlink:href="#ax"/><use transform="matrix(0.06172839506172839,0,0,0.06172839506172839,43.641975308641975,0)" xlink:href="#aw"/><use transform="matrix(0.06172839506172839,0,0,0.06172839506172839,55.98765432098765,0)" xlink:href="#ay"/><use transform="matrix(0.06172839506172839,0,0,0.06172839506172839,68.33333333333333,0)" xlink:href="#at"/></g><path fill="#3a414a" d="M30-248c118-7 216 8 213 122C240-48 200 0 122 0H30v-248zM63-27c89 8 146-16 146-99s-60-101-146-95v194" id="az"/><path fill="#3a414a" d="M117-194c89-4 53 116 60 194h-32v-121c0-31-8-49-39-48C34-167 62-67 57 0H25l-1-190h30c1 10-1 24 2 32 11-22 29-35 61-36" id="aA"/><path fill="#3a414a" d="M85-194c31 0 48 13 60 33l-1-100h32l1 261h-30c-2-10 0-23-3-31C134-8 116 4 85 4 32 4 16-35 15-94c0-66 23-100 70-100zm9 24c-40 0-46 34-46 75 0 40 6 74 45 74 42 0 51-32 51-76 0-42-9-74-50-73" id="aB"/><path fill="#3a414a" d="M114-163C36-179 61-72 57 0H25l-1-190h30c1 12-1 29 2 39 6-27 23-49 58-41v29" id="aC"/><g id="e"><use transform="matrix(0.06172839506172839,0,0,0.06172839506172839,0,0)" xlink:href="#az"/><use transform="matrix(0.06172839506172839,0,0,0.06172839506172839,15.987654320987653,0)" xlink:href="#av"/><use transform="matrix(0.06172839506172839,0,0,0.06172839506172839,28.333333333333332,0)" xlink:href="#am"/><use transform="matrix(0.06172839506172839,0,0,0.06172839506172839,44.32098765432099,0)" xlink:href="#aA"/><use transform="matrix(0.06172839506172839,0,0,0.06172839506172839,56.666666666666664,0)" xlink:href="#as"/><use transform="matrix(0.06172839506172839,0,0,0.06172839506172839,61.54320987654321,0)" xlink:href="#av"/><use transform="matrix(0.06172839506172839,0,0,0.06172839506172839,73.88888888888889,0)" xlink:href="#al"/><use transform="matrix(0.06172839506172839,0,0,0.06172839506172839,86.23456790123457,0)" xlink:href="#aB"/><use transform="matrix(0.06172839506172839,0,0,0.06172839506172839,98.58024691358025,0)" xlink:href="#at"/><use transform="matrix(0.06172839506172839,0,0,0.06172839506172839,110.92592592592594,0)" xlink:href="#aC"/></g><path fill="#3a414a" d="M240 0l2-218c-23 76-54 145-80 218h-23L58-218 59 0H30v-248h44l77 211c21-75 51-140 76-211h43V0h-30" id="aD"/><path fill="#3a414a" d="M179-190L93 31C79 59 56 82 12 73V49c39 6 53-20 64-50L1-190h34L92-34l54-156h33" id="aE"/><g id="f"><use transform="matrix(0.06172839506172839,0,0,0.06172839506172839,0,0)" xlink:href="#aD"/><use transform="matrix(0.06172839506172839,0,0,0.06172839506172839,18.456790123456788,0)" xlink:href="#al"/><use transform="matrix(0.06172839506172839,0,0,0.06172839506172839,30.80246913580247,0)" xlink:href="#aA"/><use transform="matrix(0.06172839506172839,0,0,0.06172839506172839,43.148148148148145,0)" xlink:href="#aA"/><use transform="matrix(0.06172839506172839,0,0,0.06172839506172839,55.49382716049382,0)" xlink:href="#aw"/><use transform="matrix(0.06172839506172839,0,0,0.06172839506172839,67.8395061728395,0)" xlink:href="#al"/><use transform="matrix(0.06172839506172839,0,0,0.06172839506172839,80.18518518518519,0)" xlink:href="#as"/><use transform="matrix(0.06172839506172839,0,0,0.06172839506172839,85.06172839506173,0)" xlink:href="#as"/><use transform="matrix(0.06172839506172839,0,0,0.06172839506172839,89.93827160493828,0)" xlink:href="#aE"/></g><path fill="#3a414a" d="M185-189c-5-48-123-54-124 2 14 75 158 14 163 119 3 78-121 87-175 55-17-10-28-26-33-46l33-7c5 56 141 63 141-1 0-78-155-14-162-118-5-82 145-84 179-34 5 7 8 16 11 25" id="aF"/><path fill="#3a414a" d="M96-169c-40 0-48 33-48 73s9 75 48 75c24 0 41-14 43-38l32 2c-6 37-31 61-74 61-59 0-76-41-82-99-10-93 101-131 147-64 4 7 5 14 7 22l-32 3c-4-21-16-35-41-35" id="aG"/><g id="g"><use transform="matrix(0.06172839506172839,0,0,0.06172839506172839,0,0)" xlink:href="#aF"/><use transform="matrix(0.06172839506172839,0,0,0.06172839506172839,14.814814814814813,0)" xlink:href="#av"/><use transform="matrix(0.06172839506172839,0,0,0.06172839506172839,27.160493827160494,0)" xlink:href="#aw"/><use transform="matrix(0.06172839506172839,0,0,0.06172839506172839,39.50617283950617,0)" xlink:href="#aC"/><use transform="matrix(0.06172839506172839,0,0,0.06172839506172839,46.85185185185185,0)" xlink:href="#aG"/><use transform="matrix(0.06172839506172839,0,0,0.06172839506172839,57.96296296296296,0)" xlink:href="#at"/><use transform="matrix(0.06172839506172839,0,0,0.06172839506172839,70.30864197530865,0)" xlink:href="#aB"/></g><g id="h"><use transform="matrix(0.07407407407407407,0,0,0.07407407407407407,0,0)" xlink:href="#ap"/><use transform="matrix(0.07407407407407407,0,0,0.07407407407407407,16.296296296296298,0)" xlink:href="#av"/><use transform="matrix(0.07407407407407407,0,0,0.07407407407407407,31.11111111111111,0)" xlink:href="#ar"/><use transform="matrix(0.07407407407407407,0,0,0.07407407407407407,36.96296296296296,0)" xlink:href="#aG"/><use transform="matrix(0.07407407407407407,0,0,0.07407407407407407,50.29629629629629,0)" xlink:href="#at"/></g><g id="i"><use transform="matrix(0.07407407407407407,0,0,0.07407407407407407,0,0)" xlink:href="#az"/><use transform="matrix(0.07407407407407407,0,0,0.07407407407407407,19.185185185185183,0)" xlink:href="#at"/><use transform="matrix(0.07407407407407407,0,0,0.07407407407407407,34,0)" xlink:href="#ax"/><use transform="matrix(0.07407407407407407,0,0,0.07407407407407407,41.407407407407405,0)" xlink:href="#at"/><use transform="matrix(0.07407407407407407,0,0,0.07407407407407407,56.22222222222221,0)" xlink:href="#aG"/><use transform="matrix(0.07407407407407407,0,0,0.07407407407407407,69.55555555555554,0)" xlink:href="#ax"/><use transform="matrix(0.07407407407407407,0,0,0.07407407407407407,76.96296296296295,0)" xlink:href="#ar"/><use transform="matrix(0.07407407407407407,0,0,0.07407407407407407,82.8148148148148,0)" xlink:href="#av"/><use transform="matrix(0.07407407407407407,0,0,0.07407407407407407,97.6296296296296,0)" xlink:href="#aA"/></g><path fill="#3a414a" d="M87 75C49 33 22-17 22-94c0-76 28-126 65-167h31c-38 41-64 92-64 168S80 34 118 75H87" id="aH"/><path fill="#3a414a" d="M33-261c38 41 65 92 65 168S71 34 33 75H2C39 34 66-17 66-93S39-220 2-261h31" id="aI"/><g id="j"><use transform="matrix(0.07407407407407407,0,0,0.07407407407407407,0,0)" xlink:href="#aH"/><use transform="matrix(0.07407407407407407,0,0,0.07407407407407407,8.814814814814815,0)" xlink:href="#ap"/><use transform="matrix(0.07407407407407407,0,0,0.07407407407407407,24.592592592592595,0)" xlink:href="#ao"/><use transform="matrix(0.07407407407407407,0,0,0.07407407407407407,42.370370370370374,0)" xlink:href="#az"/><use transform="matrix(0.07407407407407407,0,0,0.07407407407407407,61.55555555555556,0)" xlink:href="#aI"/></g><path fill="#3a414a" d="M210-169c-67 3-38 105-44 169h-31v-121c0-29-5-50-35-48C34-165 62-65 56 0H25l-1-190h30c1 10-1 24 2 32 10-44 99-50 107 0 11-21 27-35 58-36 85-2 47 119 55 194h-31v-121c0-29-5-49-35-48" id="aJ"/><path fill="#3a414a" d="M108 0H70L1-190h34L89-25l56-165h34" id="aK"/><g id="k"><use transform="matrix(0.07407407407407407,0,0,0.07407407407407407,0,0)" xlink:href="#ak"/><use transform="matrix(0.07407407407407407,0,0,0.07407407407407407,19.185185185185183,0)" xlink:href="#at"/><use transform="matrix(0.07407407407407407,0,0,0.07407407407407407,34,0)" xlink:href="#aJ"/><use transform="matrix(0.07407407407407407,0,0,0.07407407407407407,56.148148148148145,0)" xlink:href="#av"/><use transform="matrix(0.07407407407407407,0,0,0.07407407407407407,70.96296296296296,0)" xlink:href="#aK"/><use transform="matrix(0.07407407407407407,0,0,0.07407407407407407,84.29629629629629,0)" xlink:href="#at"/></g><path fill="#3a414a" d="M140-251c81 0 123 46 123 126C263-46 219 4 140 4 59 4 17-45 17-125s42-126 123-126zm0 227c63 0 89-41 89-101s-29-99-89-99c-61 0-89 39-89 99S79-25 140-24" id="aL"/><path fill="#3a414a" d="M115-194c55 1 70 41 70 98S169 2 115 4C84 4 66-9 55-30l1 105H24l-1-265h31l2 30c10-21 28-34 59-34zm-8 174c40 0 45-34 45-75s-6-73-45-74c-42 0-51 32-51 76 0 43 10 73 51 73" id="aM"/><g id="l"><use transform="matrix(0.07407407407407407,0,0,0.07407407407407407,0,0)" xlink:href="#aL"/><use transform="matrix(0.07407407407407407,0,0,0.07407407407407407,20.74074074074074,0)" xlink:href="#aK"/><use transform="matrix(0.07407407407407407,0,0,0.07407407407407407,34.074074074074076,0)" xlink:href="#at"/><use transform="matrix(0.07407407407407407,0,0,0.07407407407407407,48.888888888888886,0)" xlink:href="#aC"/><use transform="matrix(0.07407407407407407,0,0,0.07407407407407407,57.7037037037037,0)" xlink:href="#as"/><use transform="matrix(0.07407407407407407,0,0,0.07407407407407407,63.55555555555556,0)" xlink:href="#al"/><use transform="matrix(0.07407407407407407,0,0,0.07407407407407407,78.37037037037037,0)" xlink:href="#aM"/></g><g id="m"><use transform="matrix(0.07407407407407407,0,0,0.07407407407407407,0,0)" xlink:href="#ap"/><use transform="matrix(0.07407407407407407,0,0,0.07407407407407407,16.296296296296298,0)" xlink:href="#at"/><use transform="matrix(0.07407407407407407,0,0,0.07407407407407407,31.11111111111111,0)" xlink:href="#aC"/><use transform="matrix(0.07407407407407407,0,0,0.07407407407407407,39.925925925925924,0)" xlink:href="#ar"/><use transform="matrix(0.07407407407407407,0,0,0.07407407407407407,45.77777777777778,0)" xlink:href="#aq"/><use transform="matrix(0.07407407407407407,0,0,0.07407407407407407,53.185185185185176,0)" xlink:href="#aE"/></g><path fill="#3a414a" d="M143 0L79-87 56-68V0H24v-261h32v163l83-92h37l-77 82L181 0h-38" id="aN"/><path fill="#3a414a" d="M135-143c-3-34-86-38-87 0 15 53 115 12 119 90S17 21 10-45l28-5c4 36 97 45 98 0-10-56-113-15-118-90-4-57 82-63 122-42 12 7 21 19 24 35" id="aO"/><g id="n"><use transform="matrix(0.07407407407407407,0,0,0.07407407407407407,0,0)" xlink:href="#aF"/><use transform="matrix(0.07407407407407407,0,0,0.07407407407407407,17.77777777777778,0)" xlink:href="#aM"/><use transform="matrix(0.07407407407407407,0,0,0.07407407407407407,32.592592592592595,0)" xlink:href="#at"/><use transform="matrix(0.07407407407407407,0,0,0.07407407407407407,47.407407407407405,0)" xlink:href="#al"/><use transform="matrix(0.07407407407407407,0,0,0.07407407407407407,62.22222222222221,0)" xlink:href="#aN"/><use transform="matrix(0.07407407407407407,0,0,0.07407407407407407,75.55555555555554,0)" xlink:href="#at"/><use transform="matrix(0.07407407407407407,0,0,0.07407407407407407,90.37037037037035,0)" xlink:href="#aC"/><use transform="matrix(0.07407407407407407,0,0,0.07407407407407407,99.18518518518516,0)" xlink:href="#aO"/></g><path fill="#3a414a" d="M190 0L58-211 59 0H30v-248h39L202-35l-2-213h31V0h-41" id="aP"/><path fill="#3a414a" d="M9 0v-24l116-142H16v-24h144v24L44-24h123V0H9" id="aQ"/><g id="o"><use transform="matrix(0.07407407407407407,0,0,0.07407407407407407,0,0)" xlink:href="#aP"/><use transform="matrix(0.07407407407407407,0,0,0.07407407407407407,19.185185185185183,0)" xlink:href="#av"/><use transform="matrix(0.07407407407407407,0,0,0.07407407407407407,34,0)" xlink:href="#aC"/><use transform="matrix(0.07407407407407407,0,0,0.07407407407407407,42.814814814814824,0)" xlink:href="#aJ"/><use transform="matrix(0.07407407407407407,0,0,0.07407407407407407,64.96296296296296,0)" xlink:href="#al"/><use transform="matrix(0.07407407407407407,0,0,0.07407407407407407,79.77777777777777,0)" xlink:href="#as"/><use transform="matrix(0.07407407407407407,0,0,0.07407407407407407,85.62962962962962,0)" xlink:href="#ar"/><use transform="matrix(0.07407407407407407,0,0,0.07407407407407407,91.48148148148145,0)" xlink:href="#aQ"/><use transform="matrix(0.07407407407407407,0,0,0.07407407407407407,104.8148148148148,0)" xlink:href="#al"/><use transform="matrix(0.07407407407407407,0,0,0.07407407407407407,119.6296296296296,0)" xlink:href="#ax"/><use transform="matrix(0.07407407407407407,0,0,0.07407407407407407,127.03703703703701,0)" xlink:href="#ar"/><use transform="matrix(0.07407407407407407,0,0,0.07407407407407407,132.88888888888886,0)" xlink:href="#av"/><use transform="matrix(0.07407407407407407,0,0,0.07407407407407407,147.70370370370367,0)" xlink:href="#aA"/></g><g id="p"><use transform="matrix(0.07407407407407407,0,0,0.07407407407407407,0,0)" xlink:href="#aF"/><use transform="matrix(0.07407407407407407,0,0,0.07407407407407407,17.77777777777778,0)" xlink:href="#at"/><use transform="matrix(0.07407407407407407,0,0,0.07407407407407407,32.592592592592595,0)" xlink:href="#ax"/></g><g id="q"><use transform="matrix(0.07407407407407407,0,0,0.07407407407407407,0,0)" xlink:href="#ao"/><use transform="matrix(0.07407407407407407,0,0,0.07407407407407407,17.77777777777778,0)" xlink:href="#aw"/><use transform="matrix(0.07407407407407407,0,0,0.07407407407407407,32.592592592592595,0)" xlink:href="#aB"/><use transform="matrix(0.07407407407407407,0,0,0.07407407407407407,47.407407407407405,0)" xlink:href="#ar"/><use transform="matrix(0.07407407407407407,0,0,0.07407407407407407,53.25925925925926,0)" xlink:href="#av"/></g><g id="r"><use transform="matrix(0.07407407407407407,0,0,0.07407407407407407,0,0)" xlink:href="#aL"/><use transform="matrix(0.07407407407407407,0,0,0.07407407407407407,20.74074074074074,0)" xlink:href="#aw"/><use transform="matrix(0.07407407407407407,0,0,0.07407407407407407,35.55555555555556,0)" xlink:href="#ax"/><use transform="matrix(0.07407407407407407,0,0,0.07407407407407407,42.96296296296296,0)" xlink:href="#aM"/><use transform="matrix(0.07407407407407407,0,0,0.07407407407407407,57.77777777777777,0)" xlink:href="#aw"/><use transform="matrix(0.07407407407407407,0,0,0.07407407407407407,72.59259259259258,0)" xlink:href="#ax"/></g><path fill="#3a414a" d="M30-248c87 1 191-15 191 75 0 78-77 80-158 76V0H30v-248zm33 125c57 0 124 11 124-50 0-59-68-47-124-48v98" id="aR"/><g id="s"><use transform="matrix(0.07407407407407407,0,0,0.07407407407407407,0,0)" xlink:href="#aR"/><use transform="matrix(0.07407407407407407,0,0,0.07407407407407407,17.77777777777778,0)" xlink:href="#al"/><use transform="matrix(0.07407407407407407,0,0,0.07407407407407407,32.592592592592595,0)" xlink:href="#aC"/><use transform="matrix(0.07407407407407407,0,0,0.07407407407407407,41.40740740740741,0)" xlink:href="#al"/><use transform="matrix(0.07407407407407407,0,0,0.07407407407407407,56.22222222222223,0)" xlink:href="#aJ"/><use transform="matrix(0.07407407407407407,0,0,0.07407407407407407,78.37037037037038,0)" xlink:href="#at"/><use transform="matrix(0.07407407407407407,0,0,0.07407407407407407,93.18518518518519,0)" xlink:href="#ax"/><use transform="matrix(0.07407407407407407,0,0,0.07407407407407407,100.59259259259258,0)" xlink:href="#at"/><use transform="matrix(0.07407407407407407,0,0,0.07407407407407407,115.4074074074074,0)" xlink:href="#aC"/><use transform="matrix(0.07407407407407407,0,0,0.07407407407407407,124.22222222222221,0)" xlink:href="#aO"/></g><g id="t"><use transform="matrix(0.07407407407407407,0,0,0.07407407407407407,0,0)" xlink:href="#aP"/><use transform="matrix(0.07407407407407407,0,0,0.07407407407407407,19.185185185185183,0)" xlink:href="#av"/><use transform="matrix(0.07407407407407407,0,0,0.07407407407407407,34,0)" xlink:href="#ar"/><use transform="matrix(0.07407407407407407,0,0,0.07407407407407407,39.85185185185185,0)" xlink:href="#aO"/><use transform="matrix(0.07407407407407407,0,0,0.07407407407407407,53.185185185185176,0)" xlink:href="#at"/></g><g id="u"><use transform="matrix(0.07407407407407407,0,0,0.07407407407407407,0,0)" xlink:href="#ak"/><use transform="matrix(0.07407407407407407,0,0,0.07407407407407407,19.185185185185183,0)" xlink:href="#at"/><use transform="matrix(0.07407407407407407,0,0,0.07407407407407407,34,0)" xlink:href="#aB"/><use transform="matrix(0.07407407407407407,0,0,0.07407407407407407,48.81481481481481,0)" xlink:href="#aw"/><use transform="matrix(0.07407407407407407,0,0,0.07407407407407407,63.62962962962962,0)" xlink:href="#aG"/><use transform="matrix(0.07407407407407407,0,0,0.07407407407407407,76.96296296296295,0)" xlink:href="#ax"/><use transform="matrix(0.07407407407407407,0,0,0.07407407407407407,84.37037037037035,0)" xlink:href="#ar"/><use transform="matrix(0.07407407407407407,0,0,0.07407407407407407,90.2222222222222,0)" xlink:href="#av"/><use transform="matrix(0.07407407407407407,0,0,0.07407407407407407,105.03703703703701,0)" xlink:href="#aA"/></g><g id="v"><use transform="matrix(0.06172839506172834,0,0,0.06172839506172834,0,0)" xlink:href="#ak"/><use transform="matrix(0.06172839506172834,0,0,0.06172839506172834,15.987654320987641,0)" xlink:href="#at"/><use transform="matrix(0.06172839506172834,0,0,0.06172839506172834,28.333333333333307,0)" xlink:href="#aJ"/><use transform="matrix(0.06172839506172834,0,0,0.06172839506172834,46.790123456790084,0)" xlink:href="#av"/><use transform="matrix(0.06172839506172834,0,0,0.06172839506172834,59.135802469135754,0)" xlink:href="#aK"/><use transform="matrix(0.06172839506172834,0,0,0.06172839506172834,70.24691358024685,0)" xlink:href="#at"/></g><path fill="#3a414a" d="M68-38c1 34 0 65-14 84H32c9-13 17-26 17-46H33v-38h35" id="aS"/><g id="w"><use transform="matrix(0.06172839506172834,0,0,0.06172839506172834,0,0)" xlink:href="#aJ"/><use transform="matrix(0.06172839506172834,0,0,0.06172839506172834,18.456790123456774,0)" xlink:href="#aw"/><use transform="matrix(0.06172839506172834,0,0,0.06172839506172834,30.80246913580244,0)" xlink:href="#aO"/><use transform="matrix(0.06172839506172834,0,0,0.06172839506172834,41.91358024691354,0)" xlink:href="#ar"/><use transform="matrix(0.06172839506172834,0,0,0.06172839506172834,46.79012345679008,0)" xlink:href="#aG"/><use transform="matrix(0.06172839506172834,0,0,0.06172839506172834,57.90123456790118,0)" xlink:href="#aS"/></g><g id="x"><use transform="matrix(0.06172839506172834,0,0,0.06172839506172834,0,0)" xlink:href="#at"/><use transform="matrix(0.06172839506172834,0,0,0.06172839506172834,12.345679012345668,0)" xlink:href="#ax"/><use transform="matrix(0.06172839506172834,0,0,0.06172839506172834,18.5185185185185,0)" xlink:href="#aG"/></g><g id="y"><use transform="matrix(0.06172839506172834,0,0,0.06172839506172834,0,0)" xlink:href="#ak"/><use transform="matrix(0.06172839506172834,0,0,0.06172839506172834,15.987654320987641,0)" xlink:href="#at"/><use transform="matrix(0.06172839506172834,0,0,0.06172839506172834,28.333333333333307,0)" xlink:href="#aJ"/><use transform="matrix(0.06172839506172834,0,0,0.06172839506172834,46.790123456790084,0)" xlink:href="#av"/><use transform="matrix(0.06172839506172834,0,0,0.06172839506172834,59.135802469135754,0)" xlink:href="#aK"/><use transform="matrix(0.06172839506172834,0,0,0.06172839506172834,70.24691358024685,0)" xlink:href="#at"/></g><g id="z"><use transform="matrix(0.06172839506172834,0,0,0.06172839506172834,0,0)" xlink:href="#aM"/><use transform="matrix(0.06172839506172834,0,0,0.06172839506172834,12.345679012345668,0)" xlink:href="#at"/><use transform="matrix(0.06172839506172834,0,0,0.06172839506172834,24.691358024691336,0)" xlink:href="#av"/><use transform="matrix(0.06172839506172834,0,0,0.06172839506172834,37.037037037037,0)" xlink:href="#aM"/><use transform="matrix(0.06172839506172834,0,0,0.06172839506172834,49.38271604938267,0)" xlink:href="#as"/><use transform="matrix(0.06172839506172834,0,0,0.06172839506172834,54.25925925925921,0)" xlink:href="#at"/></g><path fill="#3a414a" d="M177-190C167-65 218 103 67 71c-23-6-38-20-44-43l32-5c15 47 100 32 89-28v-30C133-14 115 1 83 1 29 1 15-40 15-95c0-56 16-97 71-98 29-1 48 16 59 35 1-10 0-23 2-32h30zM94-22c36 0 50-32 50-73 0-42-14-75-50-75-39 0-46 34-46 75s6 73 46 73" id="aT"/><g id="A"><use transform="matrix(0.06172839506172834,0,0,0.06172839506172834,0,0)" xlink:href="#ax"/><use transform="matrix(0.06172839506172834,0,0,0.06172839506172834,6.172839506172834,0)" xlink:href="#al"/><use transform="matrix(0.06172839506172834,0,0,0.06172839506172834,18.5185185185185,0)" xlink:href="#as"/><use transform="matrix(0.06172839506172834,0,0,0.06172839506172834,23.395061728395042,0)" xlink:href="#aN"/><use transform="matrix(0.06172839506172834,0,0,0.06172839506172834,34.50617283950614,0)" xlink:href="#ar"/><use transform="matrix(0.06172839506172834,0,0,0.06172839506172834,39.38271604938268,0)" xlink:href="#aA"/><use transform="matrix(0.06172839506172834,0,0,0.06172839506172834,51.72839506172835,0)" xlink:href="#aT"/></g><g id="B"><use transform="matrix(0.06172839506172834,0,0,0.06172839506172834,0,0)" xlink:href="#av"/><use transform="matrix(0.06172839506172834,0,0,0.06172839506172834,12.345679012345668,0)" xlink:href="#aK"/><use transform="matrix(0.06172839506172834,0,0,0.06172839506172834,23.45679012345677,0)" xlink:href="#at"/><use transform="matrix(0.06172839506172834,0,0,0.06172839506172834,35.80246913580244,0)" xlink:href="#aC"/></g><path fill="#3a414a" d="M106-169C34-169 62-67 57 0H25v-261h32l-1 103c12-21 28-36 61-36 89 0 53 116 60 194h-32v-121c2-32-8-49-39-48" id="aU"/><g id="C"><use transform="matrix(0.06172839506172834,0,0,0.06172839506172834,0,0)" xlink:href="#at"/><use transform="matrix(0.06172839506172834,0,0,0.06172839506172834,12.345679012345668,0)" xlink:href="#al"/><use transform="matrix(0.06172839506172834,0,0,0.06172839506172834,24.691358024691336,0)" xlink:href="#aG"/><use transform="matrix(0.06172839506172834,0,0,0.06172839506172834,35.80246913580244,0)" xlink:href="#aU"/><use transform="matrix(0.06172839506172834,0,0,0.06172839506172834,48.14814814814811,0)" xlink:href="#av"/><use transform="matrix(0.06172839506172834,0,0,0.06172839506172834,60.49382716049378,0)" xlink:href="#ax"/><use transform="matrix(0.06172839506172834,0,0,0.06172839506172834,66.66666666666661,0)" xlink:href="#aU"/><use transform="matrix(0.06172839506172834,0,0,0.06172839506172834,79.01234567901228,0)" xlink:href="#at"/><use transform="matrix(0.06172839506172834,0,0,0.06172839506172834,91.35802469135795,0)" xlink:href="#aC"/><use transform="matrix(0.06172839506172834,0,0,0.06172839506172834,97.46913580246905,0)" xlink:href="#aS"/></g><g id="D"><use transform="matrix(0.06172839506172834,0,0,0.06172839506172834,0,0)" xlink:href="#aw"/><use transform="matrix(0.06172839506172834,0,0,0.06172839506172834,12.345679012345668,0)" xlink:href="#aO"/><use transform="matrix(0.06172839506172834,0,0,0.06172839506172834,23.45679012345677,0)" xlink:href="#at"/><use transform="matrix(0.06172839506172834,0,0,0.06172839506172834,35.80246913580244,0)" xlink:href="#aq"/><use transform="matrix(0.06172839506172834,0,0,0.06172839506172834,41.975308641975275,0)" xlink:href="#aw"/><use transform="matrix(0.06172839506172834,0,0,0.06172839506172834,54.320987654320945,0)" xlink:href="#as"/></g><g id="E"><use transform="matrix(0.06172839506172834,0,0,0.06172839506172834,0,0)" xlink:href="#aq"/><use transform="matrix(0.06172839506172834,0,0,0.06172839506172834,6.172839506172834,0)" xlink:href="#av"/><use transform="matrix(0.06172839506172834,0,0,0.06172839506172834,18.5185185185185,0)" xlink:href="#aC"/></g><g id="F"><use transform="matrix(0.06172839506172834,0,0,0.06172839506172834,0,0)" xlink:href="#aM"/><use transform="matrix(0.06172839506172834,0,0,0.06172839506172834,12.345679012345668,0)" xlink:href="#av"/><use transform="matrix(0.06172839506172834,0,0,0.06172839506172834,24.691358024691336,0)" xlink:href="#aB"/><use transform="matrix(0.06172839506172834,0,0,0.06172839506172834,37.037037037037,0)" xlink:href="#aG"/><use transform="matrix(0.06172839506172834,0,0,0.06172839506172834,48.1481481481481,0)" xlink:href="#al"/><use transform="matrix(0.06172839506172834,0,0,0.06172839506172834,60.49382716049377,0)" xlink:href="#aO"/><use transform="matrix(0.06172839506172834,0,0,0.06172839506172834,71.60493827160488,0)" xlink:href="#ax"/><use transform="matrix(0.06172839506172834,0,0,0.06172839506172834,77.77777777777771,0)" xlink:href="#aO"/></g><g id="G"><use transform="matrix(0.06172839506172834,0,0,0.06172839506172834,0,0)" xlink:href="#ak"/><use transform="matrix(0.06172839506172834,0,0,0.06172839506172834,15.987654320987641,0)" xlink:href="#at"/><use transform="matrix(0.06172839506172834,0,0,0.06172839506172834,28.333333333333307,0)" xlink:href="#aB"/><use transform="matrix(0.06172839506172834,0,0,0.06172839506172834,40.67901234567898,0)" xlink:href="#aw"/><use transform="matrix(0.06172839506172834,0,0,0.06172839506172834,53.02469135802465,0)" xlink:href="#aG"/><use transform="matrix(0.06172839506172834,0,0,0.06172839506172834,64.13580246913575,0)" xlink:href="#at"/></g><g id="H"><use transform="matrix(0.06172839506172834,0,0,0.06172839506172834,0,0)" xlink:href="#ay"/><use transform="matrix(0.06172839506172834,0,0,0.06172839506172834,12.345679012345668,0)" xlink:href="#al"/><use transform="matrix(0.06172839506172834,0,0,0.06172839506172834,24.691358024691336,0)" xlink:href="#aG"/><use transform="matrix(0.06172839506172834,0,0,0.06172839506172834,35.80246913580244,0)" xlink:href="#aN"/><use transform="matrix(0.06172839506172834,0,0,0.06172839506172834,46.91358024691354,0)" xlink:href="#aT"/><use transform="matrix(0.06172839506172834,0,0,0.06172839506172834,59.25925925925921,0)" xlink:href="#aC"/><use transform="matrix(0.06172839506172834,0,0,0.06172839506172834,66.60493827160488,0)" xlink:href="#av"/><use transform="matrix(0.06172839506172834,0,0,0.06172839506172834,78.95061728395055,0)" xlink:href="#aw"/><use transform="matrix(0.06172839506172834,0,0,0.06172839506172834,91.29629629629622,0)" xlink:href="#aA"/><use transform="matrix(0.06172839506172834,0,0,0.06172839506172834,103.64197530864189,0)" xlink:href="#aB"/></g><g id="I"><use transform="matrix(0.06172839506172834,0,0,0.06172839506172834,0,0)" xlink:href="#aA"/><use transform="matrix(0.06172839506172834,0,0,0.06172839506172834,12.345679012345668,0)" xlink:href="#av"/><use transform="matrix(0.06172839506172834,0,0,0.06172839506172834,24.691358024691336,0)" xlink:href="#ar"/><use transform="matrix(0.06172839506172834,0,0,0.06172839506172834,29.567901234567877,0)" xlink:href="#aO"/><use transform="matrix(0.06172839506172834,0,0,0.06172839506172834,40.67901234567898,0)" xlink:href="#at"/><use transform="matrix(0.06172839506172834,0,0,0.06172839506172834,53.02469135802465,0)" xlink:href="#aS"/></g><g id="J"><use transform="matrix(0.06172839506172834,0,0,0.06172839506172834,0,0)" xlink:href="#as"/><use transform="matrix(0.06172839506172834,0,0,0.06172839506172834,4.876543209876539,0)" xlink:href="#ar"/><use transform="matrix(0.06172839506172834,0,0,0.06172839506172834,9.753086419753078,0)" xlink:href="#aN"/><use transform="matrix(0.06172839506172834,0,0,0.06172839506172834,20.864197530864182,0)" xlink:href="#at"/></g><g id="K"><use transform="matrix(0.06172839506172834,0,0,0.06172839506172834,0,0)" xlink:href="#aJ"/><use transform="matrix(0.06172839506172834,0,0,0.06172839506172834,18.456790123456774,0)" xlink:href="#aw"/><use transform="matrix(0.06172839506172834,0,0,0.06172839506172834,30.80246913580244,0)" xlink:href="#aO"/><use transform="matrix(0.06172839506172834,0,0,0.06172839506172834,41.91358024691354,0)" xlink:href="#ar"/><use transform="matrix(0.06172839506172834,0,0,0.06172839506172834,46.79012345679008,0)" xlink:href="#aG"/></g><g id="L"><use transform="matrix(0.06172839506172834,0,0,0.06172839506172834,0,0)" xlink:href="#av"/><use transform="matrix(0.06172839506172834,0,0,0.06172839506172834,12.345679012345668,0)" xlink:href="#aC"/></g><g id="M"><use transform="matrix(0.06172839506172834,0,0,0.06172839506172834,0,0)" xlink:href="#aO"/><use transform="matrix(0.06172839506172834,0,0,0.06172839506172834,11.111111111111102,0)" xlink:href="#ax"/><use transform="matrix(0.06172839506172834,0,0,0.06172839506172834,17.283950617283935,0)" xlink:href="#aC"/><use transform="matrix(0.06172839506172834,0,0,0.06172839506172834,24.62962962962961,0)" xlink:href="#at"/><use transform="matrix(0.06172839506172834,0,0,0.06172839506172834,36.975308641975275,0)" xlink:href="#at"/><use transform="matrix(0.06172839506172834,0,0,0.06172839506172834,49.320987654320945,0)" xlink:href="#ax"/></g><g id="N"><use transform="matrix(0.06172839506172834,0,0,0.06172839506172834,0,0)" xlink:href="#aA"/><use transform="matrix(0.06172839506172834,0,0,0.06172839506172834,12.345679012345668,0)" xlink:href="#av"/><use transform="matrix(0.06172839506172834,0,0,0.06172839506172834,24.691358024691336,0)" xlink:href="#ar"/><use transform="matrix(0.06172839506172834,0,0,0.06172839506172834,29.567901234567877,0)" xlink:href="#aO"/><use transform="matrix(0.06172839506172834,0,0,0.06172839506172834,40.67901234567898,0)" xlink:href="#at"/></g><g id="O"><use transform="matrix(0.06172839506172834,0,0,0.06172839506172834,0,0)" xlink:href="#aF"/><use transform="matrix(0.06172839506172834,0,0,0.06172839506172834,14.814814814814802,0)" xlink:href="#at"/><use transform="matrix(0.06172839506172834,0,0,0.06172839506172834,27.160493827160472,0)" xlink:href="#ax"/></g><g id="P"><use transform="matrix(0.06172839506172834,0,0,0.06172839506172834,0,0)" xlink:href="#al"/><use transform="matrix(0.06172839506172834,0,0,0.06172839506172834,12.345679012345668,0)" xlink:href="#aw"/><use transform="matrix(0.06172839506172834,0,0,0.06172839506172834,24.691358024691336,0)" xlink:href="#aB"/><use transform="matrix(0.06172839506172834,0,0,0.06172839506172834,37.037037037037,0)" xlink:href="#ar"/><use transform="matrix(0.06172839506172834,0,0,0.06172839506172834,41.91358024691354,0)" xlink:href="#av"/></g><path fill="#3a414a" d="M145-31C134-9 116 4 85 4 32 4 16-35 15-94c0-59 17-99 70-100 32-1 48 14 60 33 0-11-1-24 2-32h30l-1 268h-32zM93-21c41 0 51-33 51-76s-8-73-50-73c-40 0-46 35-46 75s5 74 45 74" id="aV"/><g id="Q"><use transform="matrix(0.06172839506172834,0,0,0.06172839506172834,0,0)" xlink:href="#aq"/><use transform="matrix(0.06172839506172834,0,0,0.06172839506172834,6.172839506172834,0)" xlink:href="#aC"/><use transform="matrix(0.06172839506172834,0,0,0.06172839506172834,13.518518518518507,0)" xlink:href="#at"/><use transform="matrix(0.06172839506172834,0,0,0.06172839506172834,25.864197530864175,0)" xlink:href="#aV"/><use transform="matrix(0.06172839506172834,0,0,0.06172839506172834,38.209876543209845,0)" xlink:href="#aw"/><use transform="matrix(0.06172839506172834,0,0,0.06172839506172834,50.555555555555515,0)" xlink:href="#at"/><use transform="matrix(0.06172839506172834,0,0,0.06172839506172834,62.901234567901184,0)" xlink:href="#aA"/><use transform="matrix(0.06172839506172834,0,0,0.06172839506172834,75.24691358024685,0)" xlink:href="#aG"/><use transform="matrix(0.06172839506172834,0,0,0.06172839506172834,86.35802469135795,0)" xlink:href="#ar"/><use transform="matrix(0.06172839506172834,0,0,0.06172839506172834,91.2345679012345,0)" xlink:href="#at"/><use transform="matrix(0.06172839506172834,0,0,0.06172839506172834,103.58024691358017,0)" xlink:href="#aO"/><use transform="matrix(0.06172839506172834,0,0,0.06172839506172834,114.69135802469127,0)" xlink:href="#aS"/></g><g id="R"><use transform="matrix(0.06172839506172834,0,0,0.06172839506172834,0,0)" xlink:href="#aG"/><use transform="matrix(0.06172839506172834,0,0,0.06172839506172834,11.111111111111102,0)" xlink:href="#aU"/><use transform="matrix(0.06172839506172834,0,0,0.06172839506172834,23.45679012345677,0)" xlink:href="#al"/><use transform="matrix(0.06172839506172834,0,0,0.06172839506172834,35.80246913580244,0)" xlink:href="#aA"/><use transform="matrix(0.06172839506172834,0,0,0.06172839506172834,48.14814814814811,0)" xlink:href="#aA"/><use transform="matrix(0.06172839506172834,0,0,0.06172839506172834,60.49382716049378,0)" xlink:href="#at"/><use transform="matrix(0.06172839506172834,0,0,0.06172839506172834,72.83950617283945,0)" xlink:href="#as"/><use transform="matrix(0.06172839506172834,0,0,0.06172839506172834,77.716049382716,0)" xlink:href="#aO"/></g><g id="S"><use transform="matrix(0.06172839506172834,0,0,0.06172839506172834,0,0)" xlink:href="#aF"/><use transform="matrix(0.06172839506172834,0,0,0.06172839506172834,14.814814814814802,0)" xlink:href="#aM"/><use transform="matrix(0.06172839506172834,0,0,0.06172839506172834,27.160493827160472,0)" xlink:href="#as"/><use transform="matrix(0.06172839506172834,0,0,0.06172839506172834,32.03703703703701,0)" xlink:href="#ar"/><use transform="matrix(0.06172839506172834,0,0,0.06172839506172834,36.91358024691355,0)" xlink:href="#ax"/><use transform="matrix(0.06172839506172834,0,0,0.06172839506172834,43.08641975308638,0)" xlink:href="#aO"/></g><g id="T"><use transform="matrix(0.06172839506172834,0,0,0.06172839506172834,0,0)" xlink:href="#al"/><use transform="matrix(0.06172839506172834,0,0,0.06172839506172834,12.345679012345668,0)" xlink:href="#aw"/><use transform="matrix(0.06172839506172834,0,0,0.06172839506172834,24.691358024691336,0)" xlink:href="#aB"/><use transform="matrix(0.06172839506172834,0,0,0.06172839506172834,37.037037037037,0)" xlink:href="#ar"/><use transform="matrix(0.06172839506172834,0,0,0.06172839506172834,41.91358024691354,0)" xlink:href="#av"/></g><g id="U"><use transform="matrix(0.06172839506172834,0,0,0.06172839506172834,0,0)" xlink:href="#ay"/><use transform="matrix(0.06172839506172834,0,0,0.06172839506172834,12.345679012345668,0)" xlink:href="#al"/><use transform="matrix(0.06172839506172834,0,0,0.06172839506172834,24.691358024691336,0)" xlink:href="#aO"/><use transform="matrix(0.06172839506172834,0,0,0.06172839506172834,35.80246913580244,0)" xlink:href="#at"/><use transform="matrix(0.06172839506172834,0,0,0.06172839506172834,48.14814814814811,0)" xlink:href="#aB"/></g><g id="V"><use transform="matrix(0.06172839506172834,0,0,0.06172839506172834,0,0)" xlink:href="#av"/><use transform="matrix(0.06172839506172834,0,0,0.06172839506172834,12.345679012345668,0)" xlink:href="#aA"/></g><g id="W"><use transform="matrix(0.06172839506172834,0,0,0.06172839506172834,0,0)" xlink:href="#aO"/><use transform="matrix(0.06172839506172834,0,0,0.06172839506172834,11.111111111111102,0)" xlink:href="#aM"/><use transform="matrix(0.06172839506172834,0,0,0.06172839506172834,23.45679012345677,0)" xlink:href="#at"/><use transform="matrix(0.06172839506172834,0,0,0.06172839506172834,35.80246913580244,0)" xlink:href="#al"/><use transform="matrix(0.06172839506172834,0,0,0.06172839506172834,48.14814814814811,0)" xlink:href="#aN"/><use transform="matrix(0.06172839506172834,0,0,0.06172839506172834,59.25925925925921,0)" xlink:href="#at"/><use transform="matrix(0.06172839506172834,0,0,0.06172839506172834,71.60493827160488,0)" xlink:href="#aC"/><use transform="matrix(0.06172839506172834,0,0,0.06172839506172834,78.95061728395055,0)" xlink:href="#aO"/><use transform="matrix(0.06172839506172834,0,0,0.06172839506172834,90.06172839506165,0)" xlink:href="#aS"/></g><g id="X"><use transform="matrix(0.06172839506172834,0,0,0.06172839506172834,0,0)" xlink:href="#ax"/><use transform="matrix(0.06172839506172834,0,0,0.06172839506172834,6.172839506172834,0)" xlink:href="#aU"/><use transform="matrix(0.06172839506172834,0,0,0.06172839506172834,18.5185185185185,0)" xlink:href="#at"/><use transform="matrix(0.06172839506172834,0,0,0.06172839506172834,30.864197530864168,0)" xlink:href="#aA"/></g><g id="Y"><use transform="matrix(0.06172839506172834,0,0,0.06172839506172834,0,0)" xlink:href="#al"/><use transform="matrix(0.06172839506172834,0,0,0.06172839506172834,12.345679012345668,0)" xlink:href="#aA"/><use transform="matrix(0.06172839506172834,0,0,0.06172839506172834,24.691358024691336,0)" xlink:href="#al"/><use transform="matrix(0.06172839506172834,0,0,0.06172839506172834,37.037037037037,0)" xlink:href="#as"/><use transform="matrix(0.06172839506172834,0,0,0.06172839506172834,41.91358024691354,0)" xlink:href="#aE"/><use transform="matrix(0.06172839506172834,0,0,0.06172839506172834,53.02469135802464,0)" xlink:href="#aQ"/><use transform="matrix(0.06172839506172834,0,0,0.06172839506172834,64.13580246913574,0)" xlink:href="#at"/><use transform="matrix(0.06172839506172834,0,0,0.06172839506172834,76.48148148148141,0)" xlink:href="#aO"/></g><g id="Z"><use transform="matrix(0.06172839506172834,0,0,0.06172839506172834,0,0)" xlink:href="#al"/><use transform="matrix(0.06172839506172834,0,0,0.06172839506172834,12.345679012345668,0)" xlink:href="#as"/><use transform="matrix(0.06172839506172834,0,0,0.06172839506172834,17.222222222222207,0)" xlink:href="#as"/></g><g id="aa"><use transform="matrix(0.06172839506172834,0,0,0.06172839506172834,0,0)" xlink:href="#aq"/><use transform="matrix(0.06172839506172834,0,0,0.06172839506172834,6.172839506172834,0)" xlink:href="#ar"/><use transform="matrix(0.06172839506172834,0,0,0.06172839506172834,11.049382716049372,0)" xlink:href="#as"/><use transform="matrix(0.06172839506172834,0,0,0.06172839506172834,15.925925925925913,0)" xlink:href="#at"/><use transform="matrix(0.06172839506172834,0,0,0.06172839506172834,28.27160493827158,0)" xlink:href="#aO"/></g><g id="ab"><use transform="matrix(0.06172839506172834,0,0,0.06172839506172834,0,0)" xlink:href="#ax"/><use transform="matrix(0.06172839506172834,0,0,0.06172839506172834,6.172839506172834,0)" xlink:href="#av"/></g><g id="ac"><use transform="matrix(0.06172839506172834,0,0,0.06172839506172834,0,0)" xlink:href="#aq"/><use transform="matrix(0.06172839506172834,0,0,0.06172839506172834,6.172839506172834,0)" xlink:href="#ar"/><use transform="matrix(0.06172839506172834,0,0,0.06172839506172834,11.049382716049372,0)" xlink:href="#aA"/><use transform="matrix(0.06172839506172834,0,0,0.06172839506172834,23.395061728395042,0)" xlink:href="#aB"/></g><use transform="matrix(0.06172839506172834,0,0,0.06172839506172834,0,0)" xlink:href="#al" id="ad"/><g id="ae"><use transform="matrix(0.06172839506172834,0,0,0.06172839506172834,0,0)" xlink:href="#aG"/><use transform="matrix(0.06172839506172834,0,0,0.06172839506172834,11.111111111111102,0)" xlink:href="#aU"/><use transform="matrix(0.06172839506172834,0,0,0.06172839506172834,23.45679012345677,0)" xlink:href="#av"/><use transform="matrix(0.06172839506172834,0,0,0.06172839506172834,35.80246913580244,0)" xlink:href="#av"/><use transform="matrix(0.06172839506172834,0,0,0.06172839506172834,48.14814814814811,0)" xlink:href="#aO"/><use transform="matrix(0.06172839506172834,0,0,0.06172839506172834,59.25925925925921,0)" xlink:href="#at"/><use transform="matrix(0.06172839506172834,0,0,0.06172839506172834,71.60493827160488,0)" xlink:href="#aA"/></g><g id="af"><use transform="matrix(0.06172839506172834,0,0,0.06172839506172834,0,0)" xlink:href="#aO"/><use transform="matrix(0.06172839506172834,0,0,0.06172839506172834,11.111111111111102,0)" xlink:href="#aM"/><use transform="matrix(0.06172839506172834,0,0,0.06172839506172834,23.45679012345677,0)" xlink:href="#at"/><use transform="matrix(0.06172839506172834,0,0,0.06172839506172834,35.80246913580244,0)" xlink:href="#al"/><use transform="matrix(0.06172839506172834,0,0,0.06172839506172834,48.14814814814811,0)" xlink:href="#aN"/><use transform="matrix(0.06172839506172834,0,0,0.06172839506172834,59.25925925925921,0)" xlink:href="#at"/><use transform="matrix(0.06172839506172834,0,0,0.06172839506172834,71.60493827160488,0)" xlink:href="#aC"/></g><g id="ag"><use transform="matrix(0.06172839506172834,0,0,0.06172839506172834,0,0)" xlink:href="#ar"/><use transform="matrix(0.06172839506172834,0,0,0.06172839506172834,4.876543209876539,0)" xlink:href="#aA"/></g><g id="ah"><use transform="matrix(0.06172839506172834,0,0,0.06172839506172834,0,0)" xlink:href="#aJ"/><use transform="matrix(0.06172839506172834,0,0,0.06172839506172834,18.456790123456774,0)" xlink:href="#aw"/><use transform="matrix(0.06172839506172834,0,0,0.06172839506172834,30.80246913580244,0)" xlink:href="#as"/><use transform="matrix(0.06172839506172834,0,0,0.06172839506172834,35.67901234567898,0)" xlink:href="#ax"/><use transform="matrix(0.06172839506172834,0,0,0.06172839506172834,41.85185185185181,0)" xlink:href="#ar"/><use transform="matrix(0.06172839506172834,0,0,0.06172839506172834,46.72839506172835,0)" xlink:href="#aM"/><use transform="matrix(0.06172839506172834,0,0,0.06172839506172834,59.07407407407402,0)" xlink:href="#as"/><use transform="matrix(0.06172839506172834,0,0,0.06172839506172834,63.950617283950564,0)" xlink:href="#at"/></g><g id="ai"><use transform="matrix(0.06172839506172834,0,0,0.06172839506172834,0,0)" xlink:href="#aq"/><use transform="matrix(0.06172839506172834,0,0,0.06172839506172834,6.172839506172834,0)" xlink:href="#ar"/><use transform="matrix(0.06172839506172834,0,0,0.06172839506172834,11.049382716049372,0)" xlink:href="#as"/><use transform="matrix(0.06172839506172834,0,0,0.06172839506172834,15.925925925925913,0)" xlink:href="#at"/><use transform="matrix(0.06172839506172834,0,0,0.06172839506172834,28.27160493827158,0)" xlink:href="#aO"/></g><path fill="#3a414a" d="M135-150c-39-12-60 13-60 57V0H25l-1-190h47c2 13-1 29 3 40 6-28 27-53 61-41v41" id="aW"/><path fill="#3a414a" d="M185-48c-13 30-37 53-82 52C43 2 14-33 14-96s30-98 90-98c62 0 83 45 84 108H66c0 31 8 55 39 56 18 0 30-7 34-22zm-45-69c5-46-57-63-70-21-2 6-4 13-4 21h74" id="aX"/><path fill="#3a414a" d="M121-226c-27-7-43 5-38 36h38v33H83V0H34v-157H6v-33h28c-9-59 32-81 87-68v32" id="aY"/><path fill="#3a414a" d="M25-224v-37h50v37H25zM25 0v-190h50V0H25" id="aZ"/><path fill="#3a414a" d="M135-194c87-1 58 113 63 194h-50c-7-57 23-157-34-157-59 0-34 97-39 157H25l-1-190h47c2 12-1 28 3 38 12-26 28-41 61-42" id="ba"/><path fill="#3a414a" d="M133-34C117-15 103 5 69 4 32 3 11-16 11-54c-1-60 55-63 116-61 1-26-3-47-28-47-18 1-26 9-28 27l-52-2c7-38 36-58 82-57s74 22 75 68l1 82c-1 14 12 18 25 15v27c-30 8-71 5-69-32zm-48 3c29 0 43-24 42-57-32 0-66-3-65 30 0 17 8 27 23 27" id="bb"/><path fill="#3a414a" d="M85 4C-2 5 27-109 22-190h50c7 57-23 150 33 157 60-5 35-97 40-157h50l1 190h-47c-2-12 1-28-3-38-12 25-28 42-61 42" id="bc"/><path fill="#3a414a" d="M88-194c31-1 46 15 58 34l-1-101h50l1 261h-48c-2-10 0-23-3-31C134-8 116 4 84 4 32 4 16-41 15-95c0-56 19-97 73-99zm17 164c33 0 40-30 41-66 1-37-9-64-41-64s-38 30-39 65c0 43 13 65 39 65" id="bd"/><path fill="#3a414a" d="M110-194c64 0 96 36 96 99 0 64-35 99-97 99-61 0-95-36-95-99 0-62 34-99 96-99zm-1 164c35 0 45-28 45-65 0-40-10-65-43-65-34 0-45 26-45 65 0 36 10 65 43 65" id="be"/><path fill="#3a414a" d="M24 0v-54h51V0H24" id="bf"/><path fill="#3a414a" d="M135-194c53 0 70 44 70 98 0 56-19 98-73 100-31 1-45-17-59-34 3 33 2 69 2 105H25l-1-265h48c2 10 0 23 3 31 11-24 29-35 60-35zM114-30c33 0 39-31 40-66 0-38-9-64-40-64-56 0-55 130 0 130" id="bg"/><path fill="#3a414a" d="M123 10C108 53 80 86 19 72V37c35 8 53-11 59-39L3-190h52l48 148c12-52 28-100 44-148h51" id="bh"/><g id="aj"><use transform="matrix(0.1419753086419752,0,0,0.1419753086419752,0,0)" xlink:href="#aW"/><use transform="matrix(0.1419753086419752,0,0,0.1419753086419752,19.876543209876527,0)" xlink:href="#aX"/><use transform="matrix(0.1419753086419752,0,0,0.1419753086419752,48.271604938271565,0)" xlink:href="#aY"/><use transform="matrix(0.1419753086419752,0,0,0.1419753086419752,65.16666666666661,0)" xlink:href="#aZ"/><use transform="matrix(0.1419753086419752,0,0,0.1419753086419752,79.36419753086413,0)" xlink:href="#ba"/><use transform="matrix(0.1419753086419752,0,0,0.1419753086419752,110.4567901234567,0)" xlink:href="#aX"/><use transform="matrix(0.1419753086419752,0,0,0.1419753086419752,138.85185185185173,0)" xlink:href="#bb"/><use transform="matrix(0.1419753086419752,0,0,0.1419753086419752,167.24691358024677,0)" xlink:href="#bc"/><use transform="matrix(0.1419753086419752,0,0,0.1419753086419752,198.33950617283932,0)" xlink:href="#bd"/><use transform="matrix(0.1419753086419752,0,0,0.1419753086419752,229.43209876543187,0)" xlink:href="#aZ"/><use transform="matrix(0.1419753086419752,0,0,0.1419753086419752,243.6296296296294,0)" xlink:href="#be"/><use transform="matrix(0.1419753086419752,0,0,0.1419753086419752,274.72222222222194,0)" xlink:href="#bf"/><use transform="matrix(0.1419753086419752,0,0,0.1419753086419752,288.91975308641946,0)" xlink:href="#bg"/><use transform="matrix(0.1419753086419752,0,0,0.1419753086419752,320.012345679012,0)" xlink:href="#bh"/></g></defs></g></svg>