<svg xmlns="http://www.w3.org/2000/svg" xmlns:xlink="http://www.w3.org/1999/xlink" xmlns:lucid="lucid" width="2851.5" height="1320"><g transform="translate(-508.50004999999976 1240)" lucid:page-tab-id="0_0"><path d="M0-1296h3456V64H0z" fill="#fff"/><path d="M1080-988.33a6 6 0 0 1 6-6h308a6 6 0 0 1 6 6v84a8.86 8.86 0 0 1-5.57 8.23l-148.86 59.54a15 15 0 0 1-11.14 0l-148.86-59.55a8.86 8.86 0 0 1-5.57-8.23z" stroke="#3a414a" fill="#fff"/><use xlink:href="#a" transform="matrix(1,0,0,1,1085,-989.3333333333333) translate(42.16049382716051 79.12152777777777)"/><use xlink:href="#b" transform="matrix(1,0,0,1,1085,-989.3333333333333) translate(138.95061728395063 79.12152777777777)"/><use xlink:href="#c" transform="matrix(1,0,0,1,1085,-989.3333333333333) translate(226.41975308641975 79.12152777777777)"/><path d="M820-1148.33a6 6 0 0 1 6-6h148a6 6 0 0 1 6 6v108a6 6 0 0 1-6 6H826a6 6 0 0 1-6-6z" stroke="#3a414a" fill="#fff"/><use xlink:href="#d" transform="matrix(1,0,0,1,832,-1142.3333333333333) translate(-1.6604938271604937 25.77777777777778)"/><use xlink:href="#e" transform="matrix(1,0,0,1,832,-1142.3333333333333) translate(24.820987654320987 52.44444444444445)"/><use xlink:href="#f" transform="matrix(1,0,0,1,832,-1142.3333333333333) translate(40.87037037037037 79.11111111111111)"/><a xlink:href="http://refineaudio.py" target="_blank" transform="matrix(1,0,0,1,832,-1142.3333333333333)"><path class="lucid-link lucid-hotspot lucid-overlay-hotspot" fill-opacity="0" d="M-1.66 8h139.32v26.67H-1.66z"/></a><path d="M1540-1148.33a6 6 0 0 1 6-6h148a6 6 0 0 1 6 6v108a6 6 0 0 1-6 6h-148a6 6 0 0 1-6-6z" stroke="#3a414a" fill="#fff"/><use xlink:href="#g" transform="matrix(1,0,0,1,1552,-1142.3333333333333) translate(17.475308641975303 38.77777777777778)"/><use xlink:href="#h" transform="matrix(1,0,0,1,1552,-1142.3333333333333) translate(26.672839506172835 65.44444444444446)"/><path d="M1539-1094.33h-293a6 6 0 0 0-6 6v77.1" stroke="#3a414a" fill="none"/><path d="M1539.5-1093.83h-.5v-1h.5z" stroke="#3a414a" stroke-width=".05" fill="#3a414a"/><path d="M1240-996.45l-4.63-14.27h9.27z" stroke="#3a414a" fill="#3a414a"/><path d="M981-1094.33h253a6 6 0 0 1 6 6v77.1" stroke="#3a414a" fill="none"/><path d="M981-1093.83h-.5v-1h.5z" stroke="#3a414a" stroke-width=".05" fill="#3a414a"/><path d="M1240-996.45l-4.63-14.27h9.27z" stroke="#3a414a" fill="#3a414a"/><path d="M1090-594a6 6 0 0 1 6-6h288a6 6 0 0 1 6 6v108a6 6 0 0 1-6 6h-288a6 6 0 0 1-6-6z" stroke="#3a414a" fill="#fff"/><use xlink:href="#i" transform="matrix(1,0,0,1,1102,-588) translate(69.96296296296296 36.33333333333333)"/><use xlink:href="#j" transform="matrix(1,0,0,1,1102,-588) translate(157.22222222222223 36.33333333333333)"/><use xlink:href="#k" transform="matrix(1,0,0,1,1102,-588) translate(56.74074074074076 68.33333333333333)"/><path d="M1120-1214a6 6 0 0 1 6-6h228a6 6 0 0 1 6 6v59.33a6 6 0 0 1-6 6h-228a6 6 0 0 1-6-6z" stroke="#000" stroke-opacity="0" fill="#fff" fill-opacity="0"/><use xlink:href="#l" transform="matrix(1,0,0,1,1125,-1215) translate(-131.54012345678987 41.222222222222214)"/><path d="M1160-374a6 6 0 0 1 6-6h148a6 6 0 0 1 6 6v108a6 6 0 0 1-6 6h-148a6 6 0 0 1-6-6z" stroke="#5e5e5e" stroke-width="3" fill="#fff"/><use xlink:href="#m" transform="matrix(1,0,0,1,1172,-368) translate(13.802469135802468 53.77777777777778)"/><path d="M880-374a6 6 0 0 1 6-6h148a6 6 0 0 1 6 6v108a6 6 0 0 1-6 6H886a6 6 0 0 1-6-6z" stroke="#5e5e5e" stroke-width="3" fill="#fff"/><use xlink:href="#n" transform="matrix(1,0,0,1,892,-368) translate(50.160493827160494 38.77777777777778)"/><use xlink:href="#o" transform="matrix(1,0,0,1,892,-368) translate(16.179012345679006 65.44444444444446)"/><path d="M1440-374a6 6 0 0 1 6-6h168a6 6 0 0 1 6 6v108a6 6 0 0 1-6 6h-168a6 6 0 0 1-6-6z" stroke="#5e5e5e" stroke-width="3" fill="#fff"/><use xlink:href="#p" transform="matrix(1,0,0,1,1452,-368) translate(9.635802469135797 38.77777777777778)"/><use xlink:href="#q" transform="matrix(1,0,0,1,1452,-368) translate(124.2037037037037 38.77777777777778)"/><use xlink:href="#r" transform="matrix(1,0,0,1,1452,-368) translate(20.62345679012345 65.44444444444446)"/><path d="M1090-771.17a6 6 0 0 1 6-6h288a6 6 0 0 1 6 6v108a6 6 0 0 1-6 6h-288a6 6 0 0 1-6-6z" stroke="#3a414a" fill="#fff"/><use xlink:href="#s" transform="matrix(1,0,0,1,1102,-765.1666666666666) translate(9.96296296296299 54.33333333333333)"/><use xlink:href="#t" transform="matrix(1,0,0,1,1102,-765.1666666666666) translate(69.07407407407409 54.33333333333333)"/><use xlink:href="#u" transform="matrix(1,0,0,1,1102,-765.1666666666666) translate(119.44444444444446 54.33333333333333)"/><use xlink:href="#v" transform="matrix(1,0,0,1,1102,-765.1666666666666) translate(155 54.33333333333333)"/><path d="M1240-834v37.83" stroke="#5e5e5e" stroke-width="2" fill="none"/><path d="M1240-835l1-.03v1.07h-2v-1.07z" stroke="#5e5e5e" stroke-width=".05" fill="#5e5e5e"/><path d="M1240-780.9l-4.63-14.27h9.27z" stroke="#5e5e5e" stroke-width="2" fill="#5e5e5e"/><path d="M1240-655.67V-619" stroke="#5e5e5e" stroke-width="2" fill="none"/><path d="M1241-655.64h-2v-1.03h2z" stroke="#5e5e5e" stroke-width=".05" fill="#5e5e5e"/><path d="M1240-603.74l-4.63-14.26h9.27z" stroke="#5e5e5e" stroke-width="2" fill="#5e5e5e"/><path d="M1240-478.5v78.5" stroke="#5e5e5e" stroke-width="2" fill="none"/><path d="M1241-478.47h-2v-1.03h2z" stroke="#5e5e5e" stroke-width=".05" fill="#5e5e5e"/><path d="M1240-384.74l-4.63-14.26h9.27z" stroke="#5e5e5e" stroke-width="2" fill="#5e5e5e"/><path d="M1088.5-540H966a6 6 0 0 0-6 6v134" stroke="#5e5e5e" stroke-width="2" fill="none"/><path d="M1089.5-539h-1.03v-2h1.03z" stroke="#5e5e5e" stroke-width=".05" fill="#5e5e5e"/><path d="M960-384.74L955.37-399h9.26z" stroke="#5e5e5e" stroke-width="2" fill="#5e5e5e"/><path d="M1391.5-540H1524a6 6 0 0 1 6 6v134" stroke="#5e5e5e" stroke-width="2" fill="none"/><path d="M1391.53-539h-1.03v-2h1.03z" stroke="#5e5e5e" stroke-width=".05" fill="#5e5e5e"/><path d="M1530-384.74l-4.63-14.26h9.27z" stroke="#5e5e5e" stroke-width="2" fill="#5e5e5e"/><path d="M560-254a6 6 0 0 1 6-6h288a6 6 0 0 1 6 6v108a6 6 0 0 1-6 6H566a6 6 0 0 1-6-6z" stroke="#3a414a" fill="#fff"/><use xlink:href="#w" transform="matrix(1,0,0,1,572,-248) translate(24.851851851851876 54.33333333333333)"/><use xlink:href="#x" transform="matrix(1,0,0,1,572,-248) translate(86.85185185185188 54.33333333333333)"/><path d="M818.5-1094.33h-293a6 6 0 0 0-6 6V-206a6 6 0 0 0 6 6H541" stroke="#5e5e5e" stroke-width="2" fill="none"/><path d="M819.5-1093.33h-1.03v-2h1.03z" stroke="#5e5e5e" stroke-width=".05" fill="#5e5e5e"/><path d="M556.26-200L542-195.37v-9.26z" stroke="#5e5e5e" stroke-width="2" fill="#5e5e5e"/><path d="M560-94a6 6 0 0 1 6-6h288a6 6 0 0 1 6 6V14a6 6 0 0 1-6 6H566a6 6 0 0 1-6-6z" stroke="#3a414a" fill="#fff"/><use xlink:href="#s" transform="matrix(1,0,0,1,572,-88) translate(20.444444444444457 54.33333333333333)"/><use xlink:href="#y" transform="matrix(1,0,0,1,572,-88) translate(79.55555555555556 54.33333333333333)"/><use xlink:href="#z" transform="matrix(1,0,0,1,572,-88) translate(152.07407407407408 54.33333333333333)"/><use xlink:href="#A" transform="matrix(1,0,0,1,572,-88) translate(202.37037037037038 54.33333333333333)"/><path d="M818.5-1094.33h-293a6 6 0 0 0-6 6V-46a6 6 0 0 0 6 6H541" stroke="#5e5e5e" stroke-width="2" fill="none"/><path d="M819.5-1093.33h-1.03v-2h1.03z" stroke="#5e5e5e" stroke-width=".05" fill="#5e5e5e"/><path d="M556.26-40L542-35.37v-9.27z" stroke="#5e5e5e" stroke-width="2" fill="#5e5e5e"/><path d="M1120-1134a6 6 0 0 1 6-6h228a6 6 0 0 1 6 6v48a6 6 0 0 1-6 6h-228a6 6 0 0 1-6-6z" stroke="#000" stroke-opacity="0" stroke-width="3" fill="#fff" fill-opacity="0"/><use xlink:href="#B" transform="matrix(1,0,0,1,1125,-1135) translate(70.64814814814815 30.27777777777778)"/><path d="M1070-134a6 6 0 0 1 6-6h294a6 6 0 0 1 6 6V30c-51.1-28.4-82.93-28.4-102.2-28.4-30.6 0-71.3 28.4-101.9 28.4-18.97 0-51.1 0-101.9-28.4z" stroke="#5e5e5e" stroke-width="3" fill="#fff"/><path d="M1087-119a6 6 0 0 1 6-6h294a6 6 0 0 1 6 6V45c-51.1-28.4-82.93-28.4-102.2-28.4-30.6 0-71.3 28.4-101.9 28.4-18.97 0-51.1 0-101.9-28.4z" stroke="#5e5e5e" stroke-width="3" fill="#fff"/><path d="M1104-104a6 6 0 0 1 6-6h294a6 6 0 0 1 6 6V60c-51.1-28.4-82.93-28.4-102.2-28.4-30.6 0-71.3 28.4-101.9 28.4-18.97 0-51.1 0-101.9-28.4z" stroke="#5e5e5e" stroke-width="3" fill="#fff"/><use xlink:href="#C" transform="matrix(1,0,0,1,1109,-105) translate(81.45987654320989 60.236111111111114)"/><use xlink:href="#D" transform="matrix(1,0,0,1,1109,-105) translate(31.740740740740748 89.56944444444443)"/><use xlink:href="#E" transform="matrix(1,0,0,1,1109,-105) translate(169.95061728395063 89.56944444444443)"/><use xlink:href="#F" transform="matrix(1,0,0,1,1109,-105) translate(190.93827160493828 89.56944444444443)"/><g transform="matrix(1,0,0,1,1109,-105)"><a xlink:href="http://metadata.csv" target="_blank"><path class="lucid-link lucid-hotspot lucid-overlay-hotspot" fill-opacity="0" d="M81.46 37.13h20.78V71.8H81.46z"/></a><a xlink:href="http://metadata.csv" target="_blank"><path class="lucid-link lucid-hotspot lucid-overlay-hotspot" fill-opacity="0" d="M31.74 71.8h132.04v26.66H31.74z"/></a></g><path d="M877.5-320H716a6 6 0 0 0-6 6v35" stroke="#5e5e5e" stroke-width="2" fill="none"/><path d="M878.5-319h-1.03v-2h1.03z" stroke="#5e5e5e" stroke-width=".05" fill="#5e5e5e"/><path d="M710-263.74L705.37-278h9.26z" stroke="#5e5e5e" stroke-width="2" fill="#5e5e5e"/><path d="M861.5-40H1050" stroke="#5e5e5e" stroke-width="2" fill="none"/><path d="M861.53-39h-1.03v-2h1.03z" stroke="#5e5e5e" stroke-width=".05" fill="#5e5e5e"/><path d="M1065.26-40L1051-35.37v-9.27z" stroke="#5e5e5e" stroke-width="2" fill="#5e5e5e"/><path d="M960-257.5v51.5a6 6 0 0 0 6 6h172a6 6 0 0 1 6 6v34" stroke="#5e5e5e" stroke-width="2" fill="none"/><path d="M961-257.47h-2v-1.03h2z" stroke="#5e5e5e" stroke-width=".05" fill="#5e5e5e"/><path d="M1144-144.74l-4.63-14.26h9.27z" stroke="#5e5e5e" stroke-width="2" fill="#5e5e5e"/><path d="M1530-257.5v51.5a6 6 0 0 1-6 6h-194.67a6 6 0 0 0-6 6v34" stroke="#5e5e5e" stroke-width="2" fill="none"/><path d="M1531-257.47h-2v-1.03h2z" stroke="#5e5e5e" stroke-width=".05" fill="#5e5e5e"/><path d="M1323.33-144.74L1318.7-159h9.27z" stroke="#5e5e5e" stroke-width="2" fill="#5e5e5e"/><path d="M1240-257.5v97.5" stroke="#5e5e5e" stroke-width="2" fill="none"/><path d="M1241-257.47h-2v-1.03h2z" stroke="#5e5e5e" stroke-width=".05" fill="#5e5e5e"/><path d="M1240-144.74l-4.63-14.26h9.27z" stroke="#5e5e5e" stroke-width="2" fill="#5e5e5e"/><path d="M2320-968.33a6 6 0 0 1 6-6h308a6 6 0 0 1 6 6v84a8.86 8.86 0 0 1-5.57 8.23l-148.86 59.54a15 15 0 0 1-11.14 0l-148.86-59.55a8.86 8.86 0 0 1-5.57-8.23z" stroke="#3a414a" fill="#fff"/><use xlink:href="#G" transform="matrix(1,0,0,1,2325,-969.3333333333333) translate(88.48765432098766 79.12152777777777)"/><use xlink:href="#H" transform="matrix(1,0,0,1,2325,-969.3333333333333) translate(138.9814814814815 79.12152777777777)"/><use xlink:href="#I" transform="matrix(1,0,0,1,2325,-969.3333333333333) translate(193.24074074074076 79.12152777777777)"/><path d="M2060-1128.33a6 6 0 0 1 6-6h148a6 6 0 0 1 6 6v108a6 6 0 0 1-6 6h-148a6 6 0 0 1-6-6z" stroke="#3a414a" fill="#fff"/><use xlink:href="#J" transform="matrix(1,0,0,1,2072,-1122.3333333333333) translate(27.660493827160494 38.77777777777778)"/><use xlink:href="#K" transform="matrix(1,0,0,1,2072,-1122.3333333333333) translate(8.864197530864189 65.44444444444446)"/><path d="M2780-1128.33a6 6 0 0 1 6-6h148a6 6 0 0 1 6 6v108a6 6 0 0 1-6 6h-148a6 6 0 0 1-6-6z" stroke="#3a414a" fill="#fff"/><use xlink:href="#L" transform="matrix(1,0,0,1,2792,-1122.3333333333333) translate(17.475308641975303 38.77777777777778)"/><use xlink:href="#M" transform="matrix(1,0,0,1,2792,-1122.3333333333333) translate(26.672839506172835 65.44444444444446)"/><path d="M2779-1074.33h-293a6 6 0 0 0-6 6v77.1" stroke="#3a414a" fill="none"/><path d="M2779.5-1073.83h-.5v-1h.5z" stroke="#3a414a" stroke-width=".05" fill="#3a414a"/><path d="M2480-976.45l-4.64-14.27h9.28z" stroke="#3a414a" fill="#3a414a"/><path d="M2221-1074.33h253a6 6 0 0 1 6 6v77.1" stroke="#3a414a" fill="none"/><path d="M2221-1073.83h-.5v-1h.5z" stroke="#3a414a" stroke-width=".05" fill="#3a414a"/><path d="M2480-976.45l-4.64-14.27h9.28z" stroke="#3a414a" fill="#3a414a"/><path d="M2330-748.33a6 6 0 0 1 6-6h288a6 6 0 0 1 6 6v108a6 6 0 0 1-6 6h-288a6 6 0 0 1-6-6z" stroke="#3a414a" fill="#fff"/><use xlink:href="#N" transform="matrix(1,0,0,1,2342,-742.3333333333333) translate(6.6296296296296475 54.33333333333333)"/><use xlink:href="#O" transform="matrix(1,0,0,1,2342,-742.3333333333333) translate(79.14814814814815 54.33333333333333)"/><use xlink:href="#P" transform="matrix(1,0,0,1,2342,-742.3333333333333) translate(198.99999999999997 54.33333333333333)"/><path d="M2480-814.5v43.28" stroke="#3a414a" fill="none"/><path d="M2480-815h.5v.52h-1v-.53z" stroke="#3a414a" stroke-width=".05" fill="#3a414a"/><path d="M2480-756.45l-4.64-14.27h9.28z" stroke="#3a414a" fill="#3a414a"/><path d="M2330-568.33a6 6 0 0 1 6-6h288a6 6 0 0 1 6 6v108a6 6 0 0 1-6 6h-288a6 6 0 0 1-6-6z" stroke="#3a414a" fill="#fff"/><use xlink:href="#Q" transform="matrix(1,0,0,1,2342,-562.3333333333333) translate(38.14814814814815 54.33333333333333)"/><use xlink:href="#R" transform="matrix(1,0,0,1,2342,-562.3333333333333) translate(144.66666666666666 54.33333333333333)"/><path d="M2480-633.33v42.1" stroke="#3a414a" fill="none"/><path d="M2480.5-633.32h-1v-.5h1z" stroke="#3a414a" stroke-width=".05" fill="#3a414a"/><path d="M2480-576.45l-4.64-14.27h9.28z" stroke="#3a414a" fill="#3a414a"/><path d="M2330-388.33a6 6 0 0 1 6-6h288a6 6 0 0 1 6 6v108a6 6 0 0 1-6 6h-288a6 6 0 0 1-6-6z" stroke="#3a414a" fill="#fff"/><use xlink:href="#S" transform="matrix(1,0,0,1,2342,-382.33333333333326) translate(44.7777777777778 54.33333333333333)"/><use xlink:href="#T" transform="matrix(1,0,0,1,2342,-382.33333333333326) translate(118.70370370370371 54.33333333333333)"/><path d="M2480-453.33v42.1" stroke="#3a414a" fill="none"/><path d="M2480.5-453.32h-1v-.5h1z" stroke="#3a414a" stroke-width=".05" fill="#3a414a"/><path d="M2480-396.45l-4.64-14.27h9.28z" stroke="#3a414a" fill="#3a414a"/><path d="M2330-208.33a6 6 0 0 1 6-6h288a6 6 0 0 1 6 6v108a6 6 0 0 1-6 6h-288a6 6 0 0 1-6-6z" stroke="#3a414a" fill="#fff"/><use xlink:href="#U" transform="matrix(1,0,0,1,2342,-202.33333333333326) translate(56.74074074074076 54.33333333333333)"/><path d="M2740-208.33a6 6 0 0 1 6-6h288a6 6 0 0 1 6 6v108a6 6 0 0 1-6 6h-288a6 6 0 0 1-6-6z" stroke="#3a414a" fill="#fff"/><use xlink:href="#V" transform="matrix(1,0,0,1,2752,-202.33333333333326) translate(36.55555555555557 36.33333333333333)"/><use xlink:href="#W" transform="matrix(1,0,0,1,2752,-202.33333333333326) translate(83.96296296296298 36.33333333333333)"/><use xlink:href="#X" transform="matrix(1,0,0,1,2752,-202.33333333333326) translate(159.44444444444446 36.33333333333333)"/><use xlink:href="#Y" transform="matrix(1,0,0,1,2752,-202.33333333333326) translate(69.22222222222223 68.33333333333333)"/><path d="M1920-208.33a6 6 0 0 1 6-6h288a6 6 0 0 1 6 6v108a6 6 0 0 1-6 6h-288a6 6 0 0 1-6-6z" stroke="#3a414a" fill="#fff"/><g><use xlink:href="#Z" transform="matrix(1,0,0,1,1932,-202.33333333333326) translate(40.370370370370395 54.33333333333333)"/><use xlink:href="#aa" transform="matrix(1,0,0,1,1932,-202.33333333333326) translate(115.77777777777779 54.33333333333333)"/></g><path d="M2329-334.33h-253a6 6 0 0 0-6 6v97.1" stroke="#3a414a" fill="none"/><path d="M2329.5-333.83h-.5v-1h.5z" stroke="#3a414a" stroke-width=".05" fill="#3a414a"/><path d="M2070-216.45l-4.64-14.27h9.28z" stroke="#3a414a" fill="#3a414a"/><path d="M2631-334.33h253a6 6 0 0 1 6 6v97.1" stroke="#3a414a" fill="none"/><path d="M2631-333.83h-.5v-1h.5z" stroke="#3a414a" stroke-width=".05" fill="#3a414a"/><path d="M2890-216.45l-4.64-14.27h9.28z" stroke="#3a414a" fill="#3a414a"/><path d="M2480-273.33v42.1" stroke="#3a414a" fill="none"/><path d="M2480.5-273.32h-1v-.5h1z" stroke="#3a414a" stroke-width=".05" fill="#3a414a"/><path d="M2480-216.45l-4.64-14.27h9.28z" stroke="#3a414a" fill="#3a414a"/><path d="M2630-769.67a6 6 0 0 1 6-6h138a6 6 0 0 1 6 6v149.34a6 6 0 0 1-6 6h-138a6 6 0 0 1-6-6z" fill="none"/><path d="M2630-614.33c5.52 0 10-4.48 10-10V-685c0-5.52 4.48-10 10-10-5.52 0-10-4.48-10-10v-60.67c0-5.52-4.48-10-10-10" stroke="#3a414a" fill="none"/><g><use xlink:href="#ab" transform="matrix(1,0,0,1,2665,-770.6666666666665) translate(0 67.11111111111111)"/><use xlink:href="#ac" transform="matrix(1,0,0,1,2665,-770.6666666666665) translate(0 93.77777777777777)"/><use xlink:href="#ad" transform="matrix(1,0,0,1,2665,-770.6666666666665) translate(70.24691358024684 93.77777777777777)"/></g><path d="M1980-588.33a6 6 0 0 1 6-6h338a6 6 0 0 1 6 6v148a6 6 0 0 1-6 6h-338a6 6 0 0 1-6-6z" fill="none"/><path d="M2330-434.33c-5.52 0-10-4.48-10-10v-60c0-5.53-4.48-10-10-10 5.52 0 10-4.48 10-10v-60c0-5.53 4.48-10 10-10" stroke="#3a414a" fill="none"/><g><use xlink:href="#ae" transform="matrix(1,0,0,1,1985,-589.3333333333333) translate(35.06172839506195 66.11111111111111)"/><use xlink:href="#af" transform="matrix(1,0,0,1,1985,-589.3333333333333) translate(123.82716049382731 66.11111111111111)"/><use xlink:href="#ag" transform="matrix(1,0,0,1,1985,-589.3333333333333) translate(196.60493827160502 66.11111111111111)"/><use xlink:href="#ah" transform="matrix(1,0,0,1,1985,-589.3333333333333) translate(266.85185185185185 66.11111111111111)"/><use xlink:href="#ai" transform="matrix(1,0,0,1,1985,-589.3333333333333) translate(13.888888888889142 92.77777777777777)"/><use xlink:href="#aj" transform="matrix(1,0,0,1,1985,-589.3333333333333) translate(123.70370370370387 92.77777777777777)"/><use xlink:href="#ak" transform="matrix(1,0,0,1,1985,-589.3333333333333) translate(189.0740740740742 92.77777777777777)"/><use xlink:href="#al" transform="matrix(1,0,0,1,1985,-589.3333333333333) translate(221.1111111111112 92.77777777777777)"/></g><path d="M1720-228.33a6 6 0 0 1 6-6h188a6 6 0 0 1 6 6v148a6 6 0 0 1-6 6h-188a6 6 0 0 1-6-6z" fill="none"/><path d="M1920-74.33c-5.52 0-10-4.48-10-10v-60c0-5.53-4.48-10-10-10 5.52 0 10-4.48 10-10v-60c0-5.53 4.48-10 10-10" stroke="#3a414a" fill="none"/><g><use xlink:href="#am" transform="matrix(1,0,0,1,1725,-229.33333333333326) translate(83.51851851851858 26.11111111111115)"/><use xlink:href="#an" transform="matrix(1,0,0,1,1725,-229.33333333333326) translate(44.01234567901244 52.77777777777779)"/><use xlink:href="#ao" transform="matrix(1,0,0,1,1725,-229.33333333333326) translate(61.41975308641983 79.44444444444444)"/><use xlink:href="#ap" transform="matrix(1,0,0,1,1725,-229.33333333333326) translate(126.79012345679014 79.44444444444444)"/><use xlink:href="#aq" transform="matrix(1,0,0,1,1725,-229.33333333333326) translate(14.56790123456804 106.11111111111109)"/><use xlink:href="#ar" transform="matrix(1,0,0,1,1725,-229.33333333333326) translate(78.64197530864205 106.11111111111109)"/><use xlink:href="#as" transform="matrix(1,0,0,1,1725,-229.33333333333326) translate(104.50617283950622 106.11111111111109)"/><use xlink:href="#at" transform="matrix(1,0,0,1,1725,-229.33333333333326) translate(106.97530864197535 132.77777777777774)"/></g><path d="M3040-228.33a6 6 0 0 1 6-6h208a6 6 0 0 1 6 6v148a6 6 0 0 1-6 6h-208a6 6 0 0 1-6-6z" fill="none"/><path d="M3040-74.33c5.52 0 10-4.48 10-10v-60c0-5.53 4.48-10 10-10-5.52 0-10-4.48-10-10v-60c0-5.53-4.48-10-10-10" stroke="#3a414a" fill="none"/><g><use xlink:href="#au" transform="matrix(1,0,0,1,3075,-229.33333333333326) translate(0 52.77777777777779)"/><use xlink:href="#av" transform="matrix(1,0,0,1,3075,-229.33333333333326) translate(39.50617283950614 52.77777777777779)"/><use xlink:href="#aw" transform="matrix(1,0,0,1,3075,-229.33333333333326) translate(0 79.44444444444443)"/><use xlink:href="#ax" transform="matrix(1,0,0,1,3075,-229.33333333333326) translate(0 106.11111111111109)"/></g><path d="M2940-588.33a6 6 0 0 1 6-6h388a6 6 0 0 1 6 6V-433c-66.8-26.94-108.4-26.94-133.6-26.94-40 0-93.2 26.94-133.2 26.94-24.8 0-66.8 0-133.2-26.94z" stroke="#3a414a" fill="#fff"/><g><use xlink:href="#ay" transform="matrix(1,0,0,1,2945,-589.3333333333333) translate(13.024691358024853 41.215277777777764)"/><use xlink:href="#az" transform="matrix(1,0,0,1,2945,-589.3333333333333) translate(73.39506172839518 41.215277777777764)"/><use xlink:href="#aA" transform="matrix(1,0,0,1,2945,-589.3333333333333) translate(133.82716049382722 41.215277777777764)"/><use xlink:href="#aB" transform="matrix(1,0,0,1,2945,-589.3333333333333) translate(200.49382716049385 41.215277777777764)"/><use xlink:href="#aC" transform="matrix(1,0,0,1,2945,-589.3333333333333) translate(231.35802469135803 41.215277777777764)"/><use xlink:href="#aD" transform="matrix(1,0,0,1,2945,-589.3333333333333) translate(333.76543209876536 41.215277777777764)"/><use xlink:href="#aE" transform="matrix(1,0,0,1,2945,-589.3333333333333) translate(26.6666666666668 67.8819444444444)"/><use xlink:href="#aF" transform="matrix(1,0,0,1,2945,-589.3333333333333) translate(120.43209876543214 67.8819444444444)"/><use xlink:href="#aG" transform="matrix(1,0,0,1,2945,-589.3333333333333) translate(148.70370370370372 67.8819444444444)"/><use xlink:href="#aH" transform="matrix(1,0,0,1,2945,-589.3333333333333) translate(194.25925925925924 67.8819444444444)"/><use xlink:href="#aI" transform="matrix(1,0,0,1,2945,-589.3333333333333) translate(218.95061728395058 67.8819444444444)"/><use xlink:href="#aJ" transform="matrix(1,0,0,1,2945,-589.3333333333333) translate(260.8641975308641 67.8819444444444)"/><use xlink:href="#aK" transform="matrix(1,0,0,1,2945,-589.3333333333333) translate(279.3827160493826 67.8819444444444)"/><use xlink:href="#aL" transform="matrix(1,0,0,1,2945,-589.3333333333333) translate(79.81481481481492 94.54861111111106)"/><use xlink:href="#aM" transform="matrix(1,0,0,1,2945,-589.3333333333333) translate(164.9382716049383 94.54861111111106)"/><use xlink:href="#aN" transform="matrix(1,0,0,1,2945,-589.3333333333333) translate(188.33333333333334 94.54861111111106)"/><use xlink:href="#aO" transform="matrix(1,0,0,1,2945,-589.3333333333333) translate(270.8024691358024 94.54861111111106)"/></g><path d="M2631-334.33h503a6 6 0 0 0 6-6v-89.5" stroke="#3a414a" fill="none"/><path d="M2631-333.83h-.5v-1h.5z" stroke="#3a414a" stroke-width=".05" fill="#3a414a"/><path d="M3140-444.6l4.64 14.27h-9.28z" stroke="#3a414a" fill="#3a414a"/><path d="M2360-1214a6 6 0 0 1 6-6h228a6 6 0 0 1 6 6v59.33a6 6 0 0 1-6 6h-228a6 6 0 0 1-6-6z" stroke="#000" stroke-opacity="0" fill="#fff" fill-opacity="0"/><g><use xlink:href="#aP" transform="matrix(1,0,0,1,2365,-1215) translate(-59.203703703703525 41.222222222222214)"/></g><defs><path fill="#3a414a" d="M140-251c81 0 123 46 123 126C263-46 219 4 140 4 59 4 17-45 17-125s42-126 123-126zm0 227c63 0 89-41 89-101s-29-99-89-99c-61 0-89 39-89 99S79-25 140-24" id="aQ"/><path fill="#3a414a" d="M115-194c55 1 70 41 70 98S169 2 115 4C84 4 66-9 55-30l1 105H24l-1-265h31l2 30c10-21 28-34 59-34zm-8 174c40 0 45-34 45-75s-6-73-45-74c-42 0-51 32-51 76 0 43 10 73 51 73" id="aR"/><path fill="#3a414a" d="M100-194c63 0 86 42 84 106H49c0 40 14 67 53 68 26 1 43-12 49-29l28 8c-11 28-37 45-77 45C44 4 14-33 15-96c1-61 26-98 85-98zm52 81c6-60-76-77-97-28-3 7-6 17-6 28h103" id="aS"/><path fill="#3a414a" d="M117-194c89-4 53 116 60 194h-32v-121c0-31-8-49-39-48C34-167 62-67 57 0H25l-1-190h30c1 10-1 24 2 32 11-22 29-35 61-36" id="aT"/><path fill="#3a414a" d="M205 0l-28-72H64L36 0H1l101-248h38L239 0h-34zm-38-99l-47-123c-12 45-31 82-46 123h93" id="aU"/><path fill="#3a414a" d="M33 0v-248h34V0H33" id="aV"/><path fill="#3a414a" d="M47-170H22l-4-78h33" id="aW"/><path fill="#3a414a" d="M135-143c-3-34-86-38-87 0 15 53 115 12 119 90S17 21 10-45l28-5c4 36 97 45 98 0-10-56-113-15-118-90-4-57 82-63 122-42 12 7 21 19 24 35" id="aX"/><g id="a"><use transform="matrix(0.06172839506172839,0,0,0.06172839506172839,0,0)" xlink:href="#aQ"/><use transform="matrix(0.06172839506172839,0,0,0.06172839506172839,17.28395061728395,0)" xlink:href="#aR"/><use transform="matrix(0.06172839506172839,0,0,0.06172839506172839,29.629629629629626,0)" xlink:href="#aS"/><use transform="matrix(0.06172839506172839,0,0,0.06172839506172839,41.9753086419753,0)" xlink:href="#aT"/><use transform="matrix(0.06172839506172839,0,0,0.06172839506172839,54.32098765432098,0)" xlink:href="#aU"/><use transform="matrix(0.06172839506172839,0,0,0.06172839506172839,69.1358024691358,0)" xlink:href="#aV"/><use transform="matrix(0.06172839506172839,0,0,0.06172839506172839,75.30864197530863,0)" xlink:href="#aW"/><use transform="matrix(0.06172839506172839,0,0,0.06172839506172839,79.50617283950616,0)" xlink:href="#aX"/></g><path fill="#3a414a" d="M266 0h-40l-56-210L115 0H75L2-248h35L96-30l15-64 43-154h32l59 218 59-218h35" id="aY"/><path fill="#3a414a" d="M106-169C34-169 62-67 57 0H25v-261h32l-1 103c12-21 28-36 61-36 89 0 53 116 60 194h-32v-121c2-32-8-49-39-48" id="aZ"/><path fill="#3a414a" d="M24-231v-30h32v30H24zM24 0v-190h32V0H24" id="ba"/><path fill="#3a414a" d="M114-163C36-179 61-72 57 0H25l-1-190h30c1 12-1 29 2 39 6-27 23-49 58-41v29" id="bb"/><g id="b"><use transform="matrix(0.06172839506172839,0,0,0.06172839506172839,0,0)" xlink:href="#aY"/><use transform="matrix(0.06172839506172839,0,0,0.06172839506172839,20.925925925925924,0)" xlink:href="#aZ"/><use transform="matrix(0.06172839506172839,0,0,0.06172839506172839,33.2716049382716,0)" xlink:href="#ba"/><use transform="matrix(0.06172839506172839,0,0,0.06172839506172839,38.148148148148145,0)" xlink:href="#aX"/><use transform="matrix(0.06172839506172839,0,0,0.06172839506172839,49.25925925925925,0)" xlink:href="#aR"/><use transform="matrix(0.06172839506172839,0,0,0.06172839506172839,61.60493827160493,0)" xlink:href="#aS"/><use transform="matrix(0.06172839506172839,0,0,0.06172839506172839,73.9506172839506,0)" xlink:href="#bb"/></g><path fill="#3a414a" d="M185-189c-5-48-123-54-124 2 14 75 158 14 163 119 3 78-121 87-175 55-17-10-28-26-33-46l33-7c5 56 141 63 141-1 0-78-155-14-162-118-5-82 145-84 179-34 5 7 8 16 11 25" id="bc"/><path fill="#3a414a" d="M127-220V0H93v-220H8v-28h204v28h-85" id="bd"/><g id="c"><use transform="matrix(0.06172839506172839,0,0,0.06172839506172839,0,0)" xlink:href="#bc"/><use transform="matrix(0.06172839506172839,0,0,0.06172839506172839,14.814814814814813,0)" xlink:href="#bd"/><use transform="matrix(0.06172839506172839,0,0,0.06172839506172839,28.33333333333333,0)" xlink:href="#bd"/></g><path fill="#3a414a" d="M101-234c-31-9-42 10-38 44h38v23H63V0H32v-167H5v-23h27c-7-52 17-82 69-68v24" id="be"/><path fill="#3a414a" d="M141-36C126-15 110 5 73 4 37 3 15-17 15-53c-1-64 63-63 125-63 3-35-9-54-41-54-24 1-41 7-42 31l-33-3c5-37 33-52 76-52 45 0 72 20 72 64v82c-1 20 7 32 28 27v20c-31 9-61-2-59-35zM48-53c0 20 12 33 32 33 41-3 63-29 60-74-43 2-92-5-92 41" id="bf"/><path fill="#3a414a" d="M84 4C-5 8 30-112 23-190h32v120c0 31 7 50 39 49 72-2 45-101 50-169h31l1 190h-30c-1-10 1-25-2-33-11 22-28 36-60 37" id="bg"/><path fill="#3a414a" d="M85-194c31 0 48 13 60 33l-1-100h32l1 261h-30c-2-10 0-23-3-31C134-8 116 4 85 4 32 4 16-35 15-94c0-66 23-100 70-100zm9 24c-40 0-46 34-46 75 0 40 6 74 45 74 42 0 51-32 51-76 0-42-9-74-50-73" id="bh"/><path fill="#3a414a" d="M100-194c62-1 85 37 85 99 1 63-27 99-86 99S16-35 15-95c0-66 28-99 85-99zM99-20c44 1 53-31 53-75 0-43-8-75-51-75s-53 32-53 75 10 74 51 75" id="bi"/><path fill="#3a414a" d="M33 0v-38h34V0H33" id="bj"/><path fill="#3a414a" d="M179-190L93 31C79 59 56 82 12 73V49c39 6 53-20 64-50L1-190h34L92-34l54-156h33" id="bk"/><g id="d"><use transform="matrix(0.06172839506172839,0,0,0.06172839506172839,0,0)" xlink:href="#bb"/><use transform="matrix(0.06172839506172839,0,0,0.06172839506172839,7.345679012345679,0)" xlink:href="#aS"/><use transform="matrix(0.06172839506172839,0,0,0.06172839506172839,19.691358024691358,0)" xlink:href="#be"/><use transform="matrix(0.06172839506172839,0,0,0.06172839506172839,25.864197530864196,0)" xlink:href="#ba"/><use transform="matrix(0.06172839506172839,0,0,0.06172839506172839,30.74074074074074,0)" xlink:href="#aT"/><use transform="matrix(0.06172839506172839,0,0,0.06172839506172839,43.08641975308642,0)" xlink:href="#aS"/><use transform="matrix(0.06172839506172839,0,0,0.06172839506172839,55.432098765432094,0)" xlink:href="#bf"/><use transform="matrix(0.06172839506172839,0,0,0.06172839506172839,67.77777777777777,0)" xlink:href="#bg"/><use transform="matrix(0.06172839506172839,0,0,0.06172839506172839,80.12345679012346,0)" xlink:href="#bh"/><use transform="matrix(0.06172839506172839,0,0,0.06172839506172839,92.46913580246914,0)" xlink:href="#ba"/><use transform="matrix(0.06172839506172839,0,0,0.06172839506172839,97.34567901234568,0)" xlink:href="#bi"/><use transform="matrix(0.06172839506172839,0,0,0.06172839506172839,109.69135802469137,0)" xlink:href="#bj"/><use transform="matrix(0.06172839506172839,0,0,0.06172839506172839,115.8641975308642,0)" xlink:href="#aR"/><use transform="matrix(0.06172839506172839,0,0,0.06172839506172839,128.20987654320987,0)" xlink:href="#bk"/><path fill="#8080ff" d="M-1.1 1.54h141.53v1.63H-1.1z"/></g><path fill="#3a414a" d="M141 0L90-78 38 0H4l68-98-65-92h35l48 74 47-74h35l-64 92 68 98h-35" id="bl"/><path fill="#3a414a" d="M59-47c-2 24 18 29 38 22v24C64 9 27 4 27-40v-127H5v-23h24l9-43h21v43h35v23H59v120" id="bm"/><g id="e"><use transform="matrix(0.06172839506172839,0,0,0.06172839506172839,0,0)" xlink:href="#aS"/><use transform="matrix(0.06172839506172839,0,0,0.06172839506172839,12.345679012345679,0)" xlink:href="#bl"/><use transform="matrix(0.06172839506172839,0,0,0.06172839506172839,23.45679012345679,0)" xlink:href="#aR"/><use transform="matrix(0.06172839506172839,0,0,0.06172839506172839,35.80246913580247,0)" xlink:href="#bi"/><use transform="matrix(0.06172839506172839,0,0,0.06172839506172839,48.148148148148145,0)" xlink:href="#bb"/><use transform="matrix(0.06172839506172839,0,0,0.06172839506172839,55.49382716049382,0)" xlink:href="#bm"/><use transform="matrix(0.06172839506172839,0,0,0.06172839506172839,61.666666666666664,0)" xlink:href="#aS"/><use transform="matrix(0.06172839506172839,0,0,0.06172839506172839,74.01234567901234,0)" xlink:href="#bh"/></g><g id="f"><use transform="matrix(0.06172839506172839,0,0,0.06172839506172839,0,0)" xlink:href="#bf"/><use transform="matrix(0.06172839506172839,0,0,0.06172839506172839,12.345679012345679,0)" xlink:href="#bg"/><use transform="matrix(0.06172839506172839,0,0,0.06172839506172839,24.691358024691358,0)" xlink:href="#bh"/><use transform="matrix(0.06172839506172839,0,0,0.06172839506172839,37.03703703703704,0)" xlink:href="#ba"/><use transform="matrix(0.06172839506172839,0,0,0.06172839506172839,41.91358024691358,0)" xlink:href="#bi"/></g><path fill="#3a414a" d="M240 0l2-218c-23 76-54 145-80 218h-23L58-218 59 0H30v-248h44l77 211c21-75 51-140 76-211h43V0h-30" id="bn"/><path fill="#3a414a" d="M24 0v-261h32V0H24" id="bo"/><g id="g"><use transform="matrix(0.06172839506172839,0,0,0.06172839506172839,0,0)" xlink:href="#bn"/><use transform="matrix(0.06172839506172839,0,0,0.06172839506172839,18.456790123456788,0)" xlink:href="#bf"/><use transform="matrix(0.06172839506172839,0,0,0.06172839506172839,30.80246913580247,0)" xlink:href="#aT"/><use transform="matrix(0.06172839506172839,0,0,0.06172839506172839,43.148148148148145,0)" xlink:href="#aT"/><use transform="matrix(0.06172839506172839,0,0,0.06172839506172839,55.49382716049382,0)" xlink:href="#bg"/><use transform="matrix(0.06172839506172839,0,0,0.06172839506172839,67.8395061728395,0)" xlink:href="#bf"/><use transform="matrix(0.06172839506172839,0,0,0.06172839506172839,80.18518518518519,0)" xlink:href="#bo"/><use transform="matrix(0.06172839506172839,0,0,0.06172839506172839,85.06172839506173,0)" xlink:href="#bo"/><use transform="matrix(0.06172839506172839,0,0,0.06172839506172839,89.93827160493828,0)" xlink:href="#bk"/></g><path fill="#3a414a" d="M96-169c-40 0-48 33-48 73s9 75 48 75c24 0 41-14 43-38l32 2c-6 37-31 61-74 61-59 0-76-41-82-99-10-93 101-131 147-64 4 7 5 14 7 22l-32 3c-4-21-16-35-41-35" id="bp"/><g id="h"><use transform="matrix(0.06172839506172839,0,0,0.06172839506172839,0,0)" xlink:href="#bc"/><use transform="matrix(0.06172839506172839,0,0,0.06172839506172839,14.814814814814813,0)" xlink:href="#bi"/><use transform="matrix(0.06172839506172839,0,0,0.06172839506172839,27.160493827160494,0)" xlink:href="#bg"/><use transform="matrix(0.06172839506172839,0,0,0.06172839506172839,39.50617283950617,0)" xlink:href="#bb"/><use transform="matrix(0.06172839506172839,0,0,0.06172839506172839,46.85185185185185,0)" xlink:href="#bp"/><use transform="matrix(0.06172839506172839,0,0,0.06172839506172839,57.96296296296296,0)" xlink:href="#aS"/><use transform="matrix(0.06172839506172839,0,0,0.06172839506172839,70.30864197530865,0)" xlink:href="#bh"/></g><path fill="#3a414a" d="M190 0L58-211 59 0H30v-248h39L202-35l-2-213h31V0h-41" id="bq"/><path fill="#3a414a" d="M30 0v-248h187v28H63v79h144v27H63v87h162V0H30" id="br"/><g id="i"><use transform="matrix(0.07407407407407407,0,0,0.07407407407407407,0,0)" xlink:href="#bq"/><use transform="matrix(0.07407407407407407,0,0,0.07407407407407407,19.185185185185183,0)" xlink:href="#br"/><use transform="matrix(0.07407407407407407,0,0,0.07407407407407407,36.96296296296296,0)" xlink:href="#bn"/><use transform="matrix(0.07407407407407407,0,0,0.07407407407407407,59.11111111111111,0)" xlink:href="#aQ"/></g><g id="j"><use transform="matrix(0.07407407407407407,0,0,0.07407407407407407,0,0)" xlink:href="#bd"/><use transform="matrix(0.07407407407407407,0,0,0.07407407407407407,13.259259259259258,0)" xlink:href="#aS"/><use transform="matrix(0.07407407407407407,0,0,0.07407407407407407,28.074074074074073,0)" xlink:href="#bl"/><use transform="matrix(0.07407407407407407,0,0,0.07407407407407407,41.407407407407405,0)" xlink:href="#bm"/></g><path fill="#3a414a" d="M210-169c-67 3-38 105-44 169h-31v-121c0-29-5-50-35-48C34-165 62-65 56 0H25l-1-190h30c1 10-1 24 2 32 10-44 99-50 107 0 11-21 27-35 58-36 85-2 47 119 55 194h-31v-121c0-29-5-49-35-48" id="bs"/><path fill="#3a414a" d="M9 0v-24l116-142H16v-24h144v24L44-24h123V0H9" id="bt"/><g id="k"><use transform="matrix(0.07407407407407407,0,0,0.07407407407407407,0,0)" xlink:href="#bq"/><use transform="matrix(0.07407407407407407,0,0,0.07407407407407407,19.185185185185183,0)" xlink:href="#bi"/><use transform="matrix(0.07407407407407407,0,0,0.07407407407407407,34,0)" xlink:href="#bb"/><use transform="matrix(0.07407407407407407,0,0,0.07407407407407407,42.814814814814824,0)" xlink:href="#bs"/><use transform="matrix(0.07407407407407407,0,0,0.07407407407407407,64.96296296296296,0)" xlink:href="#bf"/><use transform="matrix(0.07407407407407407,0,0,0.07407407407407407,79.77777777777777,0)" xlink:href="#bo"/><use transform="matrix(0.07407407407407407,0,0,0.07407407407407407,85.62962962962962,0)" xlink:href="#ba"/><use transform="matrix(0.07407407407407407,0,0,0.07407407407407407,91.48148148148145,0)" xlink:href="#bt"/><use transform="matrix(0.07407407407407407,0,0,0.07407407407407407,104.8148148148148,0)" xlink:href="#bf"/><use transform="matrix(0.07407407407407407,0,0,0.07407407407407407,119.6296296296296,0)" xlink:href="#bm"/><use transform="matrix(0.07407407407407407,0,0,0.07407407407407407,127.03703703703701,0)" xlink:href="#ba"/><use transform="matrix(0.07407407407407407,0,0,0.07407407407407407,132.88888888888886,0)" xlink:href="#bi"/><use transform="matrix(0.07407407407407407,0,0,0.07407407407407407,147.70370370370367,0)" xlink:href="#aT"/></g><path fill="#3a414a" d="M195-6C206 82 75 100 31 46c-4-6-6-13-8-21l49-6c3 16 16 24 34 25 40 0 42-37 40-79-11 22-30 35-61 35-53 0-70-43-70-97 0-56 18-96 73-97 30 0 46 14 59 34l2-30h47zm-90-29c32 0 41-27 41-63 0-35-9-62-40-62-32 0-39 29-40 63 0 36 9 62 39 62" id="bu"/><path fill="#3a414a" d="M185-48c-13 30-37 53-82 52C43 2 14-33 14-96s30-98 90-98c62 0 83 45 84 108H66c0 31 8 55 39 56 18 0 30-7 34-22zm-45-69c5-46-57-63-70-21-2 6-4 13-4 21h74" id="bv"/><path fill="#3a414a" d="M135-194c87-1 58 113 63 194h-50c-7-57 23-157-34-157-59 0-34 97-39 157H25l-1-190h47c2 12-1 28 3 38 12-26 28-41 61-42" id="bw"/><path fill="#3a414a" d="M135-150c-39-12-60 13-60 57V0H25l-1-190h47c2 13-1 29 3 40 6-28 27-53 61-41v41" id="bx"/><path fill="#3a414a" d="M133-34C117-15 103 5 69 4 32 3 11-16 11-54c-1-60 55-63 116-61 1-26-3-47-28-47-18 1-26 9-28 27l-52-2c7-38 36-58 82-57s74 22 75 68l1 82c-1 14 12 18 25 15v27c-30 8-71 5-69-32zm-48 3c29 0 43-24 42-57-32 0-66-3-65 30 0 17 8 27 23 27" id="by"/><path fill="#3a414a" d="M115-3C79 11 28 4 28-45v-112H4v-33h27l15-45h31v45h36v33H77v99c-1 23 16 31 38 25v30" id="bz"/><path fill="#3a414a" d="M-4 44V30h207v14H-4" id="bA"/><path fill="#3a414a" d="M88-194c31-1 46 15 58 34l-1-101h50l1 261h-48c-2-10 0-23-3-31C134-8 116 4 84 4 32 4 16-41 15-95c0-56 19-97 73-99zm17 164c33 0 40-30 41-66 1-37-9-64-41-64s-38 30-39 65c0 43 13 65 39 65" id="bB"/><path fill="#3a414a" d="M137-138c1-29-70-34-71-4 15 46 118 7 119 86 1 83-164 76-172 9l43-7c4 19 20 25 44 25 33 8 57-30 24-41C81-84 22-81 20-136c-2-80 154-74 161-7" id="bC"/><path fill="#3a414a" d="M24 0v-54h51V0H24" id="bD"/><path fill="#3a414a" d="M135-194c53 0 70 44 70 98 0 56-19 98-73 100-31 1-45-17-59-34 3 33 2 69 2 105H25l-1-265h48c2 10 0 23 3 31 11-24 29-35 60-35zM114-30c33 0 39-31 40-66 0-38-9-64-40-64-56 0-55 130 0 130" id="bE"/><path fill="#3a414a" d="M123 10C108 53 80 86 19 72V37c35 8 53-11 59-39L3-190h52l48 148c12-52 28-100 44-148h51" id="bF"/><g id="l"><use transform="matrix(0.1419753086419752,0,0,0.1419753086419752,0,0)" xlink:href="#bu"/><use transform="matrix(0.1419753086419752,0,0,0.1419753086419752,31.092592592592567,0)" xlink:href="#bv"/><use transform="matrix(0.1419753086419752,0,0,0.1419753086419752,59.4876543209876,0)" xlink:href="#bw"/><use transform="matrix(0.1419753086419752,0,0,0.1419753086419752,90.58024691358017,0)" xlink:href="#bv"/><use transform="matrix(0.1419753086419752,0,0,0.1419753086419752,118.9753086419752,0)" xlink:href="#bx"/><use transform="matrix(0.1419753086419752,0,0,0.1419753086419752,138.85185185185173,0)" xlink:href="#by"/><use transform="matrix(0.1419753086419752,0,0,0.1419753086419752,167.24691358024677,0)" xlink:href="#bz"/><use transform="matrix(0.1419753086419752,0,0,0.1419753086419752,184.14197530864178,0)" xlink:href="#bv"/><use transform="matrix(0.1419753086419752,0,0,0.1419753086419752,212.53703703703684,0)" xlink:href="#bA"/><use transform="matrix(0.1419753086419752,0,0,0.1419753086419752,240.93209876543187,0)" xlink:href="#bB"/><use transform="matrix(0.1419753086419752,0,0,0.1419753086419752,272.0246913580244,0)" xlink:href="#by"/><use transform="matrix(0.1419753086419752,0,0,0.1419753086419752,300.41975308641946,0)" xlink:href="#bz"/><use transform="matrix(0.1419753086419752,0,0,0.1419753086419752,317.3148148148145,0)" xlink:href="#by"/><use transform="matrix(0.1419753086419752,0,0,0.1419753086419752,345.70987654320953,0)" xlink:href="#bC"/><use transform="matrix(0.1419753086419752,0,0,0.1419753086419752,374.10493827160457,0)" xlink:href="#bv"/><use transform="matrix(0.1419753086419752,0,0,0.1419753086419752,402.4999999999996,0)" xlink:href="#bz"/><use transform="matrix(0.1419753086419752,0,0,0.1419753086419752,419.39506172839464,0)" xlink:href="#bD"/><use transform="matrix(0.1419753086419752,0,0,0.1419753086419752,433.59259259259215,0)" xlink:href="#bE"/><use transform="matrix(0.1419753086419752,0,0,0.1419753086419752,464.6851851851847,0)" xlink:href="#bF"/></g><path fill="#333" d="M117-194c89-4 53 116 60 194h-32v-121c0-31-8-49-39-48C34-167 62-67 57 0H25l-1-190h30c1 10-1 24 2 32 11-22 29-35 61-36" id="bG"/><path fill="#333" d="M100-194c62-1 85 37 85 99 1 63-27 99-86 99S16-35 15-95c0-66 28-99 85-99zM99-20c44 1 53-31 53-75 0-43-8-75-51-75s-53 32-53 75 10 74 51 75" id="bH"/><path fill="#333" d="M114-163C36-179 61-72 57 0H25l-1-190h30c1 12-1 29 2 39 6-27 23-49 58-41v29" id="bI"/><path fill="#333" d="M210-169c-67 3-38 105-44 169h-31v-121c0-29-5-50-35-48C34-165 62-65 56 0H25l-1-190h30c1 10-1 24 2 32 10-44 99-50 107 0 11-21 27-35 58-36 85-2 47 119 55 194h-31v-121c0-29-5-49-35-48" id="bJ"/><path fill="#333" d="M141-36C126-15 110 5 73 4 37 3 15-17 15-53c-1-64 63-63 125-63 3-35-9-54-41-54-24 1-41 7-42 31l-33-3c5-37 33-52 76-52 45 0 72 20 72 64v82c-1 20 7 32 28 27v20c-31 9-61-2-59-35zM48-53c0 20 12 33 32 33 41-3 63-29 60-74-43 2-92-5-92 41" id="bK"/><path fill="#333" d="M24 0v-261h32V0H24" id="bL"/><path fill="#333" d="M24-231v-30h32v30H24zM24 0v-190h32V0H24" id="bM"/><path fill="#333" d="M9 0v-24l116-142H16v-24h144v24L44-24h123V0H9" id="bN"/><path fill="#333" d="M100-194c63 0 86 42 84 106H49c0 40 14 67 53 68 26 1 43-12 49-29l28 8c-11 28-37 45-77 45C44 4 14-33 15-96c1-61 26-98 85-98zm52 81c6-60-76-77-97-28-3 7-6 17-6 28h103" id="bO"/><path fill="#333" d="M85-194c31 0 48 13 60 33l-1-100h32l1 261h-30c-2-10 0-23-3-31C134-8 116 4 85 4 32 4 16-35 15-94c0-66 23-100 70-100zm9 24c-40 0-46 34-46 75 0 40 6 74 45 74 42 0 51-32 51-76 0-42-9-74-50-73" id="bP"/><g id="m"><use transform="matrix(0.06172839506172839,0,0,0.06172839506172839,0,0)" xlink:href="#bG"/><use transform="matrix(0.06172839506172839,0,0,0.06172839506172839,12.345679012345679,0)" xlink:href="#bH"/><use transform="matrix(0.06172839506172839,0,0,0.06172839506172839,24.691358024691358,0)" xlink:href="#bI"/><use transform="matrix(0.06172839506172839,0,0,0.06172839506172839,32.03703703703704,0)" xlink:href="#bJ"/><use transform="matrix(0.06172839506172839,0,0,0.06172839506172839,50.49382716049382,0)" xlink:href="#bK"/><use transform="matrix(0.06172839506172839,0,0,0.06172839506172839,62.8395061728395,0)" xlink:href="#bL"/><use transform="matrix(0.06172839506172839,0,0,0.06172839506172839,67.71604938271604,0)" xlink:href="#bM"/><use transform="matrix(0.06172839506172839,0,0,0.06172839506172839,72.59259259259258,0)" xlink:href="#bN"/><use transform="matrix(0.06172839506172839,0,0,0.06172839506172839,83.7037037037037,0)" xlink:href="#bO"/><use transform="matrix(0.06172839506172839,0,0,0.06172839506172839,96.04938271604938,0)" xlink:href="#bP"/></g><path fill="#333" d="M206 0h-36l-40-164L89 0H53L-1-190h32L70-26l43-164h34l41 164 42-164h31" id="bQ"/><g id="n"><use transform="matrix(0.06172839506172839,0,0,0.06172839506172839,0,0)" xlink:href="#bI"/><use transform="matrix(0.06172839506172839,0,0,0.06172839506172839,7.345679012345679,0)" xlink:href="#bK"/><use transform="matrix(0.06172839506172839,0,0,0.06172839506172839,19.691358024691358,0)" xlink:href="#bQ"/></g><path fill="#333" d="M84 4C-5 8 30-112 23-190h32v120c0 31 7 50 39 49 72-2 45-101 50-169h31l1 190h-30c-1-10 1-25-2-33-11 22-28 36-60 37" id="bR"/><path fill="#333" d="M59-47c-2 24 18 29 38 22v24C64 9 27 4 27-40v-127H5v-23h24l9-43h21v43h35v23H59v120" id="bS"/><path fill="#333" d="M96-169c-40 0-48 33-48 73s9 75 48 75c24 0 41-14 43-38l32 2c-6 37-31 61-74 61-59 0-76-41-82-99-10-93 101-131 147-64 4 7 5 14 7 22l-32 3c-4-21-16-35-41-35" id="bT"/><path fill="#333" d="M135-143c-3-34-86-38-87 0 15 53 115 12 119 90S17 21 10-45l28-5c4 36 97 45 98 0-10-56-113-15-118-90-4-57 82-63 122-42 12 7 21 19 24 35" id="bU"/><g id="o"><use transform="matrix(0.06172839506172839,0,0,0.06172839506172839,0,0)" xlink:href="#bR"/><use transform="matrix(0.06172839506172839,0,0,0.06172839506172839,12.345679012345679,0)" xlink:href="#bS"/><use transform="matrix(0.06172839506172839,0,0,0.06172839506172839,18.51851851851852,0)" xlink:href="#bS"/><use transform="matrix(0.06172839506172839,0,0,0.06172839506172839,24.691358024691358,0)" xlink:href="#bO"/><use transform="matrix(0.06172839506172839,0,0,0.06172839506172839,37.03703703703704,0)" xlink:href="#bI"/><use transform="matrix(0.06172839506172839,0,0,0.06172839506172839,44.382716049382715,0)" xlink:href="#bO"/><use transform="matrix(0.06172839506172839,0,0,0.06172839506172839,56.72839506172839,0)" xlink:href="#bG"/><use transform="matrix(0.06172839506172839,0,0,0.06172839506172839,69.07407407407408,0)" xlink:href="#bT"/><use transform="matrix(0.06172839506172839,0,0,0.06172839506172839,80.18518518518519,0)" xlink:href="#bO"/><use transform="matrix(0.06172839506172839,0,0,0.06172839506172839,92.53086419753087,0)" xlink:href="#bU"/></g><g id="p"><use transform="matrix(0.06172839506172839,0,0,0.06172839506172839,0,0)" xlink:href="#bG"/><use transform="matrix(0.06172839506172839,0,0,0.06172839506172839,12.345679012345679,0)" xlink:href="#bH"/><use transform="matrix(0.06172839506172839,0,0,0.06172839506172839,24.691358024691358,0)" xlink:href="#bI"/><use transform="matrix(0.06172839506172839,0,0,0.06172839506172839,32.03703703703704,0)" xlink:href="#bJ"/><use transform="matrix(0.06172839506172839,0,0,0.06172839506172839,50.49382716049382,0)" xlink:href="#bK"/><use transform="matrix(0.06172839506172839,0,0,0.06172839506172839,62.8395061728395,0)" xlink:href="#bL"/><use transform="matrix(0.06172839506172839,0,0,0.06172839506172839,67.71604938271604,0)" xlink:href="#bM"/><use transform="matrix(0.06172839506172839,0,0,0.06172839506172839,72.59259259259258,0)" xlink:href="#bN"/><use transform="matrix(0.06172839506172839,0,0,0.06172839506172839,83.7037037037037,0)" xlink:href="#bO"/><use transform="matrix(0.06172839506172839,0,0,0.06172839506172839,96.04938271604938,0)" xlink:href="#bP"/></g><path fill="#333" d="M0 4l72-265h28L28 4H0" id="bV"/><g id="q"><use transform="matrix(0.06172839506172839,0,0,0.06172839506172839,0,0)" xlink:href="#bQ"/><use transform="matrix(0.06172839506172839,0,0,0.06172839506172839,15.987654320987653,0)" xlink:href="#bV"/></g><path fill="#333" d="M115-194c55 1 70 41 70 98S169 2 115 4C84 4 66-9 55-30l1 105H24l-1-265h31l2 30c10-21 28-34 59-34zm-8 174c40 0 45-34 45-75s-6-73-45-74c-42 0-51 32-51 76 0 43 10 73 51 73" id="bW"/><g id="r"><use transform="matrix(0.06172839506172839,0,0,0.06172839506172839,0,0)" xlink:href="#bW"/><use transform="matrix(0.06172839506172839,0,0,0.06172839506172839,12.345679012345679,0)" xlink:href="#bR"/><use transform="matrix(0.06172839506172839,0,0,0.06172839506172839,24.691358024691358,0)" xlink:href="#bG"/><use transform="matrix(0.06172839506172839,0,0,0.06172839506172839,37.03703703703704,0)" xlink:href="#bT"/><use transform="matrix(0.06172839506172839,0,0,0.06172839506172839,48.14814814814815,0)" xlink:href="#bS"/><use transform="matrix(0.06172839506172839,0,0,0.06172839506172839,54.320987654320994,0)" xlink:href="#bR"/><use transform="matrix(0.06172839506172839,0,0,0.06172839506172839,66.66666666666667,0)" xlink:href="#bK"/><use transform="matrix(0.06172839506172839,0,0,0.06172839506172839,79.01234567901236,0)" xlink:href="#bS"/><use transform="matrix(0.06172839506172839,0,0,0.06172839506172839,85.18518518518519,0)" xlink:href="#bM"/><use transform="matrix(0.06172839506172839,0,0,0.06172839506172839,90.06172839506173,0)" xlink:href="#bH"/><use transform="matrix(0.06172839506172839,0,0,0.06172839506172839,102.40740740740742,0)" xlink:href="#bG"/></g><g id="s"><use transform="matrix(0.07407407407407407,0,0,0.07407407407407407,0,0)" xlink:href="#bc"/><use transform="matrix(0.07407407407407407,0,0,0.07407407407407407,17.77777777777778,0)" xlink:href="#aR"/><use transform="matrix(0.07407407407407407,0,0,0.07407407407407407,32.592592592592595,0)" xlink:href="#bo"/><use transform="matrix(0.07407407407407407,0,0,0.07407407407407407,38.44444444444444,0)" xlink:href="#ba"/><use transform="matrix(0.07407407407407407,0,0,0.07407407407407407,44.29629629629629,0)" xlink:href="#bm"/></g><g id="t"><use transform="matrix(0.07407407407407407,0,0,0.07407407407407407,0,0)" xlink:href="#bm"/><use transform="matrix(0.07407407407407407,0,0,0.07407407407407407,7.4074074074074066,0)" xlink:href="#aS"/><use transform="matrix(0.07407407407407407,0,0,0.07407407407407407,22.22222222222222,0)" xlink:href="#bl"/><use transform="matrix(0.07407407407407407,0,0,0.07407407407407407,35.55555555555556,0)" xlink:href="#bm"/></g><path fill="#3a414a" d="M115-194c53 0 69 39 70 98 0 66-23 100-70 100C84 3 66-7 56-30L54 0H23l1-261h32v101c10-23 28-34 59-34zm-8 174c40 0 45-34 45-75 0-40-5-75-45-74-42 0-51 32-51 76 0 43 10 73 51 73" id="bX"/><g id="u"><use transform="matrix(0.07407407407407407,0,0,0.07407407407407407,0,0)" xlink:href="#bX"/><use transform="matrix(0.07407407407407407,0,0,0.07407407407407407,14.814814814814813,0)" xlink:href="#bk"/></g><g id="v"><use transform="matrix(0.07407407407407407,0,0,0.07407407407407407,0,0)" xlink:href="#bg"/><use transform="matrix(0.07407407407407407,0,0,0.07407407407407407,14.814814814814813,0)" xlink:href="#bm"/><use transform="matrix(0.07407407407407407,0,0,0.07407407407407407,22.22222222222222,0)" xlink:href="#bm"/><use transform="matrix(0.07407407407407407,0,0,0.07407407407407407,29.629629629629626,0)" xlink:href="#aS"/><use transform="matrix(0.07407407407407407,0,0,0.07407407407407407,44.44444444444444,0)" xlink:href="#bb"/><use transform="matrix(0.07407407407407407,0,0,0.07407407407407407,53.25925925925926,0)" xlink:href="#aS"/><use transform="matrix(0.07407407407407407,0,0,0.07407407407407407,68.07407407407408,0)" xlink:href="#aT"/><use transform="matrix(0.07407407407407407,0,0,0.07407407407407407,82.88888888888889,0)" xlink:href="#bp"/><use transform="matrix(0.07407407407407407,0,0,0.07407407407407407,96.22222222222221,0)" xlink:href="#aS"/></g><path fill="#3a414a" d="M212-179c-10-28-35-45-73-45-59 0-87 40-87 99 0 60 29 101 89 101 43 0 62-24 78-52l27 14C228-24 195 4 139 4 59 4 22-46 18-125c-6-104 99-153 187-111 19 9 31 26 39 46" id="bY"/><g id="w"><use transform="matrix(0.07407407407407407,0,0,0.07407407407407407,0,0)" xlink:href="#bY"/><use transform="matrix(0.07407407407407407,0,0,0.07407407407407407,19.185185185185183,0)" xlink:href="#bd"/><use transform="matrix(0.07407407407407407,0,0,0.07407407407407407,35.407407407407405,0)" xlink:href="#bY"/></g><path fill="#3a414a" d="M177-190C167-65 218 103 67 71c-23-6-38-20-44-43l32-5c15 47 100 32 89-28v-30C133-14 115 1 83 1 29 1 15-40 15-95c0-56 16-97 71-98 29-1 48 16 59 35 1-10 0-23 2-32h30zM94-22c36 0 50-32 50-73 0-42-14-75-50-75-39 0-46 34-46 75s6 73 46 73" id="bZ"/><g id="x"><use transform="matrix(0.07407407407407407,0,0,0.07407407407407407,0,0)" xlink:href="#bc"/><use transform="matrix(0.07407407407407407,0,0,0.07407407407407407,17.77777777777778,0)" xlink:href="#aS"/><use transform="matrix(0.07407407407407407,0,0,0.07407407407407407,32.592592592592595,0)" xlink:href="#bZ"/><use transform="matrix(0.07407407407407407,0,0,0.07407407407407407,47.407407407407405,0)" xlink:href="#bs"/><use transform="matrix(0.07407407407407407,0,0,0.07407407407407407,69.55555555555554,0)" xlink:href="#aS"/><use transform="matrix(0.07407407407407407,0,0,0.07407407407407407,84.37037037037035,0)" xlink:href="#aT"/><use transform="matrix(0.07407407407407407,0,0,0.07407407407407407,99.18518518518516,0)" xlink:href="#bm"/><use transform="matrix(0.07407407407407407,0,0,0.07407407407407407,106.59259259259257,0)" xlink:href="#bf"/><use transform="matrix(0.07407407407407407,0,0,0.07407407407407407,121.40740740740739,0)" xlink:href="#bm"/><use transform="matrix(0.07407407407407407,0,0,0.07407407407407407,128.81481481481478,0)" xlink:href="#ba"/><use transform="matrix(0.07407407407407407,0,0,0.07407407407407407,134.66666666666663,0)" xlink:href="#bi"/><use transform="matrix(0.07407407407407407,0,0,0.07407407407407407,149.48148148148144,0)" xlink:href="#aT"/></g><g id="y"><use transform="matrix(0.07407407407407407,0,0,0.07407407407407407,0,0)" xlink:href="#bf"/><use transform="matrix(0.07407407407407407,0,0,0.07407407407407407,14.814814814814813,0)" xlink:href="#bg"/><use transform="matrix(0.07407407407407407,0,0,0.07407407407407407,29.629629629629626,0)" xlink:href="#bh"/><use transform="matrix(0.07407407407407407,0,0,0.07407407407407407,44.44444444444444,0)" xlink:href="#ba"/><use transform="matrix(0.07407407407407407,0,0,0.07407407407407407,50.29629629629629,0)" xlink:href="#bi"/></g><g id="z"><use transform="matrix(0.07407407407407407,0,0,0.07407407407407407,0,0)" xlink:href="#ba"/><use transform="matrix(0.07407407407407407,0,0,0.07407407407407407,5.851851851851851,0)" xlink:href="#aT"/><use transform="matrix(0.07407407407407407,0,0,0.07407407407407407,20.666666666666664,0)" xlink:href="#bm"/><use transform="matrix(0.07407407407407407,0,0,0.07407407407407407,28.07407407407407,0)" xlink:href="#bi"/></g><g id="A"><use transform="matrix(0.07407407407407407,0,0,0.07407407407407407,0,0)" xlink:href="#bp"/><use transform="matrix(0.07407407407407407,0,0,0.07407407407407407,13.333333333333332,0)" xlink:href="#bo"/><use transform="matrix(0.07407407407407407,0,0,0.07407407407407407,19.185185185185183,0)" xlink:href="#ba"/><use transform="matrix(0.07407407407407407,0,0,0.07407407407407407,25.037037037037035,0)" xlink:href="#aR"/><use transform="matrix(0.07407407407407407,0,0,0.07407407407407407,39.85185185185185,0)" xlink:href="#aX"/></g><path fill="#333" d="M30 0v-248h187v28H63v79h144v27H63v87h162V0H30" id="ca"/><path fill="#333" d="M106-169C34-169 62-67 57 0H25v-261h32l-1 103c12-21 28-36 61-36 89 0 53 116 60 194h-32v-121c2-32-8-49-39-48" id="cb"/><path fill="#333" d="M140-251c81 0 123 46 123 126C263-46 219 4 140 4 59 4 17-45 17-125s42-126 123-126zm0 227c63 0 89-41 89-101s-29-99-89-99c-61 0-89 39-89 99S79-25 140-24" id="cc"/><g id="B"><use transform="matrix(0.06172839506172839,0,0,0.06172839506172839,0,0)" xlink:href="#ca"/><use transform="matrix(0.06172839506172839,0,0,0.06172839506172839,14.814814814814813,0)" xlink:href="#bM"/><use transform="matrix(0.06172839506172839,0,0,0.06172839506172839,19.691358024691354,0)" xlink:href="#bS"/><use transform="matrix(0.06172839506172839,0,0,0.06172839506172839,25.864197530864192,0)" xlink:href="#cb"/><use transform="matrix(0.06172839506172839,0,0,0.06172839506172839,38.20987654320987,0)" xlink:href="#bO"/><use transform="matrix(0.06172839506172839,0,0,0.06172839506172839,50.55555555555555,0)" xlink:href="#bI"/><use transform="matrix(0.06172839506172839,0,0,0.06172839506172839,57.90123456790123,0)" xlink:href="#bV"/><use transform="matrix(0.06172839506172839,0,0,0.06172839506172839,64.07407407407406,0)" xlink:href="#cc"/><use transform="matrix(0.06172839506172839,0,0,0.06172839506172839,81.35802469135801,0)" xlink:href="#bI"/></g><path fill="#333" d="M24-248c120-7 223 5 221 122C244-46 201 0 124 0H24v-248zM76-40c74 7 117-18 117-86 0-67-45-88-117-82v168" id="cd"/><path fill="#333" d="M133-34C117-15 103 5 69 4 32 3 11-16 11-54c-1-60 55-63 116-61 1-26-3-47-28-47-18 1-26 9-28 27l-52-2c7-38 36-58 82-57s74 22 75 68l1 82c-1 14 12 18 25 15v27c-30 8-71 5-69-32zm-48 3c29 0 43-24 42-57-32 0-66-3-65 30 0 17 8 27 23 27" id="ce"/><path fill="#333" d="M115-3C79 11 28 4 28-45v-112H4v-33h27l15-45h31v45h36v33H77v99c-1 23 16 31 38 25v30" id="cf"/><path fill="#333" d="M137-138c1-29-70-34-71-4 15 46 118 7 119 86 1 83-164 76-172 9l43-7c4 19 20 25 44 25 33 8 57-30 24-41C81-84 22-81 20-136c-2-80 154-74 161-7" id="cg"/><path fill="#333" d="M185-48c-13 30-37 53-82 52C43 2 14-33 14-96s30-98 90-98c62 0 83 45 84 108H66c0 31 8 55 39 56 18 0 30-7 34-22zm-45-69c5-46-57-63-70-21-2 6-4 13-4 21h74" id="ch"/><g id="C"><use transform="matrix(0.08024691358024691,0,0,0.08024691358024691,0,0)" xlink:href="#cd"/><path fill="#8080ff" d="M-1.44 1.55h23.67v3.03H-1.44z"/><use transform="matrix(0.08024691358024691,0,0,0.08024691358024691,20.78395061728395,0)" xlink:href="#ce"/><use transform="matrix(0.08024691358024691,0,0,0.08024691358024691,36.83333333333333,0)" xlink:href="#cf"/><use transform="matrix(0.08024691358024691,0,0,0.08024691358024691,46.3827160493827,0)" xlink:href="#ce"/><use transform="matrix(0.08024691358024691,0,0,0.08024691358024691,62.43209876543209,0)" xlink:href="#cg"/><use transform="matrix(0.08024691358024691,0,0,0.08024691358024691,78.48148148148147,0)" xlink:href="#ch"/><use transform="matrix(0.08024691358024691,0,0,0.08024691358024691,94.53086419753085,0)" xlink:href="#cf"/></g><path fill="#333" d="M33 0v-38h34V0H33" id="ci"/><path fill="#333" d="M108 0H70L1-190h34L89-25l56-165h34" id="cj"/><g id="D"><use transform="matrix(0.06172839506172839,0,0,0.06172839506172839,0,0)" xlink:href="#bJ"/><use transform="matrix(0.06172839506172839,0,0,0.06172839506172839,18.456790123456788,0)" xlink:href="#bO"/><use transform="matrix(0.06172839506172839,0,0,0.06172839506172839,30.80246913580247,0)" xlink:href="#bS"/><use transform="matrix(0.06172839506172839,0,0,0.06172839506172839,36.97530864197531,0)" xlink:href="#bK"/><use transform="matrix(0.06172839506172839,0,0,0.06172839506172839,49.32098765432099,0)" xlink:href="#bP"/><use transform="matrix(0.06172839506172839,0,0,0.06172839506172839,61.666666666666664,0)" xlink:href="#bK"/><use transform="matrix(0.06172839506172839,0,0,0.06172839506172839,74.01234567901234,0)" xlink:href="#bS"/><use transform="matrix(0.06172839506172839,0,0,0.06172839506172839,80.18518518518518,0)" xlink:href="#bK"/><use transform="matrix(0.06172839506172839,0,0,0.06172839506172839,92.53086419753086,0)" xlink:href="#ci"/><use transform="matrix(0.06172839506172839,0,0,0.06172839506172839,98.7037037037037,0)" xlink:href="#bT"/><use transform="matrix(0.06172839506172839,0,0,0.06172839506172839,109.81481481481481,0)" xlink:href="#bU"/><use transform="matrix(0.06172839506172839,0,0,0.06172839506172839,120.92592592592592,0)" xlink:href="#cj"/><path fill="#8080ff" d="M-1.1 1.54h134.25v1.63H-1.1z"/></g><path fill="#333" d="M234-2c-28 10-62 0-77-18C117 19 8 12 13-65c3-43 29-61 60-76-25-40-17-114 47-108 35 3 59 15 59 50 0 44-40 53-71 69 14 26 32 50 51 72 14-21 24-43 30-72l26 8c-9 33-21 57-38 82 13 13 33 22 57 15v23zM97-151c25-10 52-18 56-48-1-18-13-29-33-29-42 0-39 50-23 77zM42-66c-3 51 71 58 98 28-20-24-41-51-56-80-23 10-40 24-42 52" id="ck"/><use transform="matrix(0.06172839506172839,0,0,0.06172839506172839,0,0)" xlink:href="#ck" id="E"/><g id="F"><use transform="matrix(0.06172839506172839,0,0,0.06172839506172839,0,0)" xlink:href="#bT"/><use transform="matrix(0.06172839506172839,0,0,0.06172839506172839,11.11111111111111,0)" xlink:href="#bL"/><use transform="matrix(0.06172839506172839,0,0,0.06172839506172839,15.987654320987653,0)" xlink:href="#bM"/><use transform="matrix(0.06172839506172839,0,0,0.06172839506172839,20.864197530864196,0)" xlink:href="#bW"/><use transform="matrix(0.06172839506172839,0,0,0.06172839506172839,33.20987654320987,0)" xlink:href="#bU"/></g><path fill="#3a414a" d="M233-177c-1 41-23 64-60 70L243 0h-38l-65-103H63V0H30v-248c88 3 205-21 203 71zM63-129c60-2 137 13 137-47 0-61-80-42-137-45v92" id="cl"/><path fill="#3a414a" d="M206 0h-36l-40-164L89 0H53L-1-190h32L70-26l43-164h34l41 164 42-164h31" id="cm"/><g id="G"><use transform="matrix(0.06172839506172839,0,0,0.06172839506172839,0,0)" xlink:href="#cl"/><use transform="matrix(0.06172839506172839,0,0,0.06172839506172839,15.987654320987653,0)" xlink:href="#bf"/><use transform="matrix(0.06172839506172839,0,0,0.06172839506172839,28.333333333333332,0)" xlink:href="#cm"/></g><path fill="#3a414a" d="M137 0h-34L2-248h35l83 218 83-218h36" id="cn"/><g id="H"><use transform="matrix(0.06172839506172839,0,0,0.06172839506172839,0,0)" xlink:href="#aY"/><use transform="matrix(0.06172839506172839,0,0,0.06172839506172839,20.123456790123456,0)" xlink:href="#aU"/><use transform="matrix(0.06172839506172839,0,0,0.06172839506172839,33.2716049382716,0)" xlink:href="#cn"/></g><g id="I"><use transform="matrix(0.06172839506172839,0,0,0.06172839506172839,0,0)" xlink:href="#be"/><use transform="matrix(0.06172839506172839,0,0,0.06172839506172839,6.172839506172839,0)" xlink:href="#ba"/><use transform="matrix(0.06172839506172839,0,0,0.06172839506172839,11.049382716049383,0)" xlink:href="#bo"/><use transform="matrix(0.06172839506172839,0,0,0.06172839506172839,15.925925925925926,0)" xlink:href="#aS"/></g><path fill="#3a414a" d="M137-103V0h-34v-103L8-248h37l75 118 75-118h37" id="co"/><g id="J"><use transform="matrix(0.06172839506172839,0,0,0.06172839506172839,0,0)" xlink:href="#co"/><use transform="matrix(0.06172839506172839,0,0,0.06172839506172839,12.777777777777777,0)" xlink:href="#bi"/><use transform="matrix(0.06172839506172839,0,0,0.06172839506172839,25.123456790123456,0)" xlink:href="#bg"/><use transform="matrix(0.06172839506172839,0,0,0.06172839506172839,37.46913580246913,0)" xlink:href="#bm"/><use transform="matrix(0.06172839506172839,0,0,0.06172839506172839,43.641975308641975,0)" xlink:href="#bg"/><use transform="matrix(0.06172839506172839,0,0,0.06172839506172839,55.98765432098765,0)" xlink:href="#bX"/><use transform="matrix(0.06172839506172839,0,0,0.06172839506172839,68.33333333333333,0)" xlink:href="#aS"/></g><path fill="#3a414a" d="M30-248c118-7 216 8 213 122C240-48 200 0 122 0H30v-248zM63-27c89 8 146-16 146-99s-60-101-146-95v194" id="cp"/><g id="K"><use transform="matrix(0.06172839506172839,0,0,0.06172839506172839,0,0)" xlink:href="#cp"/><use transform="matrix(0.06172839506172839,0,0,0.06172839506172839,15.987654320987653,0)" xlink:href="#bi"/><use transform="matrix(0.06172839506172839,0,0,0.06172839506172839,28.333333333333332,0)" xlink:href="#cm"/><use transform="matrix(0.06172839506172839,0,0,0.06172839506172839,44.32098765432099,0)" xlink:href="#aT"/><use transform="matrix(0.06172839506172839,0,0,0.06172839506172839,56.666666666666664,0)" xlink:href="#bo"/><use transform="matrix(0.06172839506172839,0,0,0.06172839506172839,61.54320987654321,0)" xlink:href="#bi"/><use transform="matrix(0.06172839506172839,0,0,0.06172839506172839,73.88888888888889,0)" xlink:href="#bf"/><use transform="matrix(0.06172839506172839,0,0,0.06172839506172839,86.23456790123457,0)" xlink:href="#bh"/><use transform="matrix(0.06172839506172839,0,0,0.06172839506172839,98.58024691358025,0)" xlink:href="#aS"/><use transform="matrix(0.06172839506172839,0,0,0.06172839506172839,110.92592592592594,0)" xlink:href="#bb"/></g><g id="L"><use transform="matrix(0.06172839506172839,0,0,0.06172839506172839,0,0)" xlink:href="#bn"/><use transform="matrix(0.06172839506172839,0,0,0.06172839506172839,18.456790123456788,0)" xlink:href="#bf"/><use transform="matrix(0.06172839506172839,0,0,0.06172839506172839,30.80246913580247,0)" xlink:href="#aT"/><use transform="matrix(0.06172839506172839,0,0,0.06172839506172839,43.148148148148145,0)" xlink:href="#aT"/><use transform="matrix(0.06172839506172839,0,0,0.06172839506172839,55.49382716049382,0)" xlink:href="#bg"/><use transform="matrix(0.06172839506172839,0,0,0.06172839506172839,67.8395061728395,0)" xlink:href="#bf"/><use transform="matrix(0.06172839506172839,0,0,0.06172839506172839,80.18518518518519,0)" xlink:href="#bo"/><use transform="matrix(0.06172839506172839,0,0,0.06172839506172839,85.06172839506173,0)" xlink:href="#bo"/><use transform="matrix(0.06172839506172839,0,0,0.06172839506172839,89.93827160493828,0)" xlink:href="#bk"/></g><g id="M"><use transform="matrix(0.06172839506172839,0,0,0.06172839506172839,0,0)" xlink:href="#bc"/><use transform="matrix(0.06172839506172839,0,0,0.06172839506172839,14.814814814814813,0)" xlink:href="#bi"/><use transform="matrix(0.06172839506172839,0,0,0.06172839506172839,27.160493827160494,0)" xlink:href="#bg"/><use transform="matrix(0.06172839506172839,0,0,0.06172839506172839,39.50617283950617,0)" xlink:href="#bb"/><use transform="matrix(0.06172839506172839,0,0,0.06172839506172839,46.85185185185185,0)" xlink:href="#bp"/><use transform="matrix(0.06172839506172839,0,0,0.06172839506172839,57.96296296296296,0)" xlink:href="#aS"/><use transform="matrix(0.06172839506172839,0,0,0.06172839506172839,70.30864197530865,0)" xlink:href="#bh"/></g><g id="N"><use transform="matrix(0.07407407407407407,0,0,0.07407407407407407,0,0)" xlink:href="#cn"/><use transform="matrix(0.07407407407407407,0,0,0.07407407407407407,16.296296296296298,0)" xlink:href="#bi"/><use transform="matrix(0.07407407407407407,0,0,0.07407407407407407,31.11111111111111,0)" xlink:href="#ba"/><use transform="matrix(0.07407407407407407,0,0,0.07407407407407407,36.96296296296296,0)" xlink:href="#bp"/><use transform="matrix(0.07407407407407407,0,0,0.07407407407407407,50.29629629629629,0)" xlink:href="#aS"/></g><g id="O"><use transform="matrix(0.07407407407407407,0,0,0.07407407407407407,0,0)" xlink:href="#cp"/><use transform="matrix(0.07407407407407407,0,0,0.07407407407407407,19.185185185185183,0)" xlink:href="#aS"/><use transform="matrix(0.07407407407407407,0,0,0.07407407407407407,34,0)" xlink:href="#bm"/><use transform="matrix(0.07407407407407407,0,0,0.07407407407407407,41.407407407407405,0)" xlink:href="#aS"/><use transform="matrix(0.07407407407407407,0,0,0.07407407407407407,56.22222222222221,0)" xlink:href="#bp"/><use transform="matrix(0.07407407407407407,0,0,0.07407407407407407,69.55555555555554,0)" xlink:href="#bm"/><use transform="matrix(0.07407407407407407,0,0,0.07407407407407407,76.96296296296295,0)" xlink:href="#ba"/><use transform="matrix(0.07407407407407407,0,0,0.07407407407407407,82.8148148148148,0)" xlink:href="#bi"/><use transform="matrix(0.07407407407407407,0,0,0.07407407407407407,97.6296296296296,0)" xlink:href="#aT"/></g><path fill="#3a414a" d="M87 75C49 33 22-17 22-94c0-76 28-126 65-167h31c-38 41-64 92-64 168S80 34 118 75H87" id="cq"/><path fill="#3a414a" d="M33-261c38 41 65 92 65 168S71 34 33 75H2C39 34 66-17 66-93S39-220 2-261h31" id="cr"/><g id="P"><use transform="matrix(0.07407407407407407,0,0,0.07407407407407407,0,0)" xlink:href="#cq"/><use transform="matrix(0.07407407407407407,0,0,0.07407407407407407,8.814814814814815,0)" xlink:href="#cn"/><use transform="matrix(0.07407407407407407,0,0,0.07407407407407407,24.592592592592595,0)" xlink:href="#aU"/><use transform="matrix(0.07407407407407407,0,0,0.07407407407407407,42.370370370370374,0)" xlink:href="#cp"/><use transform="matrix(0.07407407407407407,0,0,0.07407407407407407,61.55555555555556,0)" xlink:href="#cr"/></g><path fill="#3a414a" d="M108 0H70L1-190h34L89-25l56-165h34" id="cs"/><g id="Q"><use transform="matrix(0.07407407407407407,0,0,0.07407407407407407,0,0)" xlink:href="#cl"/><use transform="matrix(0.07407407407407407,0,0,0.07407407407407407,19.185185185185183,0)" xlink:href="#aS"/><use transform="matrix(0.07407407407407407,0,0,0.07407407407407407,34,0)" xlink:href="#bs"/><use transform="matrix(0.07407407407407407,0,0,0.07407407407407407,56.148148148148145,0)" xlink:href="#bi"/><use transform="matrix(0.07407407407407407,0,0,0.07407407407407407,70.96296296296296,0)" xlink:href="#cs"/><use transform="matrix(0.07407407407407407,0,0,0.07407407407407407,84.29629629629629,0)" xlink:href="#aS"/></g><g id="R"><use transform="matrix(0.07407407407407407,0,0,0.07407407407407407,0,0)" xlink:href="#aQ"/><use transform="matrix(0.07407407407407407,0,0,0.07407407407407407,20.74074074074074,0)" xlink:href="#cs"/><use transform="matrix(0.07407407407407407,0,0,0.07407407407407407,34.074074074074076,0)" xlink:href="#aS"/><use transform="matrix(0.07407407407407407,0,0,0.07407407407407407,48.888888888888886,0)" xlink:href="#bb"/><use transform="matrix(0.07407407407407407,0,0,0.07407407407407407,57.7037037037037,0)" xlink:href="#bo"/><use transform="matrix(0.07407407407407407,0,0,0.07407407407407407,63.55555555555556,0)" xlink:href="#bf"/><use transform="matrix(0.07407407407407407,0,0,0.07407407407407407,78.37037037037037,0)" xlink:href="#aR"/></g><g id="S"><use transform="matrix(0.07407407407407407,0,0,0.07407407407407407,0,0)" xlink:href="#cn"/><use transform="matrix(0.07407407407407407,0,0,0.07407407407407407,16.296296296296298,0)" xlink:href="#aS"/><use transform="matrix(0.07407407407407407,0,0,0.07407407407407407,31.11111111111111,0)" xlink:href="#bb"/><use transform="matrix(0.07407407407407407,0,0,0.07407407407407407,39.925925925925924,0)" xlink:href="#ba"/><use transform="matrix(0.07407407407407407,0,0,0.07407407407407407,45.77777777777778,0)" xlink:href="#be"/><use transform="matrix(0.07407407407407407,0,0,0.07407407407407407,53.185185185185176,0)" xlink:href="#bk"/></g><path fill="#3a414a" d="M143 0L79-87 56-68V0H24v-261h32v163l83-92h37l-77 82L181 0h-38" id="ct"/><g id="T"><use transform="matrix(0.07407407407407407,0,0,0.07407407407407407,0,0)" xlink:href="#bc"/><use transform="matrix(0.07407407407407407,0,0,0.07407407407407407,17.77777777777778,0)" xlink:href="#aR"/><use transform="matrix(0.07407407407407407,0,0,0.07407407407407407,32.592592592592595,0)" xlink:href="#aS"/><use transform="matrix(0.07407407407407407,0,0,0.07407407407407407,47.407407407407405,0)" xlink:href="#bf"/><use transform="matrix(0.07407407407407407,0,0,0.07407407407407407,62.22222222222221,0)" xlink:href="#ct"/><use transform="matrix(0.07407407407407407,0,0,0.07407407407407407,75.55555555555554,0)" xlink:href="#aS"/><use transform="matrix(0.07407407407407407,0,0,0.07407407407407407,90.37037037037035,0)" xlink:href="#bb"/><use transform="matrix(0.07407407407407407,0,0,0.07407407407407407,99.18518518518516,0)" xlink:href="#aX"/></g><g id="U"><use transform="matrix(0.07407407407407407,0,0,0.07407407407407407,0,0)" xlink:href="#bq"/><use transform="matrix(0.07407407407407407,0,0,0.07407407407407407,19.185185185185183,0)" xlink:href="#bi"/><use transform="matrix(0.07407407407407407,0,0,0.07407407407407407,34,0)" xlink:href="#bb"/><use transform="matrix(0.07407407407407407,0,0,0.07407407407407407,42.814814814814824,0)" xlink:href="#bs"/><use transform="matrix(0.07407407407407407,0,0,0.07407407407407407,64.96296296296296,0)" xlink:href="#bf"/><use transform="matrix(0.07407407407407407,0,0,0.07407407407407407,79.77777777777777,0)" xlink:href="#bo"/><use transform="matrix(0.07407407407407407,0,0,0.07407407407407407,85.62962962962962,0)" xlink:href="#ba"/><use transform="matrix(0.07407407407407407,0,0,0.07407407407407407,91.48148148148145,0)" xlink:href="#bt"/><use transform="matrix(0.07407407407407407,0,0,0.07407407407407407,104.8148148148148,0)" xlink:href="#bf"/><use transform="matrix(0.07407407407407407,0,0,0.07407407407407407,119.6296296296296,0)" xlink:href="#bm"/><use transform="matrix(0.07407407407407407,0,0,0.07407407407407407,127.03703703703701,0)" xlink:href="#ba"/><use transform="matrix(0.07407407407407407,0,0,0.07407407407407407,132.88888888888886,0)" xlink:href="#bi"/><use transform="matrix(0.07407407407407407,0,0,0.07407407407407407,147.70370370370367,0)" xlink:href="#aT"/></g><g id="V"><use transform="matrix(0.07407407407407407,0,0,0.07407407407407407,0,0)" xlink:href="#bc"/><use transform="matrix(0.07407407407407407,0,0,0.07407407407407407,17.77777777777778,0)" xlink:href="#aS"/><use transform="matrix(0.07407407407407407,0,0,0.07407407407407407,32.592592592592595,0)" xlink:href="#bm"/></g><g id="W"><use transform="matrix(0.07407407407407407,0,0,0.07407407407407407,0,0)" xlink:href="#aU"/><use transform="matrix(0.07407407407407407,0,0,0.07407407407407407,17.77777777777778,0)" xlink:href="#bg"/><use transform="matrix(0.07407407407407407,0,0,0.07407407407407407,32.592592592592595,0)" xlink:href="#bh"/><use transform="matrix(0.07407407407407407,0,0,0.07407407407407407,47.407407407407405,0)" xlink:href="#ba"/><use transform="matrix(0.07407407407407407,0,0,0.07407407407407407,53.25925925925926,0)" xlink:href="#bi"/></g><g id="X"><use transform="matrix(0.07407407407407407,0,0,0.07407407407407407,0,0)" xlink:href="#aQ"/><use transform="matrix(0.07407407407407407,0,0,0.07407407407407407,20.74074074074074,0)" xlink:href="#bg"/><use transform="matrix(0.07407407407407407,0,0,0.07407407407407407,35.55555555555556,0)" xlink:href="#bm"/><use transform="matrix(0.07407407407407407,0,0,0.07407407407407407,42.96296296296296,0)" xlink:href="#aR"/><use transform="matrix(0.07407407407407407,0,0,0.07407407407407407,57.77777777777777,0)" xlink:href="#bg"/><use transform="matrix(0.07407407407407407,0,0,0.07407407407407407,72.59259259259258,0)" xlink:href="#bm"/></g><path fill="#3a414a" d="M30-248c87 1 191-15 191 75 0 78-77 80-158 76V0H30v-248zm33 125c57 0 124 11 124-50 0-59-68-47-124-48v98" id="cu"/><g id="Y"><use transform="matrix(0.07407407407407407,0,0,0.07407407407407407,0,0)" xlink:href="#cu"/><use transform="matrix(0.07407407407407407,0,0,0.07407407407407407,17.77777777777778,0)" xlink:href="#bf"/><use transform="matrix(0.07407407407407407,0,0,0.07407407407407407,32.592592592592595,0)" xlink:href="#bb"/><use transform="matrix(0.07407407407407407,0,0,0.07407407407407407,41.40740740740741,0)" xlink:href="#bf"/><use transform="matrix(0.07407407407407407,0,0,0.07407407407407407,56.22222222222223,0)" xlink:href="#bs"/><use transform="matrix(0.07407407407407407,0,0,0.07407407407407407,78.37037037037038,0)" xlink:href="#aS"/><use transform="matrix(0.07407407407407407,0,0,0.07407407407407407,93.18518518518519,0)" xlink:href="#bm"/><use transform="matrix(0.07407407407407407,0,0,0.07407407407407407,100.59259259259258,0)" xlink:href="#aS"/><use transform="matrix(0.07407407407407407,0,0,0.07407407407407407,115.4074074074074,0)" xlink:href="#bb"/><use transform="matrix(0.07407407407407407,0,0,0.07407407407407407,124.22222222222221,0)" xlink:href="#aX"/></g><g id="Z"><use transform="matrix(0.07407407407407407,0,0,0.07407407407407407,0,0)" xlink:href="#bq"/><use transform="matrix(0.07407407407407407,0,0,0.07407407407407407,19.185185185185183,0)" xlink:href="#bi"/><use transform="matrix(0.07407407407407407,0,0,0.07407407407407407,34,0)" xlink:href="#ba"/><use transform="matrix(0.07407407407407407,0,0,0.07407407407407407,39.85185185185185,0)" xlink:href="#aX"/><use transform="matrix(0.07407407407407407,0,0,0.07407407407407407,53.185185185185176,0)" xlink:href="#aS"/></g><g id="aa"><use transform="matrix(0.07407407407407407,0,0,0.07407407407407407,0,0)" xlink:href="#cl"/><use transform="matrix(0.07407407407407407,0,0,0.07407407407407407,19.185185185185183,0)" xlink:href="#aS"/><use transform="matrix(0.07407407407407407,0,0,0.07407407407407407,34,0)" xlink:href="#bh"/><use transform="matrix(0.07407407407407407,0,0,0.07407407407407407,48.81481481481481,0)" xlink:href="#bg"/><use transform="matrix(0.07407407407407407,0,0,0.07407407407407407,63.62962962962962,0)" xlink:href="#bp"/><use transform="matrix(0.07407407407407407,0,0,0.07407407407407407,76.96296296296295,0)" xlink:href="#bm"/><use transform="matrix(0.07407407407407407,0,0,0.07407407407407407,84.37037037037035,0)" xlink:href="#ba"/><use transform="matrix(0.07407407407407407,0,0,0.07407407407407407,90.2222222222222,0)" xlink:href="#bi"/><use transform="matrix(0.07407407407407407,0,0,0.07407407407407407,105.03703703703701,0)" xlink:href="#aT"/></g><g id="ab"><use transform="matrix(0.06172839506172834,0,0,0.06172839506172834,0,0)" xlink:href="#cl"/><use transform="matrix(0.06172839506172834,0,0,0.06172839506172834,15.987654320987641,0)" xlink:href="#aS"/><use transform="matrix(0.06172839506172834,0,0,0.06172839506172834,28.333333333333307,0)" xlink:href="#bs"/><use transform="matrix(0.06172839506172834,0,0,0.06172839506172834,46.790123456790084,0)" xlink:href="#bi"/><use transform="matrix(0.06172839506172834,0,0,0.06172839506172834,59.135802469135754,0)" xlink:href="#cs"/><use transform="matrix(0.06172839506172834,0,0,0.06172839506172834,70.24691358024685,0)" xlink:href="#aS"/></g><path fill="#3a414a" d="M68-38c1 34 0 65-14 84H32c9-13 17-26 17-46H33v-38h35" id="cv"/><g id="ac"><use transform="matrix(0.06172839506172834,0,0,0.06172839506172834,0,0)" xlink:href="#bs"/><use transform="matrix(0.06172839506172834,0,0,0.06172839506172834,18.456790123456774,0)" xlink:href="#bg"/><use transform="matrix(0.06172839506172834,0,0,0.06172839506172834,30.80246913580244,0)" xlink:href="#aX"/><use transform="matrix(0.06172839506172834,0,0,0.06172839506172834,41.91358024691354,0)" xlink:href="#ba"/><use transform="matrix(0.06172839506172834,0,0,0.06172839506172834,46.79012345679008,0)" xlink:href="#bp"/><use transform="matrix(0.06172839506172834,0,0,0.06172839506172834,57.90123456790118,0)" xlink:href="#cv"/></g><g id="ad"><use transform="matrix(0.06172839506172834,0,0,0.06172839506172834,0,0)" xlink:href="#aS"/><use transform="matrix(0.06172839506172834,0,0,0.06172839506172834,12.345679012345668,0)" xlink:href="#bm"/><use transform="matrix(0.06172839506172834,0,0,0.06172839506172834,18.5185185185185,0)" xlink:href="#bp"/></g><g id="ae"><use transform="matrix(0.06172839506172834,0,0,0.06172839506172834,0,0)" xlink:href="#cl"/><use transform="matrix(0.06172839506172834,0,0,0.06172839506172834,15.987654320987641,0)" xlink:href="#aS"/><use transform="matrix(0.06172839506172834,0,0,0.06172839506172834,28.333333333333307,0)" xlink:href="#bs"/><use transform="matrix(0.06172839506172834,0,0,0.06172839506172834,46.790123456790084,0)" xlink:href="#bi"/><use transform="matrix(0.06172839506172834,0,0,0.06172839506172834,59.135802469135754,0)" xlink:href="#cs"/><use transform="matrix(0.06172839506172834,0,0,0.06172839506172834,70.24691358024685,0)" xlink:href="#aS"/></g><g id="af"><use transform="matrix(0.06172839506172834,0,0,0.06172839506172834,0,0)" xlink:href="#aR"/><use transform="matrix(0.06172839506172834,0,0,0.06172839506172834,12.345679012345668,0)" xlink:href="#aS"/><use transform="matrix(0.06172839506172834,0,0,0.06172839506172834,24.691358024691336,0)" xlink:href="#bi"/><use transform="matrix(0.06172839506172834,0,0,0.06172839506172834,37.037037037037,0)" xlink:href="#aR"/><use transform="matrix(0.06172839506172834,0,0,0.06172839506172834,49.38271604938267,0)" xlink:href="#bo"/><use transform="matrix(0.06172839506172834,0,0,0.06172839506172834,54.25925925925921,0)" xlink:href="#aS"/></g><g id="ag"><use transform="matrix(0.06172839506172834,0,0,0.06172839506172834,0,0)" xlink:href="#bm"/><use transform="matrix(0.06172839506172834,0,0,0.06172839506172834,6.172839506172834,0)" xlink:href="#bf"/><use transform="matrix(0.06172839506172834,0,0,0.06172839506172834,18.5185185185185,0)" xlink:href="#bo"/><use transform="matrix(0.06172839506172834,0,0,0.06172839506172834,23.395061728395042,0)" xlink:href="#ct"/><use transform="matrix(0.06172839506172834,0,0,0.06172839506172834,34.50617283950614,0)" xlink:href="#ba"/><use transform="matrix(0.06172839506172834,0,0,0.06172839506172834,39.38271604938268,0)" xlink:href="#aT"/><use transform="matrix(0.06172839506172834,0,0,0.06172839506172834,51.72839506172835,0)" xlink:href="#bZ"/></g><g id="ah"><use transform="matrix(0.06172839506172834,0,0,0.06172839506172834,0,0)" xlink:href="#bi"/><use transform="matrix(0.06172839506172834,0,0,0.06172839506172834,12.345679012345668,0)" xlink:href="#cs"/><use transform="matrix(0.06172839506172834,0,0,0.06172839506172834,23.45679012345677,0)" xlink:href="#aS"/><use transform="matrix(0.06172839506172834,0,0,0.06172839506172834,35.80246913580244,0)" xlink:href="#bb"/></g><g id="ai"><use transform="matrix(0.06172839506172834,0,0,0.06172839506172834,0,0)" xlink:href="#aS"/><use transform="matrix(0.06172839506172834,0,0,0.06172839506172834,12.345679012345668,0)" xlink:href="#bf"/><use transform="matrix(0.06172839506172834,0,0,0.06172839506172834,24.691358024691336,0)" xlink:href="#bp"/><use transform="matrix(0.06172839506172834,0,0,0.06172839506172834,35.80246913580244,0)" xlink:href="#aZ"/><use transform="matrix(0.06172839506172834,0,0,0.06172839506172834,48.14814814814811,0)" xlink:href="#bi"/><use transform="matrix(0.06172839506172834,0,0,0.06172839506172834,60.49382716049378,0)" xlink:href="#bm"/><use transform="matrix(0.06172839506172834,0,0,0.06172839506172834,66.66666666666661,0)" xlink:href="#aZ"/><use transform="matrix(0.06172839506172834,0,0,0.06172839506172834,79.01234567901228,0)" xlink:href="#aS"/><use transform="matrix(0.06172839506172834,0,0,0.06172839506172834,91.35802469135795,0)" xlink:href="#bb"/><use transform="matrix(0.06172839506172834,0,0,0.06172839506172834,97.46913580246905,0)" xlink:href="#cv"/></g><g id="aj"><use transform="matrix(0.06172839506172834,0,0,0.06172839506172834,0,0)" xlink:href="#bg"/><use transform="matrix(0.06172839506172834,0,0,0.06172839506172834,12.345679012345668,0)" xlink:href="#aX"/><use transform="matrix(0.06172839506172834,0,0,0.06172839506172834,23.45679012345677,0)" xlink:href="#aS"/><use transform="matrix(0.06172839506172834,0,0,0.06172839506172834,35.80246913580244,0)" xlink:href="#be"/><use transform="matrix(0.06172839506172834,0,0,0.06172839506172834,41.975308641975275,0)" xlink:href="#bg"/><use transform="matrix(0.06172839506172834,0,0,0.06172839506172834,54.320987654320945,0)" xlink:href="#bo"/></g><g id="ak"><use transform="matrix(0.06172839506172834,0,0,0.06172839506172834,0,0)" xlink:href="#be"/><use transform="matrix(0.06172839506172834,0,0,0.06172839506172834,6.172839506172834,0)" xlink:href="#bi"/><use transform="matrix(0.06172839506172834,0,0,0.06172839506172834,18.5185185185185,0)" xlink:href="#bb"/></g><g id="al"><use transform="matrix(0.06172839506172834,0,0,0.06172839506172834,0,0)" xlink:href="#aR"/><use transform="matrix(0.06172839506172834,0,0,0.06172839506172834,12.345679012345668,0)" xlink:href="#bi"/><use transform="matrix(0.06172839506172834,0,0,0.06172839506172834,24.691358024691336,0)" xlink:href="#bh"/><use transform="matrix(0.06172839506172834,0,0,0.06172839506172834,37.037037037037,0)" xlink:href="#bp"/><use transform="matrix(0.06172839506172834,0,0,0.06172839506172834,48.1481481481481,0)" xlink:href="#bf"/><use transform="matrix(0.06172839506172834,0,0,0.06172839506172834,60.49382716049377,0)" xlink:href="#aX"/><use transform="matrix(0.06172839506172834,0,0,0.06172839506172834,71.60493827160488,0)" xlink:href="#bm"/><use transform="matrix(0.06172839506172834,0,0,0.06172839506172834,77.77777777777771,0)" xlink:href="#aX"/></g><g id="am"><use transform="matrix(0.06172839506172834,0,0,0.06172839506172834,0,0)" xlink:href="#cl"/><use transform="matrix(0.06172839506172834,0,0,0.06172839506172834,15.987654320987641,0)" xlink:href="#aS"/><use transform="matrix(0.06172839506172834,0,0,0.06172839506172834,28.333333333333307,0)" xlink:href="#bh"/><use transform="matrix(0.06172839506172834,0,0,0.06172839506172834,40.67901234567898,0)" xlink:href="#bg"/><use transform="matrix(0.06172839506172834,0,0,0.06172839506172834,53.02469135802465,0)" xlink:href="#bp"/><use transform="matrix(0.06172839506172834,0,0,0.06172839506172834,64.13580246913575,0)" xlink:href="#aS"/></g><g id="an"><use transform="matrix(0.06172839506172834,0,0,0.06172839506172834,0,0)" xlink:href="#bX"/><use transform="matrix(0.06172839506172834,0,0,0.06172839506172834,12.345679012345668,0)" xlink:href="#bf"/><use transform="matrix(0.06172839506172834,0,0,0.06172839506172834,24.691358024691336,0)" xlink:href="#bp"/><use transform="matrix(0.06172839506172834,0,0,0.06172839506172834,35.80246913580244,0)" xlink:href="#ct"/><use transform="matrix(0.06172839506172834,0,0,0.06172839506172834,46.91358024691354,0)" xlink:href="#bZ"/><use transform="matrix(0.06172839506172834,0,0,0.06172839506172834,59.25925925925921,0)" xlink:href="#bb"/><use transform="matrix(0.06172839506172834,0,0,0.06172839506172834,66.60493827160488,0)" xlink:href="#bi"/><use transform="matrix(0.06172839506172834,0,0,0.06172839506172834,78.95061728395055,0)" xlink:href="#bg"/><use transform="matrix(0.06172839506172834,0,0,0.06172839506172834,91.29629629629622,0)" xlink:href="#aT"/><use transform="matrix(0.06172839506172834,0,0,0.06172839506172834,103.64197530864189,0)" xlink:href="#bh"/></g><g id="ao"><use transform="matrix(0.06172839506172834,0,0,0.06172839506172834,0,0)" xlink:href="#aT"/><use transform="matrix(0.06172839506172834,0,0,0.06172839506172834,12.345679012345668,0)" xlink:href="#bi"/><use transform="matrix(0.06172839506172834,0,0,0.06172839506172834,24.691358024691336,0)" xlink:href="#ba"/><use transform="matrix(0.06172839506172834,0,0,0.06172839506172834,29.567901234567877,0)" xlink:href="#aX"/><use transform="matrix(0.06172839506172834,0,0,0.06172839506172834,40.67901234567898,0)" xlink:href="#aS"/><use transform="matrix(0.06172839506172834,0,0,0.06172839506172834,53.02469135802465,0)" xlink:href="#cv"/></g><g id="ap"><use transform="matrix(0.06172839506172834,0,0,0.06172839506172834,0,0)" xlink:href="#bo"/><use transform="matrix(0.06172839506172834,0,0,0.06172839506172834,4.876543209876539,0)" xlink:href="#ba"/><use transform="matrix(0.06172839506172834,0,0,0.06172839506172834,9.753086419753078,0)" xlink:href="#ct"/><use transform="matrix(0.06172839506172834,0,0,0.06172839506172834,20.864197530864182,0)" xlink:href="#aS"/></g><g id="aq"><use transform="matrix(0.06172839506172834,0,0,0.06172839506172834,0,0)" xlink:href="#bs"/><use transform="matrix(0.06172839506172834,0,0,0.06172839506172834,18.456790123456774,0)" xlink:href="#bg"/><use transform="matrix(0.06172839506172834,0,0,0.06172839506172834,30.80246913580244,0)" xlink:href="#aX"/><use transform="matrix(0.06172839506172834,0,0,0.06172839506172834,41.91358024691354,0)" xlink:href="#ba"/><use transform="matrix(0.06172839506172834,0,0,0.06172839506172834,46.79012345679008,0)" xlink:href="#bp"/></g><g id="ar"><use transform="matrix(0.06172839506172834,0,0,0.06172839506172834,0,0)" xlink:href="#bi"/><use transform="matrix(0.06172839506172834,0,0,0.06172839506172834,12.345679012345668,0)" xlink:href="#bb"/></g><g id="as"><use transform="matrix(0.06172839506172834,0,0,0.06172839506172834,0,0)" xlink:href="#aX"/><use transform="matrix(0.06172839506172834,0,0,0.06172839506172834,11.111111111111102,0)" xlink:href="#bm"/><use transform="matrix(0.06172839506172834,0,0,0.06172839506172834,17.283950617283935,0)" xlink:href="#bb"/><use transform="matrix(0.06172839506172834,0,0,0.06172839506172834,24.62962962962961,0)" xlink:href="#aS"/><use transform="matrix(0.06172839506172834,0,0,0.06172839506172834,36.975308641975275,0)" xlink:href="#aS"/><use transform="matrix(0.06172839506172834,0,0,0.06172839506172834,49.320987654320945,0)" xlink:href="#bm"/></g><g id="at"><use transform="matrix(0.06172839506172834,0,0,0.06172839506172834,0,0)" xlink:href="#aT"/><use transform="matrix(0.06172839506172834,0,0,0.06172839506172834,12.345679012345668,0)" xlink:href="#bi"/><use transform="matrix(0.06172839506172834,0,0,0.06172839506172834,24.691358024691336,0)" xlink:href="#ba"/><use transform="matrix(0.06172839506172834,0,0,0.06172839506172834,29.567901234567877,0)" xlink:href="#aX"/><use transform="matrix(0.06172839506172834,0,0,0.06172839506172834,40.67901234567898,0)" xlink:href="#aS"/></g><g id="au"><use transform="matrix(0.06172839506172834,0,0,0.06172839506172834,0,0)" xlink:href="#bc"/><use transform="matrix(0.06172839506172834,0,0,0.06172839506172834,14.814814814814802,0)" xlink:href="#aS"/><use transform="matrix(0.06172839506172834,0,0,0.06172839506172834,27.160493827160472,0)" xlink:href="#bm"/></g><g id="av"><use transform="matrix(0.06172839506172834,0,0,0.06172839506172834,0,0)" xlink:href="#bf"/><use transform="matrix(0.06172839506172834,0,0,0.06172839506172834,12.345679012345668,0)" xlink:href="#bg"/><use transform="matrix(0.06172839506172834,0,0,0.06172839506172834,24.691358024691336,0)" xlink:href="#bh"/><use transform="matrix(0.06172839506172834,0,0,0.06172839506172834,37.037037037037,0)" xlink:href="#ba"/><use transform="matrix(0.06172839506172834,0,0,0.06172839506172834,41.91358024691354,0)" xlink:href="#bi"/></g><path fill="#3a414a" d="M145-31C134-9 116 4 85 4 32 4 16-35 15-94c0-59 17-99 70-100 32-1 48 14 60 33 0-11-1-24 2-32h30l-1 268h-32zM93-21c41 0 51-33 51-76s-8-73-50-73c-40 0-46 35-46 75s5 74 45 74" id="cw"/><g id="aw"><use transform="matrix(0.06172839506172834,0,0,0.06172839506172834,0,0)" xlink:href="#be"/><use transform="matrix(0.06172839506172834,0,0,0.06172839506172834,6.172839506172834,0)" xlink:href="#bb"/><use transform="matrix(0.06172839506172834,0,0,0.06172839506172834,13.518518518518507,0)" xlink:href="#aS"/><use transform="matrix(0.06172839506172834,0,0,0.06172839506172834,25.864197530864175,0)" xlink:href="#cw"/><use transform="matrix(0.06172839506172834,0,0,0.06172839506172834,38.209876543209845,0)" xlink:href="#bg"/><use transform="matrix(0.06172839506172834,0,0,0.06172839506172834,50.555555555555515,0)" xlink:href="#aS"/><use transform="matrix(0.06172839506172834,0,0,0.06172839506172834,62.901234567901184,0)" xlink:href="#aT"/><use transform="matrix(0.06172839506172834,0,0,0.06172839506172834,75.24691358024685,0)" xlink:href="#bp"/><use transform="matrix(0.06172839506172834,0,0,0.06172839506172834,86.35802469135795,0)" xlink:href="#ba"/><use transform="matrix(0.06172839506172834,0,0,0.06172839506172834,91.2345679012345,0)" xlink:href="#aS"/><use transform="matrix(0.06172839506172834,0,0,0.06172839506172834,103.58024691358017,0)" xlink:href="#aX"/><use transform="matrix(0.06172839506172834,0,0,0.06172839506172834,114.69135802469127,0)" xlink:href="#cv"/></g><g id="ax"><use transform="matrix(0.06172839506172834,0,0,0.06172839506172834,0,0)" xlink:href="#bp"/><use transform="matrix(0.06172839506172834,0,0,0.06172839506172834,11.111111111111102,0)" xlink:href="#aZ"/><use transform="matrix(0.06172839506172834,0,0,0.06172839506172834,23.45679012345677,0)" xlink:href="#bf"/><use transform="matrix(0.06172839506172834,0,0,0.06172839506172834,35.80246913580244,0)" xlink:href="#aT"/><use transform="matrix(0.06172839506172834,0,0,0.06172839506172834,48.14814814814811,0)" xlink:href="#aT"/><use transform="matrix(0.06172839506172834,0,0,0.06172839506172834,60.49382716049378,0)" xlink:href="#aS"/><use transform="matrix(0.06172839506172834,0,0,0.06172839506172834,72.83950617283945,0)" xlink:href="#bo"/><use transform="matrix(0.06172839506172834,0,0,0.06172839506172834,77.716049382716,0)" xlink:href="#aX"/></g><g id="ay"><use transform="matrix(0.06172839506172834,0,0,0.06172839506172834,0,0)" xlink:href="#bc"/><use transform="matrix(0.06172839506172834,0,0,0.06172839506172834,14.814814814814802,0)" xlink:href="#aR"/><use transform="matrix(0.06172839506172834,0,0,0.06172839506172834,27.160493827160472,0)" xlink:href="#bo"/><use transform="matrix(0.06172839506172834,0,0,0.06172839506172834,32.03703703703701,0)" xlink:href="#ba"/><use transform="matrix(0.06172839506172834,0,0,0.06172839506172834,36.91358024691355,0)" xlink:href="#bm"/><use transform="matrix(0.06172839506172834,0,0,0.06172839506172834,43.08641975308638,0)" xlink:href="#aX"/></g><g id="az"><use transform="matrix(0.06172839506172834,0,0,0.06172839506172834,0,0)" xlink:href="#bf"/><use transform="matrix(0.06172839506172834,0,0,0.06172839506172834,12.345679012345668,0)" xlink:href="#bg"/><use transform="matrix(0.06172839506172834,0,0,0.06172839506172834,24.691358024691336,0)" xlink:href="#bh"/><use transform="matrix(0.06172839506172834,0,0,0.06172839506172834,37.037037037037,0)" xlink:href="#ba"/><use transform="matrix(0.06172839506172834,0,0,0.06172839506172834,41.91358024691354,0)" xlink:href="#bi"/></g><g id="aA"><use transform="matrix(0.06172839506172834,0,0,0.06172839506172834,0,0)" xlink:href="#bX"/><use transform="matrix(0.06172839506172834,0,0,0.06172839506172834,12.345679012345668,0)" xlink:href="#bf"/><use transform="matrix(0.06172839506172834,0,0,0.06172839506172834,24.691358024691336,0)" xlink:href="#aX"/><use transform="matrix(0.06172839506172834,0,0,0.06172839506172834,35.80246913580244,0)" xlink:href="#aS"/><use transform="matrix(0.06172839506172834,0,0,0.06172839506172834,48.14814814814811,0)" xlink:href="#bh"/></g><g id="aB"><use transform="matrix(0.06172839506172834,0,0,0.06172839506172834,0,0)" xlink:href="#bi"/><use transform="matrix(0.06172839506172834,0,0,0.06172839506172834,12.345679012345668,0)" xlink:href="#aT"/></g><g id="aC"><use transform="matrix(0.06172839506172834,0,0,0.06172839506172834,0,0)" xlink:href="#aX"/><use transform="matrix(0.06172839506172834,0,0,0.06172839506172834,11.111111111111102,0)" xlink:href="#aR"/><use transform="matrix(0.06172839506172834,0,0,0.06172839506172834,23.45679012345677,0)" xlink:href="#aS"/><use transform="matrix(0.06172839506172834,0,0,0.06172839506172834,35.80246913580244,0)" xlink:href="#bf"/><use transform="matrix(0.06172839506172834,0,0,0.06172839506172834,48.14814814814811,0)" xlink:href="#ct"/><use transform="matrix(0.06172839506172834,0,0,0.06172839506172834,59.25925925925921,0)" xlink:href="#aS"/><use transform="matrix(0.06172839506172834,0,0,0.06172839506172834,71.60493827160488,0)" xlink:href="#bb"/><use transform="matrix(0.06172839506172834,0,0,0.06172839506172834,78.95061728395055,0)" xlink:href="#aX"/><use transform="matrix(0.06172839506172834,0,0,0.06172839506172834,90.06172839506165,0)" xlink:href="#cv"/></g><g id="aD"><use transform="matrix(0.06172839506172834,0,0,0.06172839506172834,0,0)" xlink:href="#bm"/><use transform="matrix(0.06172839506172834,0,0,0.06172839506172834,6.172839506172834,0)" xlink:href="#aZ"/><use transform="matrix(0.06172839506172834,0,0,0.06172839506172834,18.5185185185185,0)" xlink:href="#aS"/><use transform="matrix(0.06172839506172834,0,0,0.06172839506172834,30.864197530864168,0)" xlink:href="#aT"/></g><g id="aE"><use transform="matrix(0.06172839506172834,0,0,0.06172839506172834,0,0)" xlink:href="#bf"/><use transform="matrix(0.06172839506172834,0,0,0.06172839506172834,12.345679012345668,0)" xlink:href="#aT"/><use transform="matrix(0.06172839506172834,0,0,0.06172839506172834,24.691358024691336,0)" xlink:href="#bf"/><use transform="matrix(0.06172839506172834,0,0,0.06172839506172834,37.037037037037,0)" xlink:href="#bo"/><use transform="matrix(0.06172839506172834,0,0,0.06172839506172834,41.91358024691354,0)" xlink:href="#bk"/><use transform="matrix(0.06172839506172834,0,0,0.06172839506172834,53.02469135802464,0)" xlink:href="#bt"/><use transform="matrix(0.06172839506172834,0,0,0.06172839506172834,64.13580246913574,0)" xlink:href="#aS"/><use transform="matrix(0.06172839506172834,0,0,0.06172839506172834,76.48148148148141,0)" xlink:href="#aX"/></g><g id="aF"><use transform="matrix(0.06172839506172834,0,0,0.06172839506172834,0,0)" xlink:href="#bf"/><use transform="matrix(0.06172839506172834,0,0,0.06172839506172834,12.345679012345668,0)" xlink:href="#bo"/><use transform="matrix(0.06172839506172834,0,0,0.06172839506172834,17.222222222222207,0)" xlink:href="#bo"/></g><g id="aG"><use transform="matrix(0.06172839506172834,0,0,0.06172839506172834,0,0)" xlink:href="#be"/><use transform="matrix(0.06172839506172834,0,0,0.06172839506172834,6.172839506172834,0)" xlink:href="#ba"/><use transform="matrix(0.06172839506172834,0,0,0.06172839506172834,11.049382716049372,0)" xlink:href="#bo"/><use transform="matrix(0.06172839506172834,0,0,0.06172839506172834,15.925925925925913,0)" xlink:href="#aS"/><use transform="matrix(0.06172839506172834,0,0,0.06172839506172834,28.27160493827158,0)" xlink:href="#aX"/></g><g id="aH"><use transform="matrix(0.06172839506172834,0,0,0.06172839506172834,0,0)" xlink:href="#bm"/><use transform="matrix(0.06172839506172834,0,0,0.06172839506172834,6.172839506172834,0)" xlink:href="#bi"/></g><g id="aI"><use transform="matrix(0.06172839506172834,0,0,0.06172839506172834,0,0)" xlink:href="#be"/><use transform="matrix(0.06172839506172834,0,0,0.06172839506172834,6.172839506172834,0)" xlink:href="#ba"/><use transform="matrix(0.06172839506172834,0,0,0.06172839506172834,11.049382716049372,0)" xlink:href="#aT"/><use transform="matrix(0.06172839506172834,0,0,0.06172839506172834,23.395061728395042,0)" xlink:href="#bh"/></g><use transform="matrix(0.06172839506172834,0,0,0.06172839506172834,0,0)" xlink:href="#bf" id="aJ"/><g id="aK"><use transform="matrix(0.06172839506172834,0,0,0.06172839506172834,0,0)" xlink:href="#bp"/><use transform="matrix(0.06172839506172834,0,0,0.06172839506172834,11.111111111111102,0)" xlink:href="#aZ"/><use transform="matrix(0.06172839506172834,0,0,0.06172839506172834,23.45679012345677,0)" xlink:href="#bi"/><use transform="matrix(0.06172839506172834,0,0,0.06172839506172834,35.80246913580244,0)" xlink:href="#bi"/><use transform="matrix(0.06172839506172834,0,0,0.06172839506172834,48.14814814814811,0)" xlink:href="#aX"/><use transform="matrix(0.06172839506172834,0,0,0.06172839506172834,59.25925925925921,0)" xlink:href="#aS"/><use transform="matrix(0.06172839506172834,0,0,0.06172839506172834,71.60493827160488,0)" xlink:href="#aT"/></g><g id="aL"><use transform="matrix(0.06172839506172834,0,0,0.06172839506172834,0,0)" xlink:href="#aX"/><use transform="matrix(0.06172839506172834,0,0,0.06172839506172834,11.111111111111102,0)" xlink:href="#aR"/><use transform="matrix(0.06172839506172834,0,0,0.06172839506172834,23.45679012345677,0)" xlink:href="#aS"/><use transform="matrix(0.06172839506172834,0,0,0.06172839506172834,35.80246913580244,0)" xlink:href="#bf"/><use transform="matrix(0.06172839506172834,0,0,0.06172839506172834,48.14814814814811,0)" xlink:href="#ct"/><use transform="matrix(0.06172839506172834,0,0,0.06172839506172834,59.25925925925921,0)" xlink:href="#aS"/><use transform="matrix(0.06172839506172834,0,0,0.06172839506172834,71.60493827160488,0)" xlink:href="#bb"/></g><g id="aM"><use transform="matrix(0.06172839506172834,0,0,0.06172839506172834,0,0)" xlink:href="#ba"/><use transform="matrix(0.06172839506172834,0,0,0.06172839506172834,4.876543209876539,0)" xlink:href="#aT"/></g><g id="aN"><use transform="matrix(0.06172839506172834,0,0,0.06172839506172834,0,0)" xlink:href="#bs"/><use transform="matrix(0.06172839506172834,0,0,0.06172839506172834,18.456790123456774,0)" xlink:href="#bg"/><use transform="matrix(0.06172839506172834,0,0,0.06172839506172834,30.80246913580244,0)" xlink:href="#bo"/><use transform="matrix(0.06172839506172834,0,0,0.06172839506172834,35.67901234567898,0)" xlink:href="#bm"/><use transform="matrix(0.06172839506172834,0,0,0.06172839506172834,41.85185185185181,0)" xlink:href="#ba"/><use transform="matrix(0.06172839506172834,0,0,0.06172839506172834,46.72839506172835,0)" xlink:href="#aR"/><use transform="matrix(0.06172839506172834,0,0,0.06172839506172834,59.07407407407402,0)" xlink:href="#bo"/><use transform="matrix(0.06172839506172834,0,0,0.06172839506172834,63.950617283950564,0)" xlink:href="#aS"/></g><g id="aO"><use transform="matrix(0.06172839506172834,0,0,0.06172839506172834,0,0)" xlink:href="#be"/><use transform="matrix(0.06172839506172834,0,0,0.06172839506172834,6.172839506172834,0)" xlink:href="#ba"/><use transform="matrix(0.06172839506172834,0,0,0.06172839506172834,11.049382716049372,0)" xlink:href="#bo"/><use transform="matrix(0.06172839506172834,0,0,0.06172839506172834,15.925925925925913,0)" xlink:href="#aS"/><use transform="matrix(0.06172839506172834,0,0,0.06172839506172834,28.27160493827158,0)" xlink:href="#aX"/></g><path fill="#3a414a" d="M121-226c-27-7-43 5-38 36h38v33H83V0H34v-157H6v-33h28c-9-59 32-81 87-68v32" id="cx"/><path fill="#3a414a" d="M25-224v-37h50v37H25zM25 0v-190h50V0H25" id="cy"/><path fill="#3a414a" d="M85 4C-2 5 27-109 22-190h50c7 57-23 150 33 157 60-5 35-97 40-157h50l1 190h-47c-2-12 1-28-3-38-12 25-28 42-61 42" id="cz"/><path fill="#3a414a" d="M110-194c64 0 96 36 96 99 0 64-35 99-97 99-61 0-95-36-95-99 0-62 34-99 96-99zm-1 164c35 0 45-28 45-65 0-40-10-65-43-65-34 0-45 26-45 65 0 36 10 65 43 65" id="cA"/><g id="aP"><use transform="matrix(0.1419753086419752,0,0,0.1419753086419752,0,0)" xlink:href="#bx"/><use transform="matrix(0.1419753086419752,0,0,0.1419753086419752,19.876543209876527,0)" xlink:href="#bv"/><use transform="matrix(0.1419753086419752,0,0,0.1419753086419752,48.271604938271565,0)" xlink:href="#cx"/><use transform="matrix(0.1419753086419752,0,0,0.1419753086419752,65.16666666666661,0)" xlink:href="#cy"/><use transform="matrix(0.1419753086419752,0,0,0.1419753086419752,79.36419753086413,0)" xlink:href="#bw"/><use transform="matrix(0.1419753086419752,0,0,0.1419753086419752,110.4567901234567,0)" xlink:href="#bv"/><use transform="matrix(0.1419753086419752,0,0,0.1419753086419752,138.85185185185173,0)" xlink:href="#by"/><use transform="matrix(0.1419753086419752,0,0,0.1419753086419752,167.24691358024677,0)" xlink:href="#cz"/><use transform="matrix(0.1419753086419752,0,0,0.1419753086419752,198.33950617283932,0)" xlink:href="#bB"/><use transform="matrix(0.1419753086419752,0,0,0.1419753086419752,229.43209876543187,0)" xlink:href="#cy"/><use transform="matrix(0.1419753086419752,0,0,0.1419753086419752,243.6296296296294,0)" xlink:href="#cA"/><use transform="matrix(0.1419753086419752,0,0,0.1419753086419752,274.72222222222194,0)" xlink:href="#bD"/><use transform="matrix(0.1419753086419752,0,0,0.1419753086419752,288.91975308641946,0)" xlink:href="#bE"/><use transform="matrix(0.1419753086419752,0,0,0.1419753086419752,320.012345679012,0)" xlink:href="#bF"/></g></defs></g></svg>